ISO-10303-21;
HEADER;
FILE_DESCRIPTION(('ViewDefinition[DesignTransferView]'),'2;1');
FILE_NAME('/dev/null','2026-06-09T21:31:39+00:00',(''),(''),'IfcOpenShell 0.8.5','IfcOpenShell 0.8.5','Nobody');
FILE_SCHEMA(('IFC4'));
ENDSEC;
DATA;
#1=IFCPERSON($,'Martinez Rodriguez','Pablo',$,$,$,$,$);
#2=IFCORGANIZATION($,'Northumbria University',$,$,$);
#3=IFCPERSONANDORGANIZATION(#1,#2,$);
#4=IFCAPPLICATION(#2,'0.8','LGS Panel Generator','LGSGEN');
#5=IFCOWNERHISTORY(#3,#4,.READWRITE.,.ADDED.,1781040699,#3,#4,1781040699);
#6=IFCPROJECT('1QgdvyFTDAIx5F1tRNT7q9',#5,'LGS Panel Library',$,$,$,$,(#13),#8);
#7=IFCSIUNIT(*,.LENGTHUNIT.,$,.METRE.);
#8=IFCUNITASSIGNMENT((#7));
#9=IFCCARTESIANPOINT((0.,0.,0.));
#10=IFCDIRECTION((0.,0.,1.));
#11=IFCDIRECTION((1.,0.,0.));
#12=IFCAXIS2PLACEMENT3D(#9,#10,#11);
#13=IFCGEOMETRICREPRESENTATIONCONTEXT($,'Model',3,1.0000000000000001E-05,#12,$);
#14=IFCGEOMETRICREPRESENTATIONSUBCONTEXT('Body','Model',*,*,*,*,#13,$,.MODEL_VIEW.,$);
#15=IFCOWNERHISTORY(#3,#4,.READWRITE.,.ADDED.,1781040699,#3,#4,1781040699);
#16=IFCSITE('2pF74Xi3LDrulmikmce3vI',#15,'Site',$,$,$,$,$,$,$,$,$,$,$);
#17=IFCOWNERHISTORY(#3,#4,.READWRITE.,.ADDED.,1781040699,#3,#4,1781040699);
#18=IFCBUILDING('2UzekDUpz9MR1tHxTL1Hep',#17,'Manufacturing Reference',$,$,$,$,$,$,$,$,$);
#19=IFCOWNERHISTORY(#3,#4,.READWRITE.,.ADDED.,1781040699,#3,#4,1781040699);
#20=IFCBUILDINGSTOREY('0Yptocfzn2MAIMqDWeg6k3',#19,'Ground Floor',$,$,$,$,$,$,$);
#21=IFCOWNERHISTORY(#3,#4,.READWRITE.,.ADDED.,1781040699,#3,#4,1781040699);
#22=IFCRELAGGREGATES('2MihrjUDTC9hojw7pwPg8A',#21,$,$,#6,(#16));
#23=IFCOWNERHISTORY(#3,#4,.READWRITE.,.ADDED.,1781040699,#3,#4,1781040699);
#24=IFCRELAGGREGATES('3LdcTOjwX1N9Aq3zqeArEZ',#23,$,$,#16,(#18));
#25=IFCOWNERHISTORY(#3,#4,.READWRITE.,.ADDED.,1781040699,#3,#4,1781040699);
#26=IFCRELAGGREGATES('1gsTQmHijCa9Ic3M$fPA4D',#25,$,$,#18,(#20));
#27=IFCMATERIAL('Light Gauge Steel S350GD+Z',$,$);
#28=IFCOWNERHISTORY(#3,#4,.READWRITE.,.MODIFIED.,1781040699,#3,#4,1781040699);
#29=IFCELEMENTASSEMBLY('1hcf$x_Hf8uhHnyobLttog',#28,'External Wall Panel with Window Opening',$,$,#41,$,$,$,$);
#35=IFCOWNERHISTORY(#3,#4,.READWRITE.,.ADDED.,1781040699,#3,#4,1781040699);
#36=IFCRELCONTAINEDINSPATIALSTRUCTURE('21IcWpHpb2khEzzHAWhKfa',#35,$,$,(#29),#20);
#37=IFCCARTESIANPOINT((0.,0.,0.));
#38=IFCDIRECTION((0.,0.,1.));
#39=IFCDIRECTION((1.,0.,0.));
#40=IFCAXIS2PLACEMENT3D(#37,#38,#39);
#41=IFCLOCALPLACEMENT($,#40);
#42=IFCOWNERHISTORY(#3,#4,.READWRITE.,.MODIFIED.,1781040699,#3,#4,1781040699);
#43=IFCMEMBER('3IZfBCsDT5UAuidNZXjqne',#42,'U152x40 1.6mm',$,$,#625,#62,$,.MEMBER.);
#44=IFCCARTESIANPOINT((0.,0.));
#45=IFCCARTESIANPOINT((0.,0.14999999999999999));
#46=IFCCARTESIANPOINT((0.040000000000000001,0.14999999999999999));
#47=IFCCARTESIANPOINT((0.040000000000000001,0.1484));
#48=IFCCARTESIANPOINT((0.0016000000000000001,0.1484));
#49=IFCCARTESIANPOINT((0.0016000000000000001,0.0016000000000000001));
#50=IFCCARTESIANPOINT((0.040000000000000001,0.0016000000000000001));
#51=IFCCARTESIANPOINT((0.040000000000000001,0.));
#52=IFCCARTESIANPOINT((0.,0.));
#53=IFCPOLYLINE((#44,#45,#46,#47,#48,#49,#50,#51,#52));
#54=IFCARBITRARYCLOSEDPROFILEDEF(.AREA.,$,#53);
#55=IFCCARTESIANPOINT((0.,0.14999999999999999,0.));
#56=IFCDIRECTION((1.,0.,0.));
#57=IFCDIRECTION((0.,0.,1.));
#58=IFCAXIS2PLACEMENT3D(#55,#56,#57);
#59=IFCDIRECTION((0.,0.,1.));
#60=IFCEXTRUDEDAREASOLID(#54,#58,#59,3.6000000000000001);
#61=IFCSHAPEREPRESENTATION(#14,'Body','SweptSolid',(#60));
#62=IFCPRODUCTDEFINITIONSHAPE($,$,(#61));
#68=IFCOWNERHISTORY(#3,#4,.READWRITE.,.MODIFIED.,1781040699,#3,#4,1781040699);
#69=IFCMEMBER('0a5L0_YUfBTB4ujhK3t5j1',#68,'U152x40 1.6mm',$,$,#610,#88,$,.MEMBER.);
#70=IFCCARTESIANPOINT((0.,0.));
#71=IFCCARTESIANPOINT((0.,0.14999999999999999));
#72=IFCCARTESIANPOINT((0.040000000000000001,0.14999999999999999));
#73=IFCCARTESIANPOINT((0.040000000000000001,0.1484));
#74=IFCCARTESIANPOINT((0.0016000000000000001,0.1484));
#75=IFCCARTESIANPOINT((0.0016000000000000001,0.0016000000000000001));
#76=IFCCARTESIANPOINT((0.040000000000000001,0.0016000000000000001));
#77=IFCCARTESIANPOINT((0.040000000000000001,0.));
#78=IFCCARTESIANPOINT((0.,0.));
#79=IFCPOLYLINE((#70,#71,#72,#73,#74,#75,#76,#77,#78));
#80=IFCARBITRARYCLOSEDPROFILEDEF(.AREA.,$,#79);
#81=IFCCARTESIANPOINT((0.,0.,2.7000000000000002));
#82=IFCDIRECTION((1.,0.,0.));
#83=IFCDIRECTION((0.,0.,-1.));
#84=IFCAXIS2PLACEMENT3D(#81,#82,#83);
#85=IFCDIRECTION((0.,0.,1.));
#86=IFCEXTRUDEDAREASOLID(#80,#84,#85,3.6000000000000001);
#87=IFCSHAPEREPRESENTATION(#14,'Body','SweptSolid',(#86));
#88=IFCPRODUCTDEFINITIONSHAPE($,$,(#87));
#94=IFCOWNERHISTORY(#3,#4,.READWRITE.,.MODIFIED.,1781040699,#3,#4,1781040699);
#95=IFCMEMBER('2EDNu8ZS98FOjDCEuQCEO2',#94,'C150x50x16 1.6mm',$,$,#595,#118,$,.STUD.);
#96=IFCCARTESIANPOINT((0.,0.));
#97=IFCCARTESIANPOINT((0.,0.14999999999999999));
#98=IFCCARTESIANPOINT((0.050000000000000003,0.14999999999999999));
#99=IFCCARTESIANPOINT((0.050000000000000003,0.13500000000000001));
#100=IFCCARTESIANPOINT((0.048400000000000006,0.13500000000000001));
#101=IFCCARTESIANPOINT((0.048400000000000006,0.1484));
#102=IFCCARTESIANPOINT((0.0016000000000000001,0.1484));
#103=IFCCARTESIANPOINT((0.0016000000000000001,0.0016000000000000001));
#104=IFCCARTESIANPOINT((0.048400000000000006,0.0016000000000000001));
#105=IFCCARTESIANPOINT((0.048400000000000006,0.014999999999999999));
#106=IFCCARTESIANPOINT((0.050000000000000003,0.014999999999999999));
#107=IFCCARTESIANPOINT((0.050000000000000003,0.));
#108=IFCCARTESIANPOINT((0.,0.));
#109=IFCPOLYLINE((#96,#97,#98,#99,#100,#101,#102,#103,#104,#105,#106,#107,#108));
#110=IFCARBITRARYCLOSEDPROFILEDEF(.AREA.,$,#109);
#111=IFCCARTESIANPOINT((-0.025000000000000001,0.,0.0016000000000000001));
#112=IFCDIRECTION((0.,0.,1.));
#113=IFCDIRECTION((1.,0.,0.));
#114=IFCAXIS2PLACEMENT3D(#111,#112,#113);
#115=IFCDIRECTION((0.,0.,1.));
#116=IFCEXTRUDEDAREASOLID(#110,#114,#115,2.6968000000000001);
#117=IFCSHAPEREPRESENTATION(#14,'Body','SweptSolid',(#116));
#118=IFCPRODUCTDEFINITIONSHAPE($,$,(#117));
#124=IFCOWNERHISTORY(#3,#4,.READWRITE.,.MODIFIED.,1781040699,#3,#4,1781040699);
#125=IFCMEMBER('0MZSFDKybBqxq$Az05BMr1',#124,'C150x50x16 1.6mm',$,$,#655,#148,$,.STUD.);
#126=IFCCARTESIANPOINT((0.,0.));
#127=IFCCARTESIANPOINT((0.,0.14999999999999999));
#128=IFCCARTESIANPOINT((0.050000000000000003,0.14999999999999999));
#129=IFCCARTESIANPOINT((0.050000000000000003,0.13500000000000001));
#130=IFCCARTESIANPOINT((0.048400000000000006,0.13500000000000001));
#131=IFCCARTESIANPOINT((0.048400000000000006,0.1484));
#132=IFCCARTESIANPOINT((0.0016000000000000001,0.1484));
#133=IFCCARTESIANPOINT((0.0016000000000000001,0.0016000000000000001));
#134=IFCCARTESIANPOINT((0.048400000000000006,0.0016000000000000001));
#135=IFCCARTESIANPOINT((0.048400000000000006,0.014999999999999999));
#136=IFCCARTESIANPOINT((0.050000000000000003,0.014999999999999999));
#137=IFCCARTESIANPOINT((0.050000000000000003,0.));
#138=IFCCARTESIANPOINT((0.,0.));
#139=IFCPOLYLINE((#126,#127,#128,#129,#130,#131,#132,#133,#134,#135,#136,#137,#138));
#140=IFCARBITRARYCLOSEDPROFILEDEF(.AREA.,$,#139);
#141=IFCCARTESIANPOINT((0.375,0.,0.0016000000000000001));
#142=IFCDIRECTION((0.,0.,1.));
#143=IFCDIRECTION((1.,0.,0.));
#144=IFCAXIS2PLACEMENT3D(#141,#142,#143);
#145=IFCDIRECTION((0.,0.,1.));
#146=IFCEXTRUDEDAREASOLID(#140,#144,#145,2.6968000000000001);
#147=IFCSHAPEREPRESENTATION(#14,'Body','SweptSolid',(#146));
#148=IFCPRODUCTDEFINITIONSHAPE($,$,(#147));
#154=IFCOWNERHISTORY(#3,#4,.READWRITE.,.MODIFIED.,1781040699,#3,#4,1781040699);
#155=IFCMEMBER('37lAUTRNLETOED1e7w$CQ5',#154,'C150x50x16 1.6mm',$,$,#600,#178,$,.STUD.);
#156=IFCCARTESIANPOINT((0.,0.));
#157=IFCCARTESIANPOINT((0.,0.14999999999999999));
#158=IFCCARTESIANPOINT((0.050000000000000003,0.14999999999999999));
#159=IFCCARTESIANPOINT((0.050000000000000003,0.13500000000000001));
#160=IFCCARTESIANPOINT((0.048400000000000006,0.13500000000000001));
#161=IFCCARTESIANPOINT((0.048400000000000006,0.1484));
#162=IFCCARTESIANPOINT((0.0016000000000000001,0.1484));
#163=IFCCARTESIANPOINT((0.0016000000000000001,0.0016000000000000001));
#164=IFCCARTESIANPOINT((0.048400000000000006,0.0016000000000000001));
#165=IFCCARTESIANPOINT((0.048400000000000006,0.014999999999999999));
#166=IFCCARTESIANPOINT((0.050000000000000003,0.014999999999999999));
#167=IFCCARTESIANPOINT((0.050000000000000003,0.));
#168=IFCCARTESIANPOINT((0.,0.));
#169=IFCPOLYLINE((#156,#157,#158,#159,#160,#161,#162,#163,#164,#165,#166,#167,#168));
#170=IFCARBITRARYCLOSEDPROFILEDEF(.AREA.,$,#169);
#171=IFCCARTESIANPOINT((0.77500000000000002,0.,0.0016000000000000001));
#172=IFCDIRECTION((0.,0.,1.));
#173=IFCDIRECTION((1.,0.,0.));
#174=IFCAXIS2PLACEMENT3D(#171,#172,#173);
#175=IFCDIRECTION((0.,0.,1.));
#176=IFCEXTRUDEDAREASOLID(#170,#174,#175,2.6968000000000001);
#177=IFCSHAPEREPRESENTATION(#14,'Body','SweptSolid',(#176));
#178=IFCPRODUCTDEFINITIONSHAPE($,$,(#177));
#184=IFCOWNERHISTORY(#3,#4,.READWRITE.,.MODIFIED.,1781040699,#3,#4,1781040699);
#185=IFCMEMBER('3NbGQcJpn7Y9cBoEjWFVdv',#184,'C150x50x16 1.6mm',$,$,#605,#208,$,.STUD.);
#186=IFCCARTESIANPOINT((0.,0.));
#187=IFCCARTESIANPOINT((0.,0.14999999999999999));
#188=IFCCARTESIANPOINT((0.050000000000000003,0.14999999999999999));
#189=IFCCARTESIANPOINT((0.050000000000000003,0.13500000000000001));
#190=IFCCARTESIANPOINT((0.048400000000000006,0.13500000000000001));
#191=IFCCARTESIANPOINT((0.048400000000000006,0.1484));
#192=IFCCARTESIANPOINT((0.0016000000000000001,0.1484));
#193=IFCCARTESIANPOINT((0.0016000000000000001,0.0016000000000000001));
#194=IFCCARTESIANPOINT((0.048400000000000006,0.0016000000000000001));
#195=IFCCARTESIANPOINT((0.048400000000000006,0.014999999999999999));
#196=IFCCARTESIANPOINT((0.050000000000000003,0.014999999999999999));
#197=IFCCARTESIANPOINT((0.050000000000000003,0.));
#198=IFCCARTESIANPOINT((0.,0.));
#199=IFCPOLYLINE((#186,#187,#188,#189,#190,#191,#192,#193,#194,#195,#196,#197,#198));
#200=IFCARBITRARYCLOSEDPROFILEDEF(.AREA.,$,#199);
#201=IFCCARTESIANPOINT((1.175,0.,0.0016000000000000001));
#202=IFCDIRECTION((0.,0.,1.));
#203=IFCDIRECTION((1.,0.,0.));
#204=IFCAXIS2PLACEMENT3D(#201,#202,#203);
#205=IFCDIRECTION((0.,0.,1.));
#206=IFCEXTRUDEDAREASOLID(#200,#204,#205,2.6968000000000001);
#207=IFCSHAPEREPRESENTATION(#14,'Body','SweptSolid',(#206));
#208=IFCPRODUCTDEFINITIONSHAPE($,$,(#207));
#214=IFCOWNERHISTORY(#3,#4,.READWRITE.,.MODIFIED.,1781040699,#3,#4,1781040699);
#215=IFCMEMBER('1run8vb5nEUv78sZ1SYS6y',#214,'C150x50x16 1.6mm',$,$,#660,#238,$,.STUD.);
#216=IFCCARTESIANPOINT((0.,0.));
#217=IFCCARTESIANPOINT((0.,0.14999999999999999));
#218=IFCCARTESIANPOINT((0.050000000000000003,0.14999999999999999));
#219=IFCCARTESIANPOINT((0.050000000000000003,0.13500000000000001));
#220=IFCCARTESIANPOINT((0.048400000000000006,0.13500000000000001));
#221=IFCCARTESIANPOINT((0.048400000000000006,0.1484));
#222=IFCCARTESIANPOINT((0.0016000000000000001,0.1484));
#223=IFCCARTESIANPOINT((0.0016000000000000001,0.0016000000000000001));
#224=IFCCARTESIANPOINT((0.048400000000000006,0.0016000000000000001));
#225=IFCCARTESIANPOINT((0.048400000000000006,0.014999999999999999));
#226=IFCCARTESIANPOINT((0.050000000000000003,0.014999999999999999));
#227=IFCCARTESIANPOINT((0.050000000000000003,0.));
#228=IFCCARTESIANPOINT((0.,0.));
#229=IFCPOLYLINE((#216,#217,#218,#219,#220,#221,#222,#223,#224,#225,#226,#227,#228));
#230=IFCARBITRARYCLOSEDPROFILEDEF(.AREA.,$,#229);
#231=IFCCARTESIANPOINT((2.375,0.,0.0016000000000000001));
#232=IFCDIRECTION((0.,0.,1.));
#233=IFCDIRECTION((1.,0.,0.));
#234=IFCAXIS2PLACEMENT3D(#231,#232,#233);
#235=IFCDIRECTION((0.,0.,1.));
#236=IFCEXTRUDEDAREASOLID(#230,#234,#235,2.6968000000000001);
#237=IFCSHAPEREPRESENTATION(#14,'Body','SweptSolid',(#236));
#238=IFCPRODUCTDEFINITIONSHAPE($,$,(#237));
#244=IFCOWNERHISTORY(#3,#4,.READWRITE.,.MODIFIED.,1781040699,#3,#4,1781040699);
#245=IFCMEMBER('3AOusFjZ91tgbK277Sxnvg',#244,'C150x50x16 1.6mm',$,$,#615,#268,$,.STUD.);
#246=IFCCARTESIANPOINT((0.,0.));
#247=IFCCARTESIANPOINT((0.,0.14999999999999999));
#248=IFCCARTESIANPOINT((0.050000000000000003,0.14999999999999999));
#249=IFCCARTESIANPOINT((0.050000000000000003,0.13500000000000001));
#250=IFCCARTESIANPOINT((0.048400000000000006,0.13500000000000001));
#251=IFCCARTESIANPOINT((0.048400000000000006,0.1484));
#252=IFCCARTESIANPOINT((0.0016000000000000001,0.1484));
#253=IFCCARTESIANPOINT((0.0016000000000000001,0.0016000000000000001));
#254=IFCCARTESIANPOINT((0.048400000000000006,0.0016000000000000001));
#255=IFCCARTESIANPOINT((0.048400000000000006,0.014999999999999999));
#256=IFCCARTESIANPOINT((0.050000000000000003,0.014999999999999999));
#257=IFCCARTESIANPOINT((0.050000000000000003,0.));
#258=IFCCARTESIANPOINT((0.,0.));
#259=IFCPOLYLINE((#246,#247,#248,#249,#250,#251,#252,#253,#254,#255,#256,#257,#258));
#260=IFCARBITRARYCLOSEDPROFILEDEF(.AREA.,$,#259);
#261=IFCCARTESIANPOINT((2.7749999999999999,0.,0.0016000000000000001));
#262=IFCDIRECTION((0.,0.,1.));
#263=IFCDIRECTION((1.,0.,0.));
#264=IFCAXIS2PLACEMENT3D(#261,#262,#263);
#265=IFCDIRECTION((0.,0.,1.));
#266=IFCEXTRUDEDAREASOLID(#260,#264,#265,2.6968000000000001);
#267=IFCSHAPEREPRESENTATION(#14,'Body','SweptSolid',(#266));
#268=IFCPRODUCTDEFINITIONSHAPE($,$,(#267));
#274=IFCOWNERHISTORY(#3,#4,.READWRITE.,.MODIFIED.,1781040699,#3,#4,1781040699);
#275=IFCMEMBER('18UdFf$ob1WOXr3UNuDWGU',#274,'C150x50x16 1.6mm',$,$,#665,#298,$,.STUD.);
#276=IFCCARTESIANPOINT((0.,0.));
#277=IFCCARTESIANPOINT((0.,0.14999999999999999));
#278=IFCCARTESIANPOINT((0.050000000000000003,0.14999999999999999));
#279=IFCCARTESIANPOINT((0.050000000000000003,0.13500000000000001));
#280=IFCCARTESIANPOINT((0.048400000000000006,0.13500000000000001));
#281=IFCCARTESIANPOINT((0.048400000000000006,0.1484));
#282=IFCCARTESIANPOINT((0.0016000000000000001,0.1484));
#283=IFCCARTESIANPOINT((0.0016000000000000001,0.0016000000000000001));
#284=IFCCARTESIANPOINT((0.048400000000000006,0.0016000000000000001));
#285=IFCCARTESIANPOINT((0.048400000000000006,0.014999999999999999));
#286=IFCCARTESIANPOINT((0.050000000000000003,0.014999999999999999));
#287=IFCCARTESIANPOINT((0.050000000000000003,0.));
#288=IFCCARTESIANPOINT((0.,0.));
#289=IFCPOLYLINE((#276,#277,#278,#279,#280,#281,#282,#283,#284,#285,#286,#287,#288));
#290=IFCARBITRARYCLOSEDPROFILEDEF(.AREA.,$,#289);
#291=IFCCARTESIANPOINT((3.1750000000000003,0.,0.0016000000000000001));
#292=IFCDIRECTION((0.,0.,1.));
#293=IFCDIRECTION((1.,0.,0.));
#294=IFCAXIS2PLACEMENT3D(#291,#292,#293);
#295=IFCDIRECTION((0.,0.,1.));
#296=IFCEXTRUDEDAREASOLID(#290,#294,#295,2.6968000000000001);
#297=IFCSHAPEREPRESENTATION(#14,'Body','SweptSolid',(#296));
#298=IFCPRODUCTDEFINITIONSHAPE($,$,(#297));
#304=IFCOWNERHISTORY(#3,#4,.READWRITE.,.MODIFIED.,1781040699,#3,#4,1781040699);
#305=IFCMEMBER('0p3Btha65648KPCLyyUUDX',#304,'C150x50x16 1.6mm',$,$,#645,#328,$,.STUD.);
#306=IFCCARTESIANPOINT((0.,0.));
#307=IFCCARTESIANPOINT((0.,0.14999999999999999));
#308=IFCCARTESIANPOINT((0.050000000000000003,0.14999999999999999));
#309=IFCCARTESIANPOINT((0.050000000000000003,0.13500000000000001));
#310=IFCCARTESIANPOINT((0.048400000000000006,0.13500000000000001));
#311=IFCCARTESIANPOINT((0.048400000000000006,0.1484));
#312=IFCCARTESIANPOINT((0.0016000000000000001,0.1484));
#313=IFCCARTESIANPOINT((0.0016000000000000001,0.0016000000000000001));
#314=IFCCARTESIANPOINT((0.048400000000000006,0.0016000000000000001));
#315=IFCCARTESIANPOINT((0.048400000000000006,0.014999999999999999));
#316=IFCCARTESIANPOINT((0.050000000000000003,0.014999999999999999));
#317=IFCCARTESIANPOINT((0.050000000000000003,0.));
#318=IFCCARTESIANPOINT((0.,0.));
#319=IFCPOLYLINE((#306,#307,#308,#309,#310,#311,#312,#313,#314,#315,#316,#317,#318));
#320=IFCARBITRARYCLOSEDPROFILEDEF(.AREA.,$,#319);
#321=IFCCARTESIANPOINT((3.5750000000000002,0.,0.0016000000000000001));
#322=IFCDIRECTION((0.,0.,1.));
#323=IFCDIRECTION((1.,0.,0.));
#324=IFCAXIS2PLACEMENT3D(#321,#322,#323);
#325=IFCDIRECTION((0.,0.,1.));
#326=IFCEXTRUDEDAREASOLID(#320,#324,#325,2.6968000000000001);
#327=IFCSHAPEREPRESENTATION(#14,'Body','SweptSolid',(#326));
#328=IFCPRODUCTDEFINITIONSHAPE($,$,(#327));
#334=IFCOWNERHISTORY(#3,#4,.READWRITE.,.MODIFIED.,1781040699,#3,#4,1781040699);
#335=IFCMEMBER('0qm3wOkVb4luCL0jnNeaj4',#334,'C150x50x16 1.6mm',$,$,#640,#358,$,.STUD.);
#336=IFCCARTESIANPOINT((0.,0.));
#337=IFCCARTESIANPOINT((0.,0.14999999999999999));
#338=IFCCARTESIANPOINT((0.050000000000000003,0.14999999999999999));
#339=IFCCARTESIANPOINT((0.050000000000000003,0.13500000000000001));
#340=IFCCARTESIANPOINT((0.048400000000000006,0.13500000000000001));
#341=IFCCARTESIANPOINT((0.048400000000000006,0.1484));
#342=IFCCARTESIANPOINT((0.0016000000000000001,0.1484));
#343=IFCCARTESIANPOINT((0.0016000000000000001,0.0016000000000000001));
#344=IFCCARTESIANPOINT((0.048400000000000006,0.0016000000000000001));
#345=IFCCARTESIANPOINT((0.048400000000000006,0.014999999999999999));
#346=IFCCARTESIANPOINT((0.050000000000000003,0.014999999999999999));
#347=IFCCARTESIANPOINT((0.050000000000000003,0.));
#348=IFCCARTESIANPOINT((0.,0.));
#349=IFCPOLYLINE((#336,#337,#338,#339,#340,#341,#342,#343,#344,#345,#346,#347,#348));
#350=IFCARBITRARYCLOSEDPROFILEDEF(.AREA.,$,#349);
#351=IFCCARTESIANPOINT((1.2250000000000001,0.,0.0016000000000000001));
#352=IFCDIRECTION((0.,0.,1.));
#353=IFCDIRECTION((1.,0.,0.));
#354=IFCAXIS2PLACEMENT3D(#351,#352,#353);
#355=IFCDIRECTION((0.,0.,1.));
#356=IFCEXTRUDEDAREASOLID(#350,#354,#355,2.0984000000000003);
#357=IFCSHAPEREPRESENTATION(#14,'Body','SweptSolid',(#356));
#358=IFCPRODUCTDEFINITIONSHAPE($,$,(#357));
#364=IFCOWNERHISTORY(#3,#4,.READWRITE.,.MODIFIED.,1781040699,#3,#4,1781040699);
#365=IFCMEMBER('0UsBKyKj19TvdSM3FUF2U$',#364,'C150x50x16 1.6mm',$,$,#620,#388,$,.STUD.);
#366=IFCCARTESIANPOINT((0.,0.));
#367=IFCCARTESIANPOINT((0.,0.14999999999999999));
#368=IFCCARTESIANPOINT((0.050000000000000003,0.14999999999999999));
#369=IFCCARTESIANPOINT((0.050000000000000003,0.13500000000000001));
#370=IFCCARTESIANPOINT((0.048400000000000006,0.13500000000000001));
#371=IFCCARTESIANPOINT((0.048400000000000006,0.1484));
#372=IFCCARTESIANPOINT((0.0016000000000000001,0.1484));
#373=IFCCARTESIANPOINT((0.0016000000000000001,0.0016000000000000001));
#374=IFCCARTESIANPOINT((0.048400000000000006,0.0016000000000000001));
#375=IFCCARTESIANPOINT((0.048400000000000006,0.014999999999999999));
#376=IFCCARTESIANPOINT((0.050000000000000003,0.014999999999999999));
#377=IFCCARTESIANPOINT((0.050000000000000003,0.));
#378=IFCCARTESIANPOINT((0.,0.));
#379=IFCPOLYLINE((#366,#367,#368,#369,#370,#371,#372,#373,#374,#375,#376,#377,#378));
#380=IFCARBITRARYCLOSEDPROFILEDEF(.AREA.,$,#379);
#381=IFCCARTESIANPOINT((2.3250000000000002,0.,0.0016000000000000001));
#382=IFCDIRECTION((0.,0.,1.));
#383=IFCDIRECTION((1.,0.,0.));
#384=IFCAXIS2PLACEMENT3D(#381,#382,#383);
#385=IFCDIRECTION((0.,0.,1.));
#386=IFCEXTRUDEDAREASOLID(#380,#384,#385,2.0984000000000003);
#387=IFCSHAPEREPRESENTATION(#14,'Body','SweptSolid',(#386));
#388=IFCPRODUCTDEFINITIONSHAPE($,$,(#387));
#394=IFCOWNERHISTORY(#3,#4,.READWRITE.,.MODIFIED.,1781040699,#3,#4,1781040699);
#395=IFCMEMBER('0gkMlcA913Lhn2cxuMDXLU',#394,'C150x50x16 1.6mm (header)',$,$,#580,#418,$,.MEMBER.);
#396=IFCCARTESIANPOINT((0.,0.));
#397=IFCCARTESIANPOINT((0.,0.14999999999999999));
#398=IFCCARTESIANPOINT((0.050000000000000003,0.14999999999999999));
#399=IFCCARTESIANPOINT((0.050000000000000003,0.13500000000000001));
#400=IFCCARTESIANPOINT((0.048400000000000006,0.13500000000000001));
#401=IFCCARTESIANPOINT((0.048400000000000006,0.1484));
#402=IFCCARTESIANPOINT((0.0016000000000000001,0.1484));
#403=IFCCARTESIANPOINT((0.0016000000000000001,0.0016000000000000001));
#404=IFCCARTESIANPOINT((0.048400000000000006,0.0016000000000000001));
#405=IFCCARTESIANPOINT((0.048400000000000006,0.014999999999999999));
#406=IFCCARTESIANPOINT((0.050000000000000003,0.014999999999999999));
#407=IFCCARTESIANPOINT((0.050000000000000003,0.));
#408=IFCCARTESIANPOINT((0.,0.));
#409=IFCPOLYLINE((#396,#397,#398,#399,#400,#401,#402,#403,#404,#405,#406,#407,#408));
#410=IFCARBITRARYCLOSEDPROFILEDEF(.AREA.,$,#409);
#411=IFCCARTESIANPOINT((1.2,0.14999999999999999,2.1000000000000001));
#412=IFCDIRECTION((1.,0.,0.));
#413=IFCDIRECTION((0.,0.,1.));
#414=IFCAXIS2PLACEMENT3D(#411,#412,#413);
#415=IFCDIRECTION((0.,0.,1.));
#416=IFCEXTRUDEDAREASOLID(#410,#414,#415,1.2);
#417=IFCSHAPEREPRESENTATION(#14,'Body','SweptSolid',(#416));
#418=IFCPRODUCTDEFINITIONSHAPE($,$,(#417));
#424=IFCOWNERHISTORY(#3,#4,.READWRITE.,.MODIFIED.,1781040699,#3,#4,1781040699);
#425=IFCMEMBER('1R7YJwbfz0mf8g6aiFUiI6',#424,'C150x50x16 1.6mm (sill)',$,$,#630,#448,$,.MEMBER.);
#426=IFCCARTESIANPOINT((0.,0.));
#427=IFCCARTESIANPOINT((0.,0.14999999999999999));
#428=IFCCARTESIANPOINT((0.050000000000000003,0.14999999999999999));
#429=IFCCARTESIANPOINT((0.050000000000000003,0.13500000000000001));
#430=IFCCARTESIANPOINT((0.048400000000000006,0.13500000000000001));
#431=IFCCARTESIANPOINT((0.048400000000000006,0.1484));
#432=IFCCARTESIANPOINT((0.0016000000000000001,0.1484));
#433=IFCCARTESIANPOINT((0.0016000000000000001,0.0016000000000000001));
#434=IFCCARTESIANPOINT((0.048400000000000006,0.0016000000000000001));
#435=IFCCARTESIANPOINT((0.048400000000000006,0.014999999999999999));
#436=IFCCARTESIANPOINT((0.050000000000000003,0.014999999999999999));
#437=IFCCARTESIANPOINT((0.050000000000000003,0.));
#438=IFCCARTESIANPOINT((0.,0.));
#439=IFCPOLYLINE((#426,#427,#428,#429,#430,#431,#432,#433,#434,#435,#436,#437,#438));
#440=IFCARBITRARYCLOSEDPROFILEDEF(.AREA.,$,#439);
#441=IFCCARTESIANPOINT((1.2,0.14999999999999999,0.90000000000000002));
#442=IFCDIRECTION((1.,0.,0.));
#443=IFCDIRECTION((0.,0.,1.));
#444=IFCAXIS2PLACEMENT3D(#441,#442,#443);
#445=IFCDIRECTION((0.,0.,1.));
#446=IFCEXTRUDEDAREASOLID(#440,#444,#445,1.2);
#447=IFCSHAPEREPRESENTATION(#14,'Body','SweptSolid',(#446));
#448=IFCPRODUCTDEFINITIONSHAPE($,$,(#447));
#454=IFCOWNERHISTORY(#3,#4,.READWRITE.,.MODIFIED.,1781040699,#3,#4,1781040699);
#455=IFCMEMBER('2wgcjfwzj6e8i0goIaQwEp',#454,'C150x50x16 1.6mm',$,$,#585,#478,$,.STUD.);
#456=IFCCARTESIANPOINT((0.,0.));
#457=IFCCARTESIANPOINT((0.,0.14999999999999999));
#458=IFCCARTESIANPOINT((0.050000000000000003,0.14999999999999999));
#459=IFCCARTESIANPOINT((0.050000000000000003,0.13500000000000001));
#460=IFCCARTESIANPOINT((0.048400000000000006,0.13500000000000001));
#461=IFCCARTESIANPOINT((0.048400000000000006,0.1484));
#462=IFCCARTESIANPOINT((0.0016000000000000001,0.1484));
#463=IFCCARTESIANPOINT((0.0016000000000000001,0.0016000000000000001));
#464=IFCCARTESIANPOINT((0.048400000000000006,0.0016000000000000001));
#465=IFCCARTESIANPOINT((0.048400000000000006,0.014999999999999999));
#466=IFCCARTESIANPOINT((0.050000000000000003,0.014999999999999999));
#467=IFCCARTESIANPOINT((0.050000000000000003,0.));
#468=IFCCARTESIANPOINT((0.,0.));
#469=IFCPOLYLINE((#456,#457,#458,#459,#460,#461,#462,#463,#464,#465,#466,#467,#468));
#470=IFCARBITRARYCLOSEDPROFILEDEF(.AREA.,$,#469);
#471=IFCCARTESIANPOINT((1.5750000000000002,0.,0.0016000000000000001));
#472=IFCDIRECTION((0.,0.,1.));
#473=IFCDIRECTION((1.,0.,0.));
#474=IFCAXIS2PLACEMENT3D(#471,#472,#473);
#475=IFCDIRECTION((0.,0.,1.));
#476=IFCEXTRUDEDAREASOLID(#470,#474,#475,0.89839999999999998);
#477=IFCSHAPEREPRESENTATION(#14,'Body','SweptSolid',(#476));
#478=IFCPRODUCTDEFINITIONSHAPE($,$,(#477));
#484=IFCOWNERHISTORY(#3,#4,.READWRITE.,.MODIFIED.,1781040699,#3,#4,1781040699);
#485=IFCMEMBER('3eWhaYCzX9hgBMWRAUkUaw',#484,'C150x50x16 1.6mm',$,$,#650,#508,$,.STUD.);
#486=IFCCARTESIANPOINT((0.,0.));
#487=IFCCARTESIANPOINT((0.,0.14999999999999999));
#488=IFCCARTESIANPOINT((0.050000000000000003,0.14999999999999999));
#489=IFCCARTESIANPOINT((0.050000000000000003,0.13500000000000001));
#490=IFCCARTESIANPOINT((0.048400000000000006,0.13500000000000001));
#491=IFCCARTESIANPOINT((0.048400000000000006,0.1484));
#492=IFCCARTESIANPOINT((0.0016000000000000001,0.1484));
#493=IFCCARTESIANPOINT((0.0016000000000000001,0.0016000000000000001));
#494=IFCCARTESIANPOINT((0.048400000000000006,0.0016000000000000001));
#495=IFCCARTESIANPOINT((0.048400000000000006,0.014999999999999999));
#496=IFCCARTESIANPOINT((0.050000000000000003,0.014999999999999999));
#497=IFCCARTESIANPOINT((0.050000000000000003,0.));
#498=IFCCARTESIANPOINT((0.,0.));
#499=IFCPOLYLINE((#486,#487,#488,#489,#490,#491,#492,#493,#494,#495,#496,#497,#498));
#500=IFCARBITRARYCLOSEDPROFILEDEF(.AREA.,$,#499);
#501=IFCCARTESIANPOINT((1.5750000000000002,0.,2.1499999999999999));
#502=IFCDIRECTION((0.,0.,1.));
#503=IFCDIRECTION((1.,0.,0.));
#504=IFCAXIS2PLACEMENT3D(#501,#502,#503);
#505=IFCDIRECTION((0.,0.,1.));
#506=IFCEXTRUDEDAREASOLID(#500,#504,#505,0.54840000000000022);
#507=IFCSHAPEREPRESENTATION(#14,'Body','SweptSolid',(#506));
#508=IFCPRODUCTDEFINITIONSHAPE($,$,(#507));
#514=IFCOWNERHISTORY(#3,#4,.READWRITE.,.MODIFIED.,1781040699,#3,#4,1781040699);
#515=IFCMEMBER('3CgDDLgrT3oO9AiPWaeE3k',#514,'C150x50x16 1.6mm',$,$,#635,#538,$,.STUD.);
#516=IFCCARTESIANPOINT((0.,0.));
#517=IFCCARTESIANPOINT((0.,0.14999999999999999));
#518=IFCCARTESIANPOINT((0.050000000000000003,0.14999999999999999));
#519=IFCCARTESIANPOINT((0.050000000000000003,0.13500000000000001));
#520=IFCCARTESIANPOINT((0.048400000000000006,0.13500000000000001));
#521=IFCCARTESIANPOINT((0.048400000000000006,0.1484));
#522=IFCCARTESIANPOINT((0.0016000000000000001,0.1484));
#523=IFCCARTESIANPOINT((0.0016000000000000001,0.0016000000000000001));
#524=IFCCARTESIANPOINT((0.048400000000000006,0.0016000000000000001));
#525=IFCCARTESIANPOINT((0.048400000000000006,0.014999999999999999));
#526=IFCCARTESIANPOINT((0.050000000000000003,0.014999999999999999));
#527=IFCCARTESIANPOINT((0.050000000000000003,0.));
#528=IFCCARTESIANPOINT((0.,0.));
#529=IFCPOLYLINE((#516,#517,#518,#519,#520,#521,#522,#523,#524,#525,#526,#527,#528));
#530=IFCARBITRARYCLOSEDPROFILEDEF(.AREA.,$,#529);
#531=IFCCARTESIANPOINT((1.9750000000000001,0.,0.0016000000000000001));
#532=IFCDIRECTION((0.,0.,1.));
#533=IFCDIRECTION((1.,0.,0.));
#534=IFCAXIS2PLACEMENT3D(#531,#532,#533);
#535=IFCDIRECTION((0.,0.,1.));
#536=IFCEXTRUDEDAREASOLID(#530,#534,#535,0.89839999999999998);
#537=IFCSHAPEREPRESENTATION(#14,'Body','SweptSolid',(#536));
#538=IFCPRODUCTDEFINITIONSHAPE($,$,(#537));
#544=IFCOWNERHISTORY(#3,#4,.READWRITE.,.MODIFIED.,1781040699,#3,#4,1781040699);
#545=IFCMEMBER('27jm8Oww57KhMqrtRqrxd5',#544,'C150x50x16 1.6mm',$,$,#590,#568,$,.STUD.);
#546=IFCCARTESIANPOINT((0.,0.));
#547=IFCCARTESIANPOINT((0.,0.14999999999999999));
#548=IFCCARTESIANPOINT((0.050000000000000003,0.14999999999999999));
#549=IFCCARTESIANPOINT((0.050000000000000003,0.13500000000000001));
#550=IFCCARTESIANPOINT((0.048400000000000006,0.13500000000000001));
#551=IFCCARTESIANPOINT((0.048400000000000006,0.1484));
#552=IFCCARTESIANPOINT((0.0016000000000000001,0.1484));
#553=IFCCARTESIANPOINT((0.0016000000000000001,0.0016000000000000001));
#554=IFCCARTESIANPOINT((0.048400000000000006,0.0016000000000000001));
#555=IFCCARTESIANPOINT((0.048400000000000006,0.014999999999999999));
#556=IFCCARTESIANPOINT((0.050000000000000003,0.014999999999999999));
#557=IFCCARTESIANPOINT((0.050000000000000003,0.));
#558=IFCCARTESIANPOINT((0.,0.));
#559=IFCPOLYLINE((#546,#547,#548,#549,#550,#551,#552,#553,#554,#555,#556,#557,#558));
#560=IFCARBITRARYCLOSEDPROFILEDEF(.AREA.,$,#559);
#561=IFCCARTESIANPOINT((1.9750000000000001,0.,2.1499999999999999));
#562=IFCDIRECTION((0.,0.,1.));
#563=IFCDIRECTION((1.,0.,0.));
#564=IFCAXIS2PLACEMENT3D(#561,#562,#563);
#565=IFCDIRECTION((0.,0.,1.));
#566=IFCEXTRUDEDAREASOLID(#560,#564,#565,0.54840000000000022);
#567=IFCSHAPEREPRESENTATION(#14,'Body','SweptSolid',(#566));
#568=IFCPRODUCTDEFINITIONSHAPE($,$,(#567));
#574=IFCOWNERHISTORY(#3,#4,.READWRITE.,.ADDED.,1781040699,#3,#4,1781040699);
#575=IFCRELAGGREGATES('03fmUl4NL1R8iFVsAgV9pR',#574,$,$,#29,(#395,#455,#545,#95,#155,#185,#69,#245,#365,#43,#425,#515,#335,#305,#485,#125,#215,#275));
#576=IFCCARTESIANPOINT((0.,0.,0.));
#577=IFCDIRECTION((0.,0.,1.));
#578=IFCDIRECTION((1.,0.,0.));
#579=IFCAXIS2PLACEMENT3D(#576,#577,#578);
#580=IFCLOCALPLACEMENT(#41,#579);
#581=IFCCARTESIANPOINT((0.,0.,0.));
#582=IFCDIRECTION((0.,0.,1.));
#583=IFCDIRECTION((1.,0.,0.));
#584=IFCAXIS2PLACEMENT3D(#581,#582,#583);
#585=IFCLOCALPLACEMENT(#41,#584);
#586=IFCCARTESIANPOINT((0.,0.,0.));
#587=IFCDIRECTION((0.,0.,1.));
#588=IFCDIRECTION((1.,0.,0.));
#589=IFCAXIS2PLACEMENT3D(#586,#587,#588);
#590=IFCLOCALPLACEMENT(#41,#589);
#591=IFCCARTESIANPOINT((0.,0.,0.));
#592=IFCDIRECTION((0.,0.,1.));
#593=IFCDIRECTION((1.,0.,0.));
#594=IFCAXIS2PLACEMENT3D(#591,#592,#593);
#595=IFCLOCALPLACEMENT(#41,#594);
#596=IFCCARTESIANPOINT((0.,0.,0.));
#597=IFCDIRECTION((0.,0.,1.));
#598=IFCDIRECTION((1.,0.,0.));
#599=IFCAXIS2PLACEMENT3D(#596,#597,#598);
#600=IFCLOCALPLACEMENT(#41,#599);
#601=IFCCARTESIANPOINT((0.,0.,0.));
#602=IFCDIRECTION((0.,0.,1.));
#603=IFCDIRECTION((1.,0.,0.));
#604=IFCAXIS2PLACEMENT3D(#601,#602,#603);
#605=IFCLOCALPLACEMENT(#41,#604);
#606=IFCCARTESIANPOINT((0.,0.,0.));
#607=IFCDIRECTION((0.,0.,1.));
#608=IFCDIRECTION((1.,0.,0.));
#609=IFCAXIS2PLACEMENT3D(#606,#607,#608);
#610=IFCLOCALPLACEMENT(#41,#609);
#611=IFCCARTESIANPOINT((0.,0.,0.));
#612=IFCDIRECTION((0.,0.,1.));
#613=IFCDIRECTION((1.,0.,0.));
#614=IFCAXIS2PLACEMENT3D(#611,#612,#613);
#615=IFCLOCALPLACEMENT(#41,#614);
#616=IFCCARTESIANPOINT((0.,0.,0.));
#617=IFCDIRECTION((0.,0.,1.));
#618=IFCDIRECTION((1.,0.,0.));
#619=IFCAXIS2PLACEMENT3D(#616,#617,#618);
#620=IFCLOCALPLACEMENT(#41,#619);
#621=IFCCARTESIANPOINT((0.,0.,0.));
#622=IFCDIRECTION((0.,0.,1.));
#623=IFCDIRECTION((1.,0.,0.));
#624=IFCAXIS2PLACEMENT3D(#621,#622,#623);
#625=IFCLOCALPLACEMENT(#41,#624);
#626=IFCCARTESIANPOINT((0.,0.,0.));
#627=IFCDIRECTION((0.,0.,1.));
#628=IFCDIRECTION((1.,0.,0.));
#629=IFCAXIS2PLACEMENT3D(#626,#627,#628);
#630=IFCLOCALPLACEMENT(#41,#629);
#631=IFCCARTESIANPOINT((0.,0.,0.));
#632=IFCDIRECTION((0.,0.,1.));
#633=IFCDIRECTION((1.,0.,0.));
#634=IFCAXIS2PLACEMENT3D(#631,#632,#633);
#635=IFCLOCALPLACEMENT(#41,#634);
#636=IFCCARTESIANPOINT((0.,0.,0.));
#637=IFCDIRECTION((0.,0.,1.));
#638=IFCDIRECTION((1.,0.,0.));
#639=IFCAXIS2PLACEMENT3D(#636,#637,#638);
#640=IFCLOCALPLACEMENT(#41,#639);
#641=IFCCARTESIANPOINT((0.,0.,0.));
#642=IFCDIRECTION((0.,0.,1.));
#643=IFCDIRECTION((1.,0.,0.));
#644=IFCAXIS2PLACEMENT3D(#641,#642,#643);
#645=IFCLOCALPLACEMENT(#41,#644);
#646=IFCCARTESIANPOINT((0.,0.,0.));
#647=IFCDIRECTION((0.,0.,1.));
#648=IFCDIRECTION((1.,0.,0.));
#649=IFCAXIS2PLACEMENT3D(#646,#647,#648);
#650=IFCLOCALPLACEMENT(#41,#649);
#651=IFCCARTESIANPOINT((0.,0.,0.));
#652=IFCDIRECTION((0.,0.,1.));
#653=IFCDIRECTION((1.,0.,0.));
#654=IFCAXIS2PLACEMENT3D(#651,#652,#653);
#655=IFCLOCALPLACEMENT(#41,#654);
#656=IFCCARTESIANPOINT((0.,0.,0.));
#657=IFCDIRECTION((0.,0.,1.));
#658=IFCDIRECTION((1.,0.,0.));
#659=IFCAXIS2PLACEMENT3D(#656,#657,#658);
#660=IFCLOCALPLACEMENT(#41,#659);
#661=IFCCARTESIANPOINT((0.,0.,0.));
#662=IFCDIRECTION((0.,0.,1.));
#663=IFCDIRECTION((1.,0.,0.));
#664=IFCAXIS2PLACEMENT3D(#661,#662,#663);
#665=IFCLOCALPLACEMENT(#41,#664);
#666=IFCOWNERHISTORY(#3,#4,.READWRITE.,.ADDED.,1781040699,#3,#4,1781040699);
#667=IFCRELASSOCIATESMATERIAL('3RrhLGuDr3vxtaYEcsBlKi',#666,$,$,(#395,#455,#545,#95,#155,#185,#69,#245,#365,#43,#425,#515,#335,#305,#485,#125,#215,#275),#27);
#668=IFCOWNERHISTORY(#3,#4,.READWRITE.,.ADDED.,1781040699,#3,#4,1781040699);
#669=IFCPROPERTYSET('2jJyEc0ov1Axi58NFV_led',#668,'Pset_LGS_Panel',$,(#672,#673,#674,#675,#676,#677,#678,#679,#680,#681));
#670=IFCOWNERHISTORY(#3,#4,.READWRITE.,.ADDED.,1781040699,#3,#4,1781040699);
#671=IFCRELDEFINESBYPROPERTIES('2blYOBpcj00PAfNEbOIMGv',#670,$,$,(#29),#669);
#672=IFCPROPERTYSINGLEVALUE('StudSection',$,IFCLABEL('C150x50x16 1.6mm'),$);
#673=IFCPROPERTYSINGLEVALUE('TrackSection',$,IFCLABEL('U152x40 1.6mm'),$);
#674=IFCPROPERTYSINGLEVALUE('StudSpacing_mm',$,IFCINTEGER(400),$);
#675=IFCPROPERTYSINGLEVALUE('LoadBearing',$,IFCBOOLEAN(.T.),$);
#676=IFCPROPERTYSINGLEVALUE('IsExternal',$,IFCBOOLEAN(.T.),$);
#677=IFCPROPERTYSINGLEVALUE('FireRating',$,IFCLABEL('REI 60'),$);
#678=IFCPROPERTYSINGLEVALUE('MemberCount',$,IFCINTEGER(18),$);
#679=IFCPROPERTYSINGLEVALUE('PanelLength_m',$,IFCREAL(3.6000000000000001),$);
#680=IFCPROPERTYSINGLEVALUE('PanelHeight_m',$,IFCREAL(2.7000000000000002),$);
#681=IFCPROPERTYSINGLEVALUE('PanelThickness_m',$,IFCREAL(0.14999999999999999),$);
ENDSEC;
END-ISO-10303-21;
