ISO-10303-21;
HEADER;
FILE_DESCRIPTION(('ViewDefinition[DesignTransferView]'),'2;1');
FILE_NAME('/dev/null','2026-06-10T21:18:51+00:00',(''),(''),'IfcOpenShell 0.8.5','IfcOpenShell 0.8.5','Nobody');
FILE_SCHEMA(('IFC4'));
ENDSEC;
DATA;
#1=IFCPERSON($,'Martinez Rodriguez','Pablo',$,$,$,$,$);
#2=IFCORGANIZATION($,'Northumbria University',$,$,$);
#3=IFCPERSONANDORGANIZATION(#1,#2,$);
#4=IFCAPPLICATION(#2,'0.8','LGS Panel Generator','LGSGEN');
#5=IFCOWNERHISTORY(#3,#4,.READWRITE.,.ADDED.,1781126331,#3,#4,1781126331);
#6=IFCPROJECT('0PwkliEa53iPzw4HFfyt0e',#5,'LGS Panel Library',$,$,$,$,(#13),#8);
#7=IFCSIUNIT(*,.LENGTHUNIT.,$,.METRE.);
#8=IFCUNITASSIGNMENT((#7));
#9=IFCCARTESIANPOINT((0.,0.,0.));
#10=IFCDIRECTION((0.,0.,1.));
#11=IFCDIRECTION((1.,0.,0.));
#12=IFCAXIS2PLACEMENT3D(#9,#10,#11);
#13=IFCGEOMETRICREPRESENTATIONCONTEXT($,'Model',3,1.0000000000000001E-05,#12,$);
#14=IFCGEOMETRICREPRESENTATIONSUBCONTEXT('Body','Model',*,*,*,*,#13,$,.MODEL_VIEW.,$);
#15=IFCOWNERHISTORY(#3,#4,.READWRITE.,.ADDED.,1781126331,#3,#4,1781126331);
#16=IFCSITE('13SMlt20v9SPqwXcOMji2S',#15,'Site',$,$,$,$,$,$,$,$,$,$,$);
#17=IFCOWNERHISTORY(#3,#4,.READWRITE.,.ADDED.,1781126331,#3,#4,1781126331);
#18=IFCBUILDING('0PZ8KEjlLCwfKzY1K7E_8_',#17,'Manufacturing Reference',$,$,$,$,$,$,$,$,$);
#19=IFCOWNERHISTORY(#3,#4,.READWRITE.,.ADDED.,1781126331,#3,#4,1781126331);
#20=IFCBUILDINGSTOREY('2hCZnRwHjDiQmEY63i_04q',#19,'Level',$,$,$,$,$,$,$);
#21=IFCOWNERHISTORY(#3,#4,.READWRITE.,.ADDED.,1781126331,#3,#4,1781126331);
#22=IFCRELAGGREGATES('1OTUOLeILBVRmn2MHA84Ax',#21,$,$,#6,(#16));
#23=IFCOWNERHISTORY(#3,#4,.READWRITE.,.ADDED.,1781126331,#3,#4,1781126331);
#24=IFCRELAGGREGATES('0x1J9kr7X7OOnLYJuYijpc',#23,$,$,#16,(#18));
#25=IFCOWNERHISTORY(#3,#4,.READWRITE.,.ADDED.,1781126331,#3,#4,1781126331);
#26=IFCRELAGGREGATES('2GB_e5qAXBOeOrOlSbcMEb',#25,$,$,#18,(#20));
#27=IFCMATERIAL('Light Gauge Steel S350GD+Z',$,$);
#28=IFCOWNERHISTORY(#3,#4,.READWRITE.,.MODIFIED.,1781126331,#3,#4,1781126331);
#29=IFCELEMENTASSEMBLY('1s6Z2XYS911ghCtuYsqIO$',#28,'Flat Roof Panel with Rooflight Opening',$,$,#41,$,$,$,$);
#35=IFCOWNERHISTORY(#3,#4,.READWRITE.,.ADDED.,1781126331,#3,#4,1781126331);
#36=IFCRELCONTAINEDINSPATIALSTRUCTURE('09A4qTj1vFrQ7nHr5Oaz4N',#35,$,$,(#29),#20);
#37=IFCCARTESIANPOINT((0.,0.,0.));
#38=IFCDIRECTION((0.,0.,1.));
#39=IFCDIRECTION((1.,0.,0.));
#40=IFCAXIS2PLACEMENT3D(#37,#38,#39);
#41=IFCLOCALPLACEMENT($,#40);
#42=IFCOWNERHISTORY(#3,#4,.READWRITE.,.MODIFIED.,1781126331,#3,#4,1781126331);
#43=IFCMEMBER('3WHZrmGgrF8OExkil$V5hR',#42,'U204x65 1.6mm (rim)',$,$,#585,#62,$,.PLATE.);
#44=IFCCARTESIANPOINT((0.,0.));
#45=IFCCARTESIANPOINT((0.,0.20000000000000001));
#46=IFCCARTESIANPOINT((0.065000000000000002,0.20000000000000001));
#47=IFCCARTESIANPOINT((0.065000000000000002,0.19840000000000002));
#48=IFCCARTESIANPOINT((0.0016000000000000001,0.19840000000000002));
#49=IFCCARTESIANPOINT((0.0016000000000000001,0.0016000000000000001));
#50=IFCCARTESIANPOINT((0.065000000000000002,0.0016000000000000001));
#51=IFCCARTESIANPOINT((0.065000000000000002,0.));
#52=IFCCARTESIANPOINT((0.,0.));
#53=IFCPOLYLINE((#44,#45,#46,#47,#48,#49,#50,#51,#52));
#54=IFCARBITRARYCLOSEDPROFILEDEF(.AREA.,$,#53);
#55=IFCCARTESIANPOINT((0.,0.,0.20000000000000001));
#56=IFCDIRECTION((0.,1.,0.));
#57=IFCDIRECTION((1.,0.,0.));
#58=IFCAXIS2PLACEMENT3D(#55,#56,#57);
#59=IFCDIRECTION((0.,0.,1.));
#60=IFCEXTRUDEDAREASOLID(#54,#58,#59,3.6000000000000001);
#61=IFCSHAPEREPRESENTATION(#14,'Body','SweptSolid',(#60));
#62=IFCPRODUCTDEFINITIONSHAPE($,$,(#61));
#68=IFCOWNERHISTORY(#3,#4,.READWRITE.,.MODIFIED.,1781126331,#3,#4,1781126331);
#69=IFCMEMBER('12TirTjULFAwjhPpM9RyKu',#68,'U204x65 1.6mm (rim)',$,$,#570,#88,$,.PLATE.);
#70=IFCCARTESIANPOINT((0.,0.));
#71=IFCCARTESIANPOINT((0.,0.20000000000000001));
#72=IFCCARTESIANPOINT((0.065000000000000002,0.20000000000000001));
#73=IFCCARTESIANPOINT((0.065000000000000002,0.19840000000000002));
#74=IFCCARTESIANPOINT((0.0016000000000000001,0.19840000000000002));
#75=IFCCARTESIANPOINT((0.0016000000000000001,0.0016000000000000001));
#76=IFCCARTESIANPOINT((0.065000000000000002,0.0016000000000000001));
#77=IFCCARTESIANPOINT((0.065000000000000002,0.));
#78=IFCCARTESIANPOINT((0.,0.));
#79=IFCPOLYLINE((#70,#71,#72,#73,#74,#75,#76,#77,#78));
#80=IFCARBITRARYCLOSEDPROFILEDEF(.AREA.,$,#79);
#81=IFCCARTESIANPOINT((4.,0.,0.));
#82=IFCDIRECTION((0.,1.,0.));
#83=IFCDIRECTION((-1.,0.,0.));
#84=IFCAXIS2PLACEMENT3D(#81,#82,#83);
#85=IFCDIRECTION((0.,0.,1.));
#86=IFCEXTRUDEDAREASOLID(#80,#84,#85,3.6000000000000001);
#87=IFCSHAPEREPRESENTATION(#14,'Body','SweptSolid',(#86));
#88=IFCPRODUCTDEFINITIONSHAPE($,$,(#87));
#94=IFCOWNERHISTORY(#3,#4,.READWRITE.,.MODIFIED.,1781126331,#3,#4,1781126331);
#95=IFCBEAM('3$bgz4s6n7CRkhH6jGEHcr',#94,'C200x65x18 1.6mm (joist)',$,$,#555,#118,$,.JOIST.);
#96=IFCCARTESIANPOINT((0.,0.));
#97=IFCCARTESIANPOINT((0.,0.20000000000000001));
#98=IFCCARTESIANPOINT((0.065000000000000002,0.20000000000000001));
#99=IFCCARTESIANPOINT((0.065000000000000002,0.18200000000000002));
#100=IFCCARTESIANPOINT((0.063399999999999998,0.18200000000000002));
#101=IFCCARTESIANPOINT((0.063399999999999998,0.19840000000000002));
#102=IFCCARTESIANPOINT((0.0016000000000000001,0.19840000000000002));
#103=IFCCARTESIANPOINT((0.0016000000000000001,0.0016000000000000001));
#104=IFCCARTESIANPOINT((0.063399999999999998,0.0016000000000000001));
#105=IFCCARTESIANPOINT((0.063399999999999998,0.017999999999999999));
#106=IFCCARTESIANPOINT((0.065000000000000002,0.017999999999999999));
#107=IFCCARTESIANPOINT((0.065000000000000002,0.));
#108=IFCCARTESIANPOINT((0.,0.));
#109=IFCPOLYLINE((#96,#97,#98,#99,#100,#101,#102,#103,#104,#105,#106,#107,#108));
#110=IFCARBITRARYCLOSEDPROFILEDEF(.AREA.,$,#109);
#111=IFCCARTESIANPOINT((0.,-0.032500000000000001,0.));
#112=IFCDIRECTION((1.,0.,0.));
#113=IFCDIRECTION((0.,1.,0.));
#114=IFCAXIS2PLACEMENT3D(#111,#112,#113);
#115=IFCDIRECTION((0.,0.,1.));
#116=IFCEXTRUDEDAREASOLID(#110,#114,#115,4.);
#117=IFCSHAPEREPRESENTATION(#14,'Body','SweptSolid',(#116));
#118=IFCPRODUCTDEFINITIONSHAPE($,$,(#117));
#124=IFCOWNERHISTORY(#3,#4,.READWRITE.,.MODIFIED.,1781126331,#3,#4,1781126331);
#125=IFCBEAM('3X721vpff5xQMfc66ZgFc9',#124,'C200x65x18 1.6mm (joist)',$,$,#530,#148,$,.JOIST.);
#126=IFCCARTESIANPOINT((0.,0.));
#127=IFCCARTESIANPOINT((0.,0.20000000000000001));
#128=IFCCARTESIANPOINT((0.065000000000000002,0.20000000000000001));
#129=IFCCARTESIANPOINT((0.065000000000000002,0.18200000000000002));
#130=IFCCARTESIANPOINT((0.063399999999999998,0.18200000000000002));
#131=IFCCARTESIANPOINT((0.063399999999999998,0.19840000000000002));
#132=IFCCARTESIANPOINT((0.0016000000000000001,0.19840000000000002));
#133=IFCCARTESIANPOINT((0.0016000000000000001,0.0016000000000000001));
#134=IFCCARTESIANPOINT((0.063399999999999998,0.0016000000000000001));
#135=IFCCARTESIANPOINT((0.063399999999999998,0.017999999999999999));
#136=IFCCARTESIANPOINT((0.065000000000000002,0.017999999999999999));
#137=IFCCARTESIANPOINT((0.065000000000000002,0.));
#138=IFCCARTESIANPOINT((0.,0.));
#139=IFCPOLYLINE((#126,#127,#128,#129,#130,#131,#132,#133,#134,#135,#136,#137,#138));
#140=IFCARBITRARYCLOSEDPROFILEDEF(.AREA.,$,#139);
#141=IFCCARTESIANPOINT((0.,0.5675,0.));
#142=IFCDIRECTION((1.,0.,0.));
#143=IFCDIRECTION((0.,1.,0.));
#144=IFCAXIS2PLACEMENT3D(#141,#142,#143);
#145=IFCDIRECTION((0.,0.,1.));
#146=IFCEXTRUDEDAREASOLID(#140,#144,#145,4.);
#147=IFCSHAPEREPRESENTATION(#14,'Body','SweptSolid',(#146));
#148=IFCPRODUCTDEFINITIONSHAPE($,$,(#147));
#154=IFCOWNERHISTORY(#3,#4,.READWRITE.,.MODIFIED.,1781126331,#3,#4,1781126331);
#155=IFCBEAM('333c9XMyzFtvGOmh_fS4V6',#154,'C200x65x18 1.6mm (tail)',$,$,#560,#178,$,.JOIST.);
#156=IFCCARTESIANPOINT((0.,0.));
#157=IFCCARTESIANPOINT((0.,0.20000000000000001));
#158=IFCCARTESIANPOINT((0.065000000000000002,0.20000000000000001));
#159=IFCCARTESIANPOINT((0.065000000000000002,0.18200000000000002));
#160=IFCCARTESIANPOINT((0.063399999999999998,0.18200000000000002));
#161=IFCCARTESIANPOINT((0.063399999999999998,0.19840000000000002));
#162=IFCCARTESIANPOINT((0.0016000000000000001,0.19840000000000002));
#163=IFCCARTESIANPOINT((0.0016000000000000001,0.0016000000000000001));
#164=IFCCARTESIANPOINT((0.063399999999999998,0.0016000000000000001));
#165=IFCCARTESIANPOINT((0.063399999999999998,0.017999999999999999));
#166=IFCCARTESIANPOINT((0.065000000000000002,0.017999999999999999));
#167=IFCCARTESIANPOINT((0.065000000000000002,0.));
#168=IFCCARTESIANPOINT((0.,0.));
#169=IFCPOLYLINE((#156,#157,#158,#159,#160,#161,#162,#163,#164,#165,#166,#167,#168));
#170=IFCARBITRARYCLOSEDPROFILEDEF(.AREA.,$,#169);
#171=IFCCARTESIANPOINT((0.,1.1675,0.));
#172=IFCDIRECTION((1.,0.,0.));
#173=IFCDIRECTION((0.,1.,0.));
#174=IFCAXIS2PLACEMENT3D(#171,#172,#173);
#175=IFCDIRECTION((0.,0.,1.));
#176=IFCEXTRUDEDAREASOLID(#170,#174,#175,1.2);
#177=IFCSHAPEREPRESENTATION(#14,'Body','SweptSolid',(#176));
#178=IFCPRODUCTDEFINITIONSHAPE($,$,(#177));
#184=IFCOWNERHISTORY(#3,#4,.READWRITE.,.MODIFIED.,1781126331,#3,#4,1781126331);
#185=IFCBEAM('0G_dqRo_TB2BWluXutzFS9',#184,'C200x65x18 1.6mm (tail)',$,$,#565,#208,$,.JOIST.);
#186=IFCCARTESIANPOINT((0.,0.));
#187=IFCCARTESIANPOINT((0.,0.20000000000000001));
#188=IFCCARTESIANPOINT((0.065000000000000002,0.20000000000000001));
#189=IFCCARTESIANPOINT((0.065000000000000002,0.18200000000000002));
#190=IFCCARTESIANPOINT((0.063399999999999998,0.18200000000000002));
#191=IFCCARTESIANPOINT((0.063399999999999998,0.19840000000000002));
#192=IFCCARTESIANPOINT((0.0016000000000000001,0.19840000000000002));
#193=IFCCARTESIANPOINT((0.0016000000000000001,0.0016000000000000001));
#194=IFCCARTESIANPOINT((0.063399999999999998,0.0016000000000000001));
#195=IFCCARTESIANPOINT((0.063399999999999998,0.017999999999999999));
#196=IFCCARTESIANPOINT((0.065000000000000002,0.017999999999999999));
#197=IFCCARTESIANPOINT((0.065000000000000002,0.));
#198=IFCCARTESIANPOINT((0.,0.));
#199=IFCPOLYLINE((#186,#187,#188,#189,#190,#191,#192,#193,#194,#195,#196,#197,#198));
#200=IFCARBITRARYCLOSEDPROFILEDEF(.AREA.,$,#199);
#201=IFCCARTESIANPOINT((2.3999999999999999,1.1675,0.));
#202=IFCDIRECTION((1.,0.,0.));
#203=IFCDIRECTION((0.,1.,0.));
#204=IFCAXIS2PLACEMENT3D(#201,#202,#203);
#205=IFCDIRECTION((0.,0.,1.));
#206=IFCEXTRUDEDAREASOLID(#200,#204,#205,1.6000000000000001);
#207=IFCSHAPEREPRESENTATION(#14,'Body','SweptSolid',(#206));
#208=IFCPRODUCTDEFINITIONSHAPE($,$,(#207));
#214=IFCOWNERHISTORY(#3,#4,.READWRITE.,.MODIFIED.,1781126331,#3,#4,1781126331);
#215=IFCBEAM('2ujjJSr9L7xOPdbQ8i8dwq',#214,'C200x65x18 1.6mm (tail)',$,$,#535,#238,$,.JOIST.);
#216=IFCCARTESIANPOINT((0.,0.));
#217=IFCCARTESIANPOINT((0.,0.20000000000000001));
#218=IFCCARTESIANPOINT((0.065000000000000002,0.20000000000000001));
#219=IFCCARTESIANPOINT((0.065000000000000002,0.18200000000000002));
#220=IFCCARTESIANPOINT((0.063399999999999998,0.18200000000000002));
#221=IFCCARTESIANPOINT((0.063399999999999998,0.19840000000000002));
#222=IFCCARTESIANPOINT((0.0016000000000000001,0.19840000000000002));
#223=IFCCARTESIANPOINT((0.0016000000000000001,0.0016000000000000001));
#224=IFCCARTESIANPOINT((0.063399999999999998,0.0016000000000000001));
#225=IFCCARTESIANPOINT((0.063399999999999998,0.017999999999999999));
#226=IFCCARTESIANPOINT((0.065000000000000002,0.017999999999999999));
#227=IFCCARTESIANPOINT((0.065000000000000002,0.));
#228=IFCCARTESIANPOINT((0.,0.));
#229=IFCPOLYLINE((#216,#217,#218,#219,#220,#221,#222,#223,#224,#225,#226,#227,#228));
#230=IFCARBITRARYCLOSEDPROFILEDEF(.AREA.,$,#229);
#231=IFCCARTESIANPOINT((0.,1.7675000000000001,0.));
#232=IFCDIRECTION((1.,0.,0.));
#233=IFCDIRECTION((0.,1.,0.));
#234=IFCAXIS2PLACEMENT3D(#231,#232,#233);
#235=IFCDIRECTION((0.,0.,1.));
#236=IFCEXTRUDEDAREASOLID(#230,#234,#235,1.2);
#237=IFCSHAPEREPRESENTATION(#14,'Body','SweptSolid',(#236));
#238=IFCPRODUCTDEFINITIONSHAPE($,$,(#237));
#244=IFCOWNERHISTORY(#3,#4,.READWRITE.,.MODIFIED.,1781126331,#3,#4,1781126331);
#245=IFCBEAM('3xte$NeEf6KBi1Ai7Tmm9Q',#244,'C200x65x18 1.6mm (tail)',$,$,#575,#268,$,.JOIST.);
#246=IFCCARTESIANPOINT((0.,0.));
#247=IFCCARTESIANPOINT((0.,0.20000000000000001));
#248=IFCCARTESIANPOINT((0.065000000000000002,0.20000000000000001));
#249=IFCCARTESIANPOINT((0.065000000000000002,0.18200000000000002));
#250=IFCCARTESIANPOINT((0.063399999999999998,0.18200000000000002));
#251=IFCCARTESIANPOINT((0.063399999999999998,0.19840000000000002));
#252=IFCCARTESIANPOINT((0.0016000000000000001,0.19840000000000002));
#253=IFCCARTESIANPOINT((0.0016000000000000001,0.0016000000000000001));
#254=IFCCARTESIANPOINT((0.063399999999999998,0.0016000000000000001));
#255=IFCCARTESIANPOINT((0.063399999999999998,0.017999999999999999));
#256=IFCCARTESIANPOINT((0.065000000000000002,0.017999999999999999));
#257=IFCCARTESIANPOINT((0.065000000000000002,0.));
#258=IFCCARTESIANPOINT((0.,0.));
#259=IFCPOLYLINE((#246,#247,#248,#249,#250,#251,#252,#253,#254,#255,#256,#257,#258));
#260=IFCARBITRARYCLOSEDPROFILEDEF(.AREA.,$,#259);
#261=IFCCARTESIANPOINT((2.3999999999999999,1.7675000000000001,0.));
#262=IFCDIRECTION((1.,0.,0.));
#263=IFCDIRECTION((0.,1.,0.));
#264=IFCAXIS2PLACEMENT3D(#261,#262,#263);
#265=IFCDIRECTION((0.,0.,1.));
#266=IFCEXTRUDEDAREASOLID(#260,#264,#265,1.6000000000000001);
#267=IFCSHAPEREPRESENTATION(#14,'Body','SweptSolid',(#266));
#268=IFCPRODUCTDEFINITIONSHAPE($,$,(#267));
#274=IFCOWNERHISTORY(#3,#4,.READWRITE.,.MODIFIED.,1781126331,#3,#4,1781126331);
#275=IFCBEAM('1tUymJ4YfB1RC_4GsmA9hc',#274,'C200x65x18 1.6mm (tail)',$,$,#540,#298,$,.JOIST.);
#276=IFCCARTESIANPOINT((0.,0.));
#277=IFCCARTESIANPOINT((0.,0.20000000000000001));
#278=IFCCARTESIANPOINT((0.065000000000000002,0.20000000000000001));
#279=IFCCARTESIANPOINT((0.065000000000000002,0.18200000000000002));
#280=IFCCARTESIANPOINT((0.063399999999999998,0.18200000000000002));
#281=IFCCARTESIANPOINT((0.063399999999999998,0.19840000000000002));
#282=IFCCARTESIANPOINT((0.0016000000000000001,0.19840000000000002));
#283=IFCCARTESIANPOINT((0.0016000000000000001,0.0016000000000000001));
#284=IFCCARTESIANPOINT((0.063399999999999998,0.0016000000000000001));
#285=IFCCARTESIANPOINT((0.063399999999999998,0.017999999999999999));
#286=IFCCARTESIANPOINT((0.065000000000000002,0.017999999999999999));
#287=IFCCARTESIANPOINT((0.065000000000000002,0.));
#288=IFCCARTESIANPOINT((0.,0.));
#289=IFCPOLYLINE((#276,#277,#278,#279,#280,#281,#282,#283,#284,#285,#286,#287,#288));
#290=IFCARBITRARYCLOSEDPROFILEDEF(.AREA.,$,#289);
#291=IFCCARTESIANPOINT((0.,2.3674999999999997,0.));
#292=IFCDIRECTION((1.,0.,0.));
#293=IFCDIRECTION((0.,1.,0.));
#294=IFCAXIS2PLACEMENT3D(#291,#292,#293);
#295=IFCDIRECTION((0.,0.,1.));
#296=IFCEXTRUDEDAREASOLID(#290,#294,#295,1.2);
#297=IFCSHAPEREPRESENTATION(#14,'Body','SweptSolid',(#296));
#298=IFCPRODUCTDEFINITIONSHAPE($,$,(#297));
#304=IFCOWNERHISTORY(#3,#4,.READWRITE.,.MODIFIED.,1781126331,#3,#4,1781126331);
#305=IFCBEAM('2Q2LgcvRHEzP_Ami3eaX3x',#304,'C200x65x18 1.6mm (tail)',$,$,#595,#328,$,.JOIST.);
#306=IFCCARTESIANPOINT((0.,0.));
#307=IFCCARTESIANPOINT((0.,0.20000000000000001));
#308=IFCCARTESIANPOINT((0.065000000000000002,0.20000000000000001));
#309=IFCCARTESIANPOINT((0.065000000000000002,0.18200000000000002));
#310=IFCCARTESIANPOINT((0.063399999999999998,0.18200000000000002));
#311=IFCCARTESIANPOINT((0.063399999999999998,0.19840000000000002));
#312=IFCCARTESIANPOINT((0.0016000000000000001,0.19840000000000002));
#313=IFCCARTESIANPOINT((0.0016000000000000001,0.0016000000000000001));
#314=IFCCARTESIANPOINT((0.063399999999999998,0.0016000000000000001));
#315=IFCCARTESIANPOINT((0.063399999999999998,0.017999999999999999));
#316=IFCCARTESIANPOINT((0.065000000000000002,0.017999999999999999));
#317=IFCCARTESIANPOINT((0.065000000000000002,0.));
#318=IFCCARTESIANPOINT((0.,0.));
#319=IFCPOLYLINE((#306,#307,#308,#309,#310,#311,#312,#313,#314,#315,#316,#317,#318));
#320=IFCARBITRARYCLOSEDPROFILEDEF(.AREA.,$,#319);
#321=IFCCARTESIANPOINT((2.3999999999999999,2.3674999999999997,0.));
#322=IFCDIRECTION((1.,0.,0.));
#323=IFCDIRECTION((0.,1.,0.));
#324=IFCAXIS2PLACEMENT3D(#321,#322,#323);
#325=IFCDIRECTION((0.,0.,1.));
#326=IFCEXTRUDEDAREASOLID(#320,#324,#325,1.6000000000000001);
#327=IFCSHAPEREPRESENTATION(#14,'Body','SweptSolid',(#326));
#328=IFCPRODUCTDEFINITIONSHAPE($,$,(#327));
#334=IFCOWNERHISTORY(#3,#4,.READWRITE.,.MODIFIED.,1781126331,#3,#4,1781126331);
#335=IFCBEAM('0Y98_Ykqn5bfiawT2VqqrE',#334,'C200x65x18 1.6mm (joist)',$,$,#590,#358,$,.JOIST.);
#336=IFCCARTESIANPOINT((0.,0.));
#337=IFCCARTESIANPOINT((0.,0.20000000000000001));
#338=IFCCARTESIANPOINT((0.065000000000000002,0.20000000000000001));
#339=IFCCARTESIANPOINT((0.065000000000000002,0.18200000000000002));
#340=IFCCARTESIANPOINT((0.063399999999999998,0.18200000000000002));
#341=IFCCARTESIANPOINT((0.063399999999999998,0.19840000000000002));
#342=IFCCARTESIANPOINT((0.0016000000000000001,0.19840000000000002));
#343=IFCCARTESIANPOINT((0.0016000000000000001,0.0016000000000000001));
#344=IFCCARTESIANPOINT((0.063399999999999998,0.0016000000000000001));
#345=IFCCARTESIANPOINT((0.063399999999999998,0.017999999999999999));
#346=IFCCARTESIANPOINT((0.065000000000000002,0.017999999999999999));
#347=IFCCARTESIANPOINT((0.065000000000000002,0.));
#348=IFCCARTESIANPOINT((0.,0.));
#349=IFCPOLYLINE((#336,#337,#338,#339,#340,#341,#342,#343,#344,#345,#346,#347,#348));
#350=IFCARBITRARYCLOSEDPROFILEDEF(.AREA.,$,#349);
#351=IFCCARTESIANPOINT((0.,2.9674999999999998,0.));
#352=IFCDIRECTION((1.,0.,0.));
#353=IFCDIRECTION((0.,1.,0.));
#354=IFCAXIS2PLACEMENT3D(#351,#352,#353);
#355=IFCDIRECTION((0.,0.,1.));
#356=IFCEXTRUDEDAREASOLID(#350,#354,#355,4.);
#357=IFCSHAPEREPRESENTATION(#14,'Body','SweptSolid',(#356));
#358=IFCPRODUCTDEFINITIONSHAPE($,$,(#357));
#364=IFCOWNERHISTORY(#3,#4,.READWRITE.,.MODIFIED.,1781126331,#3,#4,1781126331);
#365=IFCBEAM('0hKfkMhfXBMe8Q42ojr8s2',#364,'C200x65x18 1.6mm (joist)',$,$,#580,#388,$,.JOIST.);
#366=IFCCARTESIANPOINT((0.,0.));
#367=IFCCARTESIANPOINT((0.,0.20000000000000001));
#368=IFCCARTESIANPOINT((0.065000000000000002,0.20000000000000001));
#369=IFCCARTESIANPOINT((0.065000000000000002,0.18200000000000002));
#370=IFCCARTESIANPOINT((0.063399999999999998,0.18200000000000002));
#371=IFCCARTESIANPOINT((0.063399999999999998,0.19840000000000002));
#372=IFCCARTESIANPOINT((0.0016000000000000001,0.19840000000000002));
#373=IFCCARTESIANPOINT((0.0016000000000000001,0.0016000000000000001));
#374=IFCCARTESIANPOINT((0.063399999999999998,0.0016000000000000001));
#375=IFCCARTESIANPOINT((0.063399999999999998,0.017999999999999999));
#376=IFCCARTESIANPOINT((0.065000000000000002,0.017999999999999999));
#377=IFCCARTESIANPOINT((0.065000000000000002,0.));
#378=IFCCARTESIANPOINT((0.,0.));
#379=IFCPOLYLINE((#366,#367,#368,#369,#370,#371,#372,#373,#374,#375,#376,#377,#378));
#380=IFCARBITRARYCLOSEDPROFILEDEF(.AREA.,$,#379);
#381=IFCCARTESIANPOINT((0.,3.5674999999999999,0.));
#382=IFCDIRECTION((1.,0.,0.));
#383=IFCDIRECTION((0.,1.,0.));
#384=IFCAXIS2PLACEMENT3D(#381,#382,#383);
#385=IFCDIRECTION((0.,0.,1.));
#386=IFCEXTRUDEDAREASOLID(#380,#384,#385,4.);
#387=IFCSHAPEREPRESENTATION(#14,'Body','SweptSolid',(#386));
#388=IFCPRODUCTDEFINITIONSHAPE($,$,(#387));
#394=IFCOWNERHISTORY(#3,#4,.READWRITE.,.MODIFIED.,1781126331,#3,#4,1781126331);
#395=IFCBEAM('2AvU4s7DTEMfhH0cRUGjdj',#394,'C200x65x18 1.6mm (trimmer)',$,$,#545,#418,$,.BEAM.);
#396=IFCCARTESIANPOINT((0.,0.));
#397=IFCCARTESIANPOINT((0.,0.20000000000000001));
#398=IFCCARTESIANPOINT((0.065000000000000002,0.20000000000000001));
#399=IFCCARTESIANPOINT((0.065000000000000002,0.18200000000000002));
#400=IFCCARTESIANPOINT((0.063399999999999998,0.18200000000000002));
#401=IFCCARTESIANPOINT((0.063399999999999998,0.19840000000000002));
#402=IFCCARTESIANPOINT((0.0016000000000000001,0.19840000000000002));
#403=IFCCARTESIANPOINT((0.0016000000000000001,0.0016000000000000001));
#404=IFCCARTESIANPOINT((0.063399999999999998,0.0016000000000000001));
#405=IFCCARTESIANPOINT((0.063399999999999998,0.017999999999999999));
#406=IFCCARTESIANPOINT((0.065000000000000002,0.017999999999999999));
#407=IFCCARTESIANPOINT((0.065000000000000002,0.));
#408=IFCCARTESIANPOINT((0.,0.));
#409=IFCPOLYLINE((#396,#397,#398,#399,#400,#401,#402,#403,#404,#405,#406,#407,#408));
#410=IFCARBITRARYCLOSEDPROFILEDEF(.AREA.,$,#409);
#411=IFCCARTESIANPOINT((0.,1.1675,0.));
#412=IFCDIRECTION((1.,0.,0.));
#413=IFCDIRECTION((0.,1.,0.));
#414=IFCAXIS2PLACEMENT3D(#411,#412,#413);
#415=IFCDIRECTION((0.,0.,1.));
#416=IFCEXTRUDEDAREASOLID(#410,#414,#415,4.);
#417=IFCSHAPEREPRESENTATION(#14,'Body','SweptSolid',(#416));
#418=IFCPRODUCTDEFINITIONSHAPE($,$,(#417));
#424=IFCOWNERHISTORY(#3,#4,.READWRITE.,.MODIFIED.,1781126331,#3,#4,1781126331);
#425=IFCBEAM('3QGAIs48n8_uRFbvB9ZEPy',#424,'C200x65x18 1.6mm (trimmer)',$,$,#550,#448,$,.BEAM.);
#426=IFCCARTESIANPOINT((0.,0.));
#427=IFCCARTESIANPOINT((0.,0.20000000000000001));
#428=IFCCARTESIANPOINT((0.065000000000000002,0.20000000000000001));
#429=IFCCARTESIANPOINT((0.065000000000000002,0.18200000000000002));
#430=IFCCARTESIANPOINT((0.063399999999999998,0.18200000000000002));
#431=IFCCARTESIANPOINT((0.063399999999999998,0.19840000000000002));
#432=IFCCARTESIANPOINT((0.0016000000000000001,0.19840000000000002));
#433=IFCCARTESIANPOINT((0.0016000000000000001,0.0016000000000000001));
#434=IFCCARTESIANPOINT((0.063399999999999998,0.0016000000000000001));
#435=IFCCARTESIANPOINT((0.063399999999999998,0.017999999999999999));
#436=IFCCARTESIANPOINT((0.065000000000000002,0.017999999999999999));
#437=IFCCARTESIANPOINT((0.065000000000000002,0.));
#438=IFCCARTESIANPOINT((0.,0.));
#439=IFCPOLYLINE((#426,#427,#428,#429,#430,#431,#432,#433,#434,#435,#436,#437,#438));
#440=IFCARBITRARYCLOSEDPROFILEDEF(.AREA.,$,#439);
#441=IFCCARTESIANPOINT((0.,2.3674999999999997,0.));
#442=IFCDIRECTION((1.,0.,0.));
#443=IFCDIRECTION((0.,1.,0.));
#444=IFCAXIS2PLACEMENT3D(#441,#442,#443);
#445=IFCDIRECTION((0.,0.,1.));
#446=IFCEXTRUDEDAREASOLID(#440,#444,#445,4.);
#447=IFCSHAPEREPRESENTATION(#14,'Body','SweptSolid',(#446));
#448=IFCPRODUCTDEFINITIONSHAPE($,$,(#447));
#454=IFCOWNERHISTORY(#3,#4,.READWRITE.,.MODIFIED.,1781126331,#3,#4,1781126331);
#455=IFCBEAM('3nMQgtzN58YALQtOIPMNkZ',#454,'C200x65x18 1.6mm (header)',$,$,#520,#478,$,.BEAM.);
#456=IFCCARTESIANPOINT((0.,0.));
#457=IFCCARTESIANPOINT((0.,0.20000000000000001));
#458=IFCCARTESIANPOINT((0.065000000000000002,0.20000000000000001));
#459=IFCCARTESIANPOINT((0.065000000000000002,0.18200000000000002));
#460=IFCCARTESIANPOINT((0.063399999999999998,0.18200000000000002));
#461=IFCCARTESIANPOINT((0.063399999999999998,0.19840000000000002));
#462=IFCCARTESIANPOINT((0.0016000000000000001,0.19840000000000002));
#463=IFCCARTESIANPOINT((0.0016000000000000001,0.0016000000000000001));
#464=IFCCARTESIANPOINT((0.063399999999999998,0.0016000000000000001));
#465=IFCCARTESIANPOINT((0.063399999999999998,0.017999999999999999));
#466=IFCCARTESIANPOINT((0.065000000000000002,0.017999999999999999));
#467=IFCCARTESIANPOINT((0.065000000000000002,0.));
#468=IFCCARTESIANPOINT((0.,0.));
#469=IFCPOLYLINE((#456,#457,#458,#459,#460,#461,#462,#463,#464,#465,#466,#467,#468));
#470=IFCARBITRARYCLOSEDPROFILEDEF(.AREA.,$,#469);
#471=IFCCARTESIANPOINT((1.2,1.2,0.));
#472=IFCDIRECTION((0.,1.,0.));
#473=IFCDIRECTION((1.,0.,0.));
#474=IFCAXIS2PLACEMENT3D(#471,#472,#473);
#475=IFCDIRECTION((0.,0.,1.));
#476=IFCEXTRUDEDAREASOLID(#470,#474,#475,1.2);
#477=IFCSHAPEREPRESENTATION(#14,'Body','SweptSolid',(#476));
#478=IFCPRODUCTDEFINITIONSHAPE($,$,(#477));
#484=IFCOWNERHISTORY(#3,#4,.READWRITE.,.MODIFIED.,1781126331,#3,#4,1781126331);
#485=IFCBEAM('30ZCK5ViT4Ufb1RuUhkNC2',#484,'C200x65x18 1.6mm (header)',$,$,#525,#508,$,.BEAM.);
#486=IFCCARTESIANPOINT((0.,0.));
#487=IFCCARTESIANPOINT((0.,0.20000000000000001));
#488=IFCCARTESIANPOINT((0.065000000000000002,0.20000000000000001));
#489=IFCCARTESIANPOINT((0.065000000000000002,0.18200000000000002));
#490=IFCCARTESIANPOINT((0.063399999999999998,0.18200000000000002));
#491=IFCCARTESIANPOINT((0.063399999999999998,0.19840000000000002));
#492=IFCCARTESIANPOINT((0.0016000000000000001,0.19840000000000002));
#493=IFCCARTESIANPOINT((0.0016000000000000001,0.0016000000000000001));
#494=IFCCARTESIANPOINT((0.063399999999999998,0.0016000000000000001));
#495=IFCCARTESIANPOINT((0.063399999999999998,0.017999999999999999));
#496=IFCCARTESIANPOINT((0.065000000000000002,0.017999999999999999));
#497=IFCCARTESIANPOINT((0.065000000000000002,0.));
#498=IFCCARTESIANPOINT((0.,0.));
#499=IFCPOLYLINE((#486,#487,#488,#489,#490,#491,#492,#493,#494,#495,#496,#497,#498));
#500=IFCARBITRARYCLOSEDPROFILEDEF(.AREA.,$,#499);
#501=IFCCARTESIANPOINT((2.3999999999999999,1.2,0.));
#502=IFCDIRECTION((0.,1.,0.));
#503=IFCDIRECTION((1.,0.,0.));
#504=IFCAXIS2PLACEMENT3D(#501,#502,#503);
#505=IFCDIRECTION((0.,0.,1.));
#506=IFCEXTRUDEDAREASOLID(#500,#504,#505,1.2);
#507=IFCSHAPEREPRESENTATION(#14,'Body','SweptSolid',(#506));
#508=IFCPRODUCTDEFINITIONSHAPE($,$,(#507));
#514=IFCOWNERHISTORY(#3,#4,.READWRITE.,.ADDED.,1781126331,#3,#4,1781126331);
#515=IFCRELAGGREGATES('1enJNJSPnBhO6SPtHSrX0R',#514,$,$,#29,(#455,#485,#125,#215,#275,#395,#425,#95,#155,#185,#69,#245,#365,#43,#335,#305));
#516=IFCCARTESIANPOINT((0.,0.,0.));
#517=IFCDIRECTION((0.,0.,1.));
#518=IFCDIRECTION((1.,0.,0.));
#519=IFCAXIS2PLACEMENT3D(#516,#517,#518);
#520=IFCLOCALPLACEMENT(#41,#519);
#521=IFCCARTESIANPOINT((0.,0.,0.));
#522=IFCDIRECTION((0.,0.,1.));
#523=IFCDIRECTION((1.,0.,0.));
#524=IFCAXIS2PLACEMENT3D(#521,#522,#523);
#525=IFCLOCALPLACEMENT(#41,#524);
#526=IFCCARTESIANPOINT((0.,0.,0.));
#527=IFCDIRECTION((0.,0.,1.));
#528=IFCDIRECTION((1.,0.,0.));
#529=IFCAXIS2PLACEMENT3D(#526,#527,#528);
#530=IFCLOCALPLACEMENT(#41,#529);
#531=IFCCARTESIANPOINT((0.,0.,0.));
#532=IFCDIRECTION((0.,0.,1.));
#533=IFCDIRECTION((1.,0.,0.));
#534=IFCAXIS2PLACEMENT3D(#531,#532,#533);
#535=IFCLOCALPLACEMENT(#41,#534);
#536=IFCCARTESIANPOINT((0.,0.,0.));
#537=IFCDIRECTION((0.,0.,1.));
#538=IFCDIRECTION((1.,0.,0.));
#539=IFCAXIS2PLACEMENT3D(#536,#537,#538);
#540=IFCLOCALPLACEMENT(#41,#539);
#541=IFCCARTESIANPOINT((0.,0.,0.));
#542=IFCDIRECTION((0.,0.,1.));
#543=IFCDIRECTION((1.,0.,0.));
#544=IFCAXIS2PLACEMENT3D(#541,#542,#543);
#545=IFCLOCALPLACEMENT(#41,#544);
#546=IFCCARTESIANPOINT((0.,0.,0.));
#547=IFCDIRECTION((0.,0.,1.));
#548=IFCDIRECTION((1.,0.,0.));
#549=IFCAXIS2PLACEMENT3D(#546,#547,#548);
#550=IFCLOCALPLACEMENT(#41,#549);
#551=IFCCARTESIANPOINT((0.,0.,0.));
#552=IFCDIRECTION((0.,0.,1.));
#553=IFCDIRECTION((1.,0.,0.));
#554=IFCAXIS2PLACEMENT3D(#551,#552,#553);
#555=IFCLOCALPLACEMENT(#41,#554);
#556=IFCCARTESIANPOINT((0.,0.,0.));
#557=IFCDIRECTION((0.,0.,1.));
#558=IFCDIRECTION((1.,0.,0.));
#559=IFCAXIS2PLACEMENT3D(#556,#557,#558);
#560=IFCLOCALPLACEMENT(#41,#559);
#561=IFCCARTESIANPOINT((0.,0.,0.));
#562=IFCDIRECTION((0.,0.,1.));
#563=IFCDIRECTION((1.,0.,0.));
#564=IFCAXIS2PLACEMENT3D(#561,#562,#563);
#565=IFCLOCALPLACEMENT(#41,#564);
#566=IFCCARTESIANPOINT((0.,0.,0.));
#567=IFCDIRECTION((0.,0.,1.));
#568=IFCDIRECTION((1.,0.,0.));
#569=IFCAXIS2PLACEMENT3D(#566,#567,#568);
#570=IFCLOCALPLACEMENT(#41,#569);
#571=IFCCARTESIANPOINT((0.,0.,0.));
#572=IFCDIRECTION((0.,0.,1.));
#573=IFCDIRECTION((1.,0.,0.));
#574=IFCAXIS2PLACEMENT3D(#571,#572,#573);
#575=IFCLOCALPLACEMENT(#41,#574);
#576=IFCCARTESIANPOINT((0.,0.,0.));
#577=IFCDIRECTION((0.,0.,1.));
#578=IFCDIRECTION((1.,0.,0.));
#579=IFCAXIS2PLACEMENT3D(#576,#577,#578);
#580=IFCLOCALPLACEMENT(#41,#579);
#581=IFCCARTESIANPOINT((0.,0.,0.));
#582=IFCDIRECTION((0.,0.,1.));
#583=IFCDIRECTION((1.,0.,0.));
#584=IFCAXIS2PLACEMENT3D(#581,#582,#583);
#585=IFCLOCALPLACEMENT(#41,#584);
#586=IFCCARTESIANPOINT((0.,0.,0.));
#587=IFCDIRECTION((0.,0.,1.));
#588=IFCDIRECTION((1.,0.,0.));
#589=IFCAXIS2PLACEMENT3D(#586,#587,#588);
#590=IFCLOCALPLACEMENT(#41,#589);
#591=IFCCARTESIANPOINT((0.,0.,0.));
#592=IFCDIRECTION((0.,0.,1.));
#593=IFCDIRECTION((1.,0.,0.));
#594=IFCAXIS2PLACEMENT3D(#591,#592,#593);
#595=IFCLOCALPLACEMENT(#41,#594);
#596=IFCOWNERHISTORY(#3,#4,.READWRITE.,.ADDED.,1781126331,#3,#4,1781126331);
#597=IFCRELASSOCIATESMATERIAL('1eidMYTV92CvBLKG3r9w0E',#596,$,$,(#455,#485,#125,#215,#275,#395,#425,#95,#155,#185,#69,#245,#365,#43,#335,#305),#27);
#598=IFCOWNERHISTORY(#3,#4,.READWRITE.,.ADDED.,1781126331,#3,#4,1781126331);
#599=IFCPROPERTYSET('2AUZTZ5GzC1QyjK7EnE7U4',#598,'Pset_LGS_Panel',$,(#602,#603,#604,#605,#606,#607,#608));
#600=IFCOWNERHISTORY(#3,#4,.READWRITE.,.ADDED.,1781126331,#3,#4,1781126331);
#601=IFCRELDEFINESBYPROPERTIES('2tW570Asb00wdGADhpptLT',#600,$,$,(#29),#599);
#602=IFCPROPERTYSINGLEVALUE('LoadBearing',$,IFCBOOLEAN(.T.),$);
#603=IFCPROPERTYSINGLEVALUE('IsExternal',$,IFCBOOLEAN(.T.),$);
#604=IFCPROPERTYSINGLEVALUE('StudSpacing_mm',$,IFCINTEGER(600),$);
#605=IFCPROPERTYSINGLEVALUE('MemberCount',$,IFCINTEGER(16),$);
#606=IFCPROPERTYSINGLEVALUE('Category',$,IFCLABEL('ROOF'),$);
#607=IFCPROPERTYSINGLEVALUE('JoistSection',$,IFCLABEL('C200x65x18 1.6mm'),$);
#608=IFCPROPERTYSINGLEVALUE('TrackSection',$,IFCLABEL('U204x65 1.6mm'),$);
ENDSEC;
END-ISO-10303-21;
