ISO-10303-21;
HEADER;
FILE_DESCRIPTION(('ViewDefinition[DesignTransferView]'),'2;1');
FILE_NAME('/dev/null','2026-06-10T21:18:51+00:00',(''),(''),'IfcOpenShell 0.8.5','IfcOpenShell 0.8.5','Nobody');
FILE_SCHEMA(('IFC4'));
ENDSEC;
DATA;
#1=IFCPERSON($,'Martinez Rodriguez','Pablo',$,$,$,$,$);
#2=IFCORGANIZATION($,'Northumbria University',$,$,$);
#3=IFCPERSONANDORGANIZATION(#1,#2,$);
#4=IFCAPPLICATION(#2,'0.8','LGS Panel Generator','LGSGEN');
#5=IFCOWNERHISTORY(#3,#4,.READWRITE.,.ADDED.,1781126331,#3,#4,1781126331);
#6=IFCPROJECT('2j5rjS7ML5kAKQ0_suWYy0',#5,'LGS Panel Library',$,$,$,$,(#13),#8);
#7=IFCSIUNIT(*,.LENGTHUNIT.,$,.METRE.);
#8=IFCUNITASSIGNMENT((#7));
#9=IFCCARTESIANPOINT((0.,0.,0.));
#10=IFCDIRECTION((0.,0.,1.));
#11=IFCDIRECTION((1.,0.,0.));
#12=IFCAXIS2PLACEMENT3D(#9,#10,#11);
#13=IFCGEOMETRICREPRESENTATIONCONTEXT($,'Model',3,1.0000000000000001E-05,#12,$);
#14=IFCGEOMETRICREPRESENTATIONSUBCONTEXT('Body','Model',*,*,*,*,#13,$,.MODEL_VIEW.,$);
#15=IFCOWNERHISTORY(#3,#4,.READWRITE.,.ADDED.,1781126331,#3,#4,1781126331);
#16=IFCSITE('17ERrL7FrFWxQxpDq4SebK',#15,'Site',$,$,$,$,$,$,$,$,$,$,$);
#17=IFCOWNERHISTORY(#3,#4,.READWRITE.,.ADDED.,1781126331,#3,#4,1781126331);
#18=IFCBUILDING('18tAq94bL7zgsxtTON1BMs',#17,'Manufacturing Reference',$,$,$,$,$,$,$,$,$);
#19=IFCOWNERHISTORY(#3,#4,.READWRITE.,.ADDED.,1781126331,#3,#4,1781126331);
#20=IFCBUILDINGSTOREY('3ch5IlXDv32eOscGexEW$b',#19,'Level',$,$,$,$,$,$,$);
#21=IFCOWNERHISTORY(#3,#4,.READWRITE.,.ADDED.,1781126331,#3,#4,1781126331);
#22=IFCRELAGGREGATES('05E3rkSzH5$xRojb$nVbYK',#21,$,$,#6,(#16));
#23=IFCOWNERHISTORY(#3,#4,.READWRITE.,.ADDED.,1781126331,#3,#4,1781126331);
#24=IFCRELAGGREGATES('3DG1pjTiz37fGo188pmSVq',#23,$,$,#16,(#18));
#25=IFCOWNERHISTORY(#3,#4,.READWRITE.,.ADDED.,1781126331,#3,#4,1781126331);
#26=IFCRELAGGREGATES('3RuGqgQovF3BmnLu3GH7iZ',#25,$,$,#18,(#20));
#27=IFCMATERIAL('Light Gauge Steel S350GD+Z',$,$);
#28=IFCOWNERHISTORY(#3,#4,.READWRITE.,.MODIFIED.,1781126331,#3,#4,1781126331);
#29=IFCELEMENTASSEMBLY('3_UY5K9F93vfhkfUttPG5T',#28,'Pitched Rafter Panel (duo-pitch 30deg)',$,$,#41,$,$,$,$);
#35=IFCOWNERHISTORY(#3,#4,.READWRITE.,.ADDED.,1781126331,#3,#4,1781126331);
#36=IFCRELCONTAINEDINSPATIALSTRUCTURE('0WF3_uEkXDtPHz9H7CL8Ea',#35,$,$,(#29),#20);
#37=IFCCARTESIANPOINT((0.,0.,0.));
#38=IFCDIRECTION((0.,0.,1.));
#39=IFCDIRECTION((1.,0.,0.));
#40=IFCAXIS2PLACEMENT3D(#37,#38,#39);
#41=IFCLOCALPLACEMENT($,#40);
#42=IFCOWNERHISTORY(#3,#4,.READWRITE.,.MODIFIED.,1781126331,#3,#4,1781126331);
#43=IFCMEMBER('2NUxslkorCaxSQMnLjj$OM',#42,'C200x65x18 1.6mm (rafter)',$,$,#610,#66,$,.RAFTER.);
#44=IFCCARTESIANPOINT((0.,0.));
#45=IFCCARTESIANPOINT((0.,0.20000000000000001));
#46=IFCCARTESIANPOINT((0.065000000000000002,0.20000000000000001));
#47=IFCCARTESIANPOINT((0.065000000000000002,0.18200000000000002));
#48=IFCCARTESIANPOINT((0.063399999999999998,0.18200000000000002));
#49=IFCCARTESIANPOINT((0.063399999999999998,0.19840000000000002));
#50=IFCCARTESIANPOINT((0.0016000000000000001,0.19840000000000002));
#51=IFCCARTESIANPOINT((0.0016000000000000001,0.0016000000000000001));
#52=IFCCARTESIANPOINT((0.063399999999999998,0.0016000000000000001));
#53=IFCCARTESIANPOINT((0.063399999999999998,0.017999999999999999));
#54=IFCCARTESIANPOINT((0.065000000000000002,0.017999999999999999));
#55=IFCCARTESIANPOINT((0.065000000000000002,0.));
#56=IFCCARTESIANPOINT((0.,0.));
#57=IFCPOLYLINE((#44,#45,#46,#47,#48,#49,#50,#51,#52,#53,#54,#55,#56));
#58=IFCARBITRARYCLOSEDPROFILEDEF(.AREA.,$,#57);
#59=IFCCARTESIANPOINT((0.,-0.032500000000000001,0.));
#60=IFCDIRECTION((0.86603175470726002,0.,0.49998899971765809));
#61=IFCDIRECTION((0.,1.,0.));
#62=IFCAXIS2PLACEMENT3D(#59,#60,#61);
#63=IFCDIRECTION((0.,0.,1.));
#64=IFCEXTRUDEDAREASOLID(#58,#62,#63,3.4640762116327637);
#65=IFCSHAPEREPRESENTATION(#14,'Body','SweptSolid',(#64));
#66=IFCPRODUCTDEFINITIONSHAPE($,$,(#65));
#72=IFCOWNERHISTORY(#3,#4,.READWRITE.,.MODIFIED.,1781126331,#3,#4,1781126331);
#73=IFCMEMBER('20qmqXohDB2A_uY37Cw1oB',#72,'C200x65x18 1.6mm (rafter)',$,$,#580,#96,$,.RAFTER.);
#74=IFCCARTESIANPOINT((0.,0.));
#75=IFCCARTESIANPOINT((0.,0.20000000000000001));
#76=IFCCARTESIANPOINT((0.065000000000000002,0.20000000000000001));
#77=IFCCARTESIANPOINT((0.065000000000000002,0.18200000000000002));
#78=IFCCARTESIANPOINT((0.063399999999999998,0.18200000000000002));
#79=IFCCARTESIANPOINT((0.063399999999999998,0.19840000000000002));
#80=IFCCARTESIANPOINT((0.0016000000000000001,0.19840000000000002));
#81=IFCCARTESIANPOINT((0.0016000000000000001,0.0016000000000000001));
#82=IFCCARTESIANPOINT((0.063399999999999998,0.0016000000000000001));
#83=IFCCARTESIANPOINT((0.063399999999999998,0.017999999999999999));
#84=IFCCARTESIANPOINT((0.065000000000000002,0.017999999999999999));
#85=IFCCARTESIANPOINT((0.065000000000000002,0.));
#86=IFCCARTESIANPOINT((0.,0.));
#87=IFCPOLYLINE((#74,#75,#76,#77,#78,#79,#80,#81,#82,#83,#84,#85,#86));
#88=IFCARBITRARYCLOSEDPROFILEDEF(.AREA.,$,#87);
#89=IFCCARTESIANPOINT((6.,-0.032500000000000001,0.));
#90=IFCDIRECTION((-0.86603175470726002,0.,0.49998899971765809));
#91=IFCDIRECTION((0.,1.,0.));
#92=IFCAXIS2PLACEMENT3D(#89,#90,#91);
#93=IFCDIRECTION((0.,0.,1.));
#94=IFCEXTRUDEDAREASOLID(#88,#92,#93,3.4640762116327637);
#95=IFCSHAPEREPRESENTATION(#14,'Body','SweptSolid',(#94));
#96=IFCPRODUCTDEFINITIONSHAPE($,$,(#95));
#102=IFCOWNERHISTORY(#3,#4,.READWRITE.,.MODIFIED.,1781126331,#3,#4,1781126331);
#103=IFCBEAM('3Air0BvKL8se5cQ91zcCSd',#102,'C200x65x18 1.6mm (ceiling tie)',$,$,#615,#126,$,.BEAM.);
#104=IFCCARTESIANPOINT((0.,0.));
#105=IFCCARTESIANPOINT((0.,0.20000000000000001));
#106=IFCCARTESIANPOINT((0.065000000000000002,0.20000000000000001));
#107=IFCCARTESIANPOINT((0.065000000000000002,0.18200000000000002));
#108=IFCCARTESIANPOINT((0.063399999999999998,0.18200000000000002));
#109=IFCCARTESIANPOINT((0.063399999999999998,0.19840000000000002));
#110=IFCCARTESIANPOINT((0.0016000000000000001,0.19840000000000002));
#111=IFCCARTESIANPOINT((0.0016000000000000001,0.0016000000000000001));
#112=IFCCARTESIANPOINT((0.063399999999999998,0.0016000000000000001));
#113=IFCCARTESIANPOINT((0.063399999999999998,0.017999999999999999));
#114=IFCCARTESIANPOINT((0.065000000000000002,0.017999999999999999));
#115=IFCCARTESIANPOINT((0.065000000000000002,0.));
#116=IFCCARTESIANPOINT((0.,0.));
#117=IFCPOLYLINE((#104,#105,#106,#107,#108,#109,#110,#111,#112,#113,#114,#115,#116));
#118=IFCARBITRARYCLOSEDPROFILEDEF(.AREA.,$,#117);
#119=IFCCARTESIANPOINT((0.,-0.032500000000000001,0.));
#120=IFCDIRECTION((1.,0.,0.));
#121=IFCDIRECTION((0.,1.,0.));
#122=IFCAXIS2PLACEMENT3D(#119,#120,#121);
#123=IFCDIRECTION((0.,0.,1.));
#124=IFCEXTRUDEDAREASOLID(#118,#122,#123,6.);
#125=IFCSHAPEREPRESENTATION(#14,'Body','SweptSolid',(#124));
#126=IFCPRODUCTDEFINITIONSHAPE($,$,(#125));
#132=IFCOWNERHISTORY(#3,#4,.READWRITE.,.MODIFIED.,1781126331,#3,#4,1781126331);
#133=IFCMEMBER('0k2unLjOz7KhIwO54DxeZU',#132,'C200x65x18 1.6mm (rafter)',$,$,#585,#156,$,.RAFTER.);
#134=IFCCARTESIANPOINT((0.,0.));
#135=IFCCARTESIANPOINT((0.,0.20000000000000001));
#136=IFCCARTESIANPOINT((0.065000000000000002,0.20000000000000001));
#137=IFCCARTESIANPOINT((0.065000000000000002,0.18200000000000002));
#138=IFCCARTESIANPOINT((0.063399999999999998,0.18200000000000002));
#139=IFCCARTESIANPOINT((0.063399999999999998,0.19840000000000002));
#140=IFCCARTESIANPOINT((0.0016000000000000001,0.19840000000000002));
#141=IFCCARTESIANPOINT((0.0016000000000000001,0.0016000000000000001));
#142=IFCCARTESIANPOINT((0.063399999999999998,0.0016000000000000001));
#143=IFCCARTESIANPOINT((0.063399999999999998,0.017999999999999999));
#144=IFCCARTESIANPOINT((0.065000000000000002,0.017999999999999999));
#145=IFCCARTESIANPOINT((0.065000000000000002,0.));
#146=IFCCARTESIANPOINT((0.,0.));
#147=IFCPOLYLINE((#134,#135,#136,#137,#138,#139,#140,#141,#142,#143,#144,#145,#146));
#148=IFCARBITRARYCLOSEDPROFILEDEF(.AREA.,$,#147);
#149=IFCCARTESIANPOINT((0.,0.5675,0.));
#150=IFCDIRECTION((0.86603175470726002,0.,0.49998899971765809));
#151=IFCDIRECTION((0.,1.,0.));
#152=IFCAXIS2PLACEMENT3D(#149,#150,#151);
#153=IFCDIRECTION((0.,0.,1.));
#154=IFCEXTRUDEDAREASOLID(#148,#152,#153,3.4640762116327637);
#155=IFCSHAPEREPRESENTATION(#14,'Body','SweptSolid',(#154));
#156=IFCPRODUCTDEFINITIONSHAPE($,$,(#155));
#162=IFCOWNERHISTORY(#3,#4,.READWRITE.,.MODIFIED.,1781126331,#3,#4,1781126331);
#163=IFCMEMBER('3giYkVXOzCcRVL4091aj3e',#162,'C200x65x18 1.6mm (rafter)',$,$,#645,#186,$,.RAFTER.);
#164=IFCCARTESIANPOINT((0.,0.));
#165=IFCCARTESIANPOINT((0.,0.20000000000000001));
#166=IFCCARTESIANPOINT((0.065000000000000002,0.20000000000000001));
#167=IFCCARTESIANPOINT((0.065000000000000002,0.18200000000000002));
#168=IFCCARTESIANPOINT((0.063399999999999998,0.18200000000000002));
#169=IFCCARTESIANPOINT((0.063399999999999998,0.19840000000000002));
#170=IFCCARTESIANPOINT((0.0016000000000000001,0.19840000000000002));
#171=IFCCARTESIANPOINT((0.0016000000000000001,0.0016000000000000001));
#172=IFCCARTESIANPOINT((0.063399999999999998,0.0016000000000000001));
#173=IFCCARTESIANPOINT((0.063399999999999998,0.017999999999999999));
#174=IFCCARTESIANPOINT((0.065000000000000002,0.017999999999999999));
#175=IFCCARTESIANPOINT((0.065000000000000002,0.));
#176=IFCCARTESIANPOINT((0.,0.));
#177=IFCPOLYLINE((#164,#165,#166,#167,#168,#169,#170,#171,#172,#173,#174,#175,#176));
#178=IFCARBITRARYCLOSEDPROFILEDEF(.AREA.,$,#177);
#179=IFCCARTESIANPOINT((6.,0.5675,0.));
#180=IFCDIRECTION((-0.86603175470726002,0.,0.49998899971765809));
#181=IFCDIRECTION((0.,1.,0.));
#182=IFCAXIS2PLACEMENT3D(#179,#180,#181);
#183=IFCDIRECTION((0.,0.,1.));
#184=IFCEXTRUDEDAREASOLID(#178,#182,#183,3.4640762116327637);
#185=IFCSHAPEREPRESENTATION(#14,'Body','SweptSolid',(#184));
#186=IFCPRODUCTDEFINITIONSHAPE($,$,(#185));
#192=IFCOWNERHISTORY(#3,#4,.READWRITE.,.MODIFIED.,1781126331,#3,#4,1781126331);
#193=IFCBEAM('1OBLBnz4nDSP6COls_ixpr',#192,'C200x65x18 1.6mm (ceiling tie)',$,$,#620,#216,$,.BEAM.);
#194=IFCCARTESIANPOINT((0.,0.));
#195=IFCCARTESIANPOINT((0.,0.20000000000000001));
#196=IFCCARTESIANPOINT((0.065000000000000002,0.20000000000000001));
#197=IFCCARTESIANPOINT((0.065000000000000002,0.18200000000000002));
#198=IFCCARTESIANPOINT((0.063399999999999998,0.18200000000000002));
#199=IFCCARTESIANPOINT((0.063399999999999998,0.19840000000000002));
#200=IFCCARTESIANPOINT((0.0016000000000000001,0.19840000000000002));
#201=IFCCARTESIANPOINT((0.0016000000000000001,0.0016000000000000001));
#202=IFCCARTESIANPOINT((0.063399999999999998,0.0016000000000000001));
#203=IFCCARTESIANPOINT((0.063399999999999998,0.017999999999999999));
#204=IFCCARTESIANPOINT((0.065000000000000002,0.017999999999999999));
#205=IFCCARTESIANPOINT((0.065000000000000002,0.));
#206=IFCCARTESIANPOINT((0.,0.));
#207=IFCPOLYLINE((#194,#195,#196,#197,#198,#199,#200,#201,#202,#203,#204,#205,#206));
#208=IFCARBITRARYCLOSEDPROFILEDEF(.AREA.,$,#207);
#209=IFCCARTESIANPOINT((0.,0.5675,0.));
#210=IFCDIRECTION((1.,0.,0.));
#211=IFCDIRECTION((0.,1.,0.));
#212=IFCAXIS2PLACEMENT3D(#209,#210,#211);
#213=IFCDIRECTION((0.,0.,1.));
#214=IFCEXTRUDEDAREASOLID(#208,#212,#213,6.);
#215=IFCSHAPEREPRESENTATION(#14,'Body','SweptSolid',(#214));
#216=IFCPRODUCTDEFINITIONSHAPE($,$,(#215));
#222=IFCOWNERHISTORY(#3,#4,.READWRITE.,.MODIFIED.,1781126331,#3,#4,1781126331);
#223=IFCMEMBER('1FfEICmlD4oBqLX1L$2UJh',#222,'C200x65x18 1.6mm (rafter)',$,$,#590,#246,$,.RAFTER.);
#224=IFCCARTESIANPOINT((0.,0.));
#225=IFCCARTESIANPOINT((0.,0.20000000000000001));
#226=IFCCARTESIANPOINT((0.065000000000000002,0.20000000000000001));
#227=IFCCARTESIANPOINT((0.065000000000000002,0.18200000000000002));
#228=IFCCARTESIANPOINT((0.063399999999999998,0.18200000000000002));
#229=IFCCARTESIANPOINT((0.063399999999999998,0.19840000000000002));
#230=IFCCARTESIANPOINT((0.0016000000000000001,0.19840000000000002));
#231=IFCCARTESIANPOINT((0.0016000000000000001,0.0016000000000000001));
#232=IFCCARTESIANPOINT((0.063399999999999998,0.0016000000000000001));
#233=IFCCARTESIANPOINT((0.063399999999999998,0.017999999999999999));
#234=IFCCARTESIANPOINT((0.065000000000000002,0.017999999999999999));
#235=IFCCARTESIANPOINT((0.065000000000000002,0.));
#236=IFCCARTESIANPOINT((0.,0.));
#237=IFCPOLYLINE((#224,#225,#226,#227,#228,#229,#230,#231,#232,#233,#234,#235,#236));
#238=IFCARBITRARYCLOSEDPROFILEDEF(.AREA.,$,#237);
#239=IFCCARTESIANPOINT((0.,1.1675,0.));
#240=IFCDIRECTION((0.86603175470726002,0.,0.49998899971765809));
#241=IFCDIRECTION((0.,1.,0.));
#242=IFCAXIS2PLACEMENT3D(#239,#240,#241);
#243=IFCDIRECTION((0.,0.,1.));
#244=IFCEXTRUDEDAREASOLID(#238,#242,#243,3.4640762116327637);
#245=IFCSHAPEREPRESENTATION(#14,'Body','SweptSolid',(#244));
#246=IFCPRODUCTDEFINITIONSHAPE($,$,(#245));
#252=IFCOWNERHISTORY(#3,#4,.READWRITE.,.MODIFIED.,1781126331,#3,#4,1781126331);
#253=IFCMEMBER('3VIZQR_k53YhY7wIkIeqMn',#252,'C200x65x18 1.6mm (rafter)',$,$,#650,#276,$,.RAFTER.);
#254=IFCCARTESIANPOINT((0.,0.));
#255=IFCCARTESIANPOINT((0.,0.20000000000000001));
#256=IFCCARTESIANPOINT((0.065000000000000002,0.20000000000000001));
#257=IFCCARTESIANPOINT((0.065000000000000002,0.18200000000000002));
#258=IFCCARTESIANPOINT((0.063399999999999998,0.18200000000000002));
#259=IFCCARTESIANPOINT((0.063399999999999998,0.19840000000000002));
#260=IFCCARTESIANPOINT((0.0016000000000000001,0.19840000000000002));
#261=IFCCARTESIANPOINT((0.0016000000000000001,0.0016000000000000001));
#262=IFCCARTESIANPOINT((0.063399999999999998,0.0016000000000000001));
#263=IFCCARTESIANPOINT((0.063399999999999998,0.017999999999999999));
#264=IFCCARTESIANPOINT((0.065000000000000002,0.017999999999999999));
#265=IFCCARTESIANPOINT((0.065000000000000002,0.));
#266=IFCCARTESIANPOINT((0.,0.));
#267=IFCPOLYLINE((#254,#255,#256,#257,#258,#259,#260,#261,#262,#263,#264,#265,#266));
#268=IFCARBITRARYCLOSEDPROFILEDEF(.AREA.,$,#267);
#269=IFCCARTESIANPOINT((6.,1.1675,0.));
#270=IFCDIRECTION((-0.86603175470726002,0.,0.49998899971765809));
#271=IFCDIRECTION((0.,1.,0.));
#272=IFCAXIS2PLACEMENT3D(#269,#270,#271);
#273=IFCDIRECTION((0.,0.,1.));
#274=IFCEXTRUDEDAREASOLID(#268,#272,#273,3.4640762116327637);
#275=IFCSHAPEREPRESENTATION(#14,'Body','SweptSolid',(#274));
#276=IFCPRODUCTDEFINITIONSHAPE($,$,(#275));
#282=IFCOWNERHISTORY(#3,#4,.READWRITE.,.MODIFIED.,1781126331,#3,#4,1781126331);
#283=IFCBEAM('044XRHw$r3uBFM5WXoQS1q',#282,'C200x65x18 1.6mm (ceiling tie)',$,$,#595,#306,$,.BEAM.);
#284=IFCCARTESIANPOINT((0.,0.));
#285=IFCCARTESIANPOINT((0.,0.20000000000000001));
#286=IFCCARTESIANPOINT((0.065000000000000002,0.20000000000000001));
#287=IFCCARTESIANPOINT((0.065000000000000002,0.18200000000000002));
#288=IFCCARTESIANPOINT((0.063399999999999998,0.18200000000000002));
#289=IFCCARTESIANPOINT((0.063399999999999998,0.19840000000000002));
#290=IFCCARTESIANPOINT((0.0016000000000000001,0.19840000000000002));
#291=IFCCARTESIANPOINT((0.0016000000000000001,0.0016000000000000001));
#292=IFCCARTESIANPOINT((0.063399999999999998,0.0016000000000000001));
#293=IFCCARTESIANPOINT((0.063399999999999998,0.017999999999999999));
#294=IFCCARTESIANPOINT((0.065000000000000002,0.017999999999999999));
#295=IFCCARTESIANPOINT((0.065000000000000002,0.));
#296=IFCCARTESIANPOINT((0.,0.));
#297=IFCPOLYLINE((#284,#285,#286,#287,#288,#289,#290,#291,#292,#293,#294,#295,#296));
#298=IFCARBITRARYCLOSEDPROFILEDEF(.AREA.,$,#297);
#299=IFCCARTESIANPOINT((0.,1.1675,0.));
#300=IFCDIRECTION((1.,0.,0.));
#301=IFCDIRECTION((0.,1.,0.));
#302=IFCAXIS2PLACEMENT3D(#299,#300,#301);
#303=IFCDIRECTION((0.,0.,1.));
#304=IFCEXTRUDEDAREASOLID(#298,#302,#303,6.);
#305=IFCSHAPEREPRESENTATION(#14,'Body','SweptSolid',(#304));
#306=IFCPRODUCTDEFINITIONSHAPE($,$,(#305));
#312=IFCOWNERHISTORY(#3,#4,.READWRITE.,.MODIFIED.,1781126331,#3,#4,1781126331);
#313=IFCMEMBER('1y1OMp8oz0387hGZ7NkURK',#312,'C200x65x18 1.6mm (rafter)',$,$,#655,#336,$,.RAFTER.);
#314=IFCCARTESIANPOINT((0.,0.));
#315=IFCCARTESIANPOINT((0.,0.20000000000000001));
#316=IFCCARTESIANPOINT((0.065000000000000002,0.20000000000000001));
#317=IFCCARTESIANPOINT((0.065000000000000002,0.18200000000000002));
#318=IFCCARTESIANPOINT((0.063399999999999998,0.18200000000000002));
#319=IFCCARTESIANPOINT((0.063399999999999998,0.19840000000000002));
#320=IFCCARTESIANPOINT((0.0016000000000000001,0.19840000000000002));
#321=IFCCARTESIANPOINT((0.0016000000000000001,0.0016000000000000001));
#322=IFCCARTESIANPOINT((0.063399999999999998,0.0016000000000000001));
#323=IFCCARTESIANPOINT((0.063399999999999998,0.017999999999999999));
#324=IFCCARTESIANPOINT((0.065000000000000002,0.017999999999999999));
#325=IFCCARTESIANPOINT((0.065000000000000002,0.));
#326=IFCCARTESIANPOINT((0.,0.));
#327=IFCPOLYLINE((#314,#315,#316,#317,#318,#319,#320,#321,#322,#323,#324,#325,#326));
#328=IFCARBITRARYCLOSEDPROFILEDEF(.AREA.,$,#327);
#329=IFCCARTESIANPOINT((0.,1.7675000000000001,0.));
#330=IFCDIRECTION((0.86603175470726002,0.,0.49998899971765809));
#331=IFCDIRECTION((0.,1.,0.));
#332=IFCAXIS2PLACEMENT3D(#329,#330,#331);
#333=IFCDIRECTION((0.,0.,1.));
#334=IFCEXTRUDEDAREASOLID(#328,#332,#333,3.4640762116327637);
#335=IFCSHAPEREPRESENTATION(#14,'Body','SweptSolid',(#334));
#336=IFCPRODUCTDEFINITIONSHAPE($,$,(#335));
#342=IFCOWNERHISTORY(#3,#4,.READWRITE.,.MODIFIED.,1781126331,#3,#4,1781126331);
#343=IFCMEMBER('15$f5id1v21gjEPZ5k4QIR',#342,'C200x65x18 1.6mm (rafter)',$,$,#635,#366,$,.RAFTER.);
#344=IFCCARTESIANPOINT((0.,0.));
#345=IFCCARTESIANPOINT((0.,0.20000000000000001));
#346=IFCCARTESIANPOINT((0.065000000000000002,0.20000000000000001));
#347=IFCCARTESIANPOINT((0.065000000000000002,0.18200000000000002));
#348=IFCCARTESIANPOINT((0.063399999999999998,0.18200000000000002));
#349=IFCCARTESIANPOINT((0.063399999999999998,0.19840000000000002));
#350=IFCCARTESIANPOINT((0.0016000000000000001,0.19840000000000002));
#351=IFCCARTESIANPOINT((0.0016000000000000001,0.0016000000000000001));
#352=IFCCARTESIANPOINT((0.063399999999999998,0.0016000000000000001));
#353=IFCCARTESIANPOINT((0.063399999999999998,0.017999999999999999));
#354=IFCCARTESIANPOINT((0.065000000000000002,0.017999999999999999));
#355=IFCCARTESIANPOINT((0.065000000000000002,0.));
#356=IFCCARTESIANPOINT((0.,0.));
#357=IFCPOLYLINE((#344,#345,#346,#347,#348,#349,#350,#351,#352,#353,#354,#355,#356));
#358=IFCARBITRARYCLOSEDPROFILEDEF(.AREA.,$,#357);
#359=IFCCARTESIANPOINT((6.,1.7675000000000001,0.));
#360=IFCDIRECTION((-0.86603175470726002,0.,0.49998899971765809));
#361=IFCDIRECTION((0.,1.,0.));
#362=IFCAXIS2PLACEMENT3D(#359,#360,#361);
#363=IFCDIRECTION((0.,0.,1.));
#364=IFCEXTRUDEDAREASOLID(#358,#362,#363,3.4640762116327637);
#365=IFCSHAPEREPRESENTATION(#14,'Body','SweptSolid',(#364));
#366=IFCPRODUCTDEFINITIONSHAPE($,$,(#365));
#372=IFCOWNERHISTORY(#3,#4,.READWRITE.,.MODIFIED.,1781126331,#3,#4,1781126331);
#373=IFCBEAM('09RP6CL3LEkQ6SwbBmQaSh',#372,'C200x65x18 1.6mm (ceiling tie)',$,$,#600,#396,$,.BEAM.);
#374=IFCCARTESIANPOINT((0.,0.));
#375=IFCCARTESIANPOINT((0.,0.20000000000000001));
#376=IFCCARTESIANPOINT((0.065000000000000002,0.20000000000000001));
#377=IFCCARTESIANPOINT((0.065000000000000002,0.18200000000000002));
#378=IFCCARTESIANPOINT((0.063399999999999998,0.18200000000000002));
#379=IFCCARTESIANPOINT((0.063399999999999998,0.19840000000000002));
#380=IFCCARTESIANPOINT((0.0016000000000000001,0.19840000000000002));
#381=IFCCARTESIANPOINT((0.0016000000000000001,0.0016000000000000001));
#382=IFCCARTESIANPOINT((0.063399999999999998,0.0016000000000000001));
#383=IFCCARTESIANPOINT((0.063399999999999998,0.017999999999999999));
#384=IFCCARTESIANPOINT((0.065000000000000002,0.017999999999999999));
#385=IFCCARTESIANPOINT((0.065000000000000002,0.));
#386=IFCCARTESIANPOINT((0.,0.));
#387=IFCPOLYLINE((#374,#375,#376,#377,#378,#379,#380,#381,#382,#383,#384,#385,#386));
#388=IFCARBITRARYCLOSEDPROFILEDEF(.AREA.,$,#387);
#389=IFCCARTESIANPOINT((0.,1.7675000000000001,0.));
#390=IFCDIRECTION((1.,0.,0.));
#391=IFCDIRECTION((0.,1.,0.));
#392=IFCAXIS2PLACEMENT3D(#389,#390,#391);
#393=IFCDIRECTION((0.,0.,1.));
#394=IFCEXTRUDEDAREASOLID(#388,#392,#393,6.);
#395=IFCSHAPEREPRESENTATION(#14,'Body','SweptSolid',(#394));
#396=IFCPRODUCTDEFINITIONSHAPE($,$,(#395));
#402=IFCOWNERHISTORY(#3,#4,.READWRITE.,.MODIFIED.,1781126331,#3,#4,1781126331);
#403=IFCMEMBER('08HnoaNWb9XBpa7YZ25bz6',#402,'C200x65x18 1.6mm (rafter)',$,$,#660,#426,$,.RAFTER.);
#404=IFCCARTESIANPOINT((0.,0.));
#405=IFCCARTESIANPOINT((0.,0.20000000000000001));
#406=IFCCARTESIANPOINT((0.065000000000000002,0.20000000000000001));
#407=IFCCARTESIANPOINT((0.065000000000000002,0.18200000000000002));
#408=IFCCARTESIANPOINT((0.063399999999999998,0.18200000000000002));
#409=IFCCARTESIANPOINT((0.063399999999999998,0.19840000000000002));
#410=IFCCARTESIANPOINT((0.0016000000000000001,0.19840000000000002));
#411=IFCCARTESIANPOINT((0.0016000000000000001,0.0016000000000000001));
#412=IFCCARTESIANPOINT((0.063399999999999998,0.0016000000000000001));
#413=IFCCARTESIANPOINT((0.063399999999999998,0.017999999999999999));
#414=IFCCARTESIANPOINT((0.065000000000000002,0.017999999999999999));
#415=IFCCARTESIANPOINT((0.065000000000000002,0.));
#416=IFCCARTESIANPOINT((0.,0.));
#417=IFCPOLYLINE((#404,#405,#406,#407,#408,#409,#410,#411,#412,#413,#414,#415,#416));
#418=IFCARBITRARYCLOSEDPROFILEDEF(.AREA.,$,#417);
#419=IFCCARTESIANPOINT((0.,2.3674999999999997,0.));
#420=IFCDIRECTION((0.86603175470726002,0.,0.49998899971765809));
#421=IFCDIRECTION((0.,1.,0.));
#422=IFCAXIS2PLACEMENT3D(#419,#420,#421);
#423=IFCDIRECTION((0.,0.,1.));
#424=IFCEXTRUDEDAREASOLID(#418,#422,#423,3.4640762116327637);
#425=IFCSHAPEREPRESENTATION(#14,'Body','SweptSolid',(#424));
#426=IFCPRODUCTDEFINITIONSHAPE($,$,(#425));
#432=IFCOWNERHISTORY(#3,#4,.READWRITE.,.MODIFIED.,1781126331,#3,#4,1781126331);
#433=IFCMEMBER('23AD2ozZDECxb_NpMcCodv',#432,'C200x65x18 1.6mm (rafter)',$,$,#630,#456,$,.RAFTER.);
#434=IFCCARTESIANPOINT((0.,0.));
#435=IFCCARTESIANPOINT((0.,0.20000000000000001));
#436=IFCCARTESIANPOINT((0.065000000000000002,0.20000000000000001));
#437=IFCCARTESIANPOINT((0.065000000000000002,0.18200000000000002));
#438=IFCCARTESIANPOINT((0.063399999999999998,0.18200000000000002));
#439=IFCCARTESIANPOINT((0.063399999999999998,0.19840000000000002));
#440=IFCCARTESIANPOINT((0.0016000000000000001,0.19840000000000002));
#441=IFCCARTESIANPOINT((0.0016000000000000001,0.0016000000000000001));
#442=IFCCARTESIANPOINT((0.063399999999999998,0.0016000000000000001));
#443=IFCCARTESIANPOINT((0.063399999999999998,0.017999999999999999));
#444=IFCCARTESIANPOINT((0.065000000000000002,0.017999999999999999));
#445=IFCCARTESIANPOINT((0.065000000000000002,0.));
#446=IFCCARTESIANPOINT((0.,0.));
#447=IFCPOLYLINE((#434,#435,#436,#437,#438,#439,#440,#441,#442,#443,#444,#445,#446));
#448=IFCARBITRARYCLOSEDPROFILEDEF(.AREA.,$,#447);
#449=IFCCARTESIANPOINT((6.,2.3674999999999997,0.));
#450=IFCDIRECTION((-0.86603175470726002,0.,0.49998899971765809));
#451=IFCDIRECTION((0.,1.,0.));
#452=IFCAXIS2PLACEMENT3D(#449,#450,#451);
#453=IFCDIRECTION((0.,0.,1.));
#454=IFCEXTRUDEDAREASOLID(#448,#452,#453,3.4640762116327637);
#455=IFCSHAPEREPRESENTATION(#14,'Body','SweptSolid',(#454));
#456=IFCPRODUCTDEFINITIONSHAPE($,$,(#455));
#462=IFCOWNERHISTORY(#3,#4,.READWRITE.,.MODIFIED.,1781126331,#3,#4,1781126331);
#463=IFCBEAM('000RySvxzAu9xg2i$EdEC5',#462,'C200x65x18 1.6mm (ceiling tie)',$,$,#665,#486,$,.BEAM.);
#464=IFCCARTESIANPOINT((0.,0.));
#465=IFCCARTESIANPOINT((0.,0.20000000000000001));
#466=IFCCARTESIANPOINT((0.065000000000000002,0.20000000000000001));
#467=IFCCARTESIANPOINT((0.065000000000000002,0.18200000000000002));
#468=IFCCARTESIANPOINT((0.063399999999999998,0.18200000000000002));
#469=IFCCARTESIANPOINT((0.063399999999999998,0.19840000000000002));
#470=IFCCARTESIANPOINT((0.0016000000000000001,0.19840000000000002));
#471=IFCCARTESIANPOINT((0.0016000000000000001,0.0016000000000000001));
#472=IFCCARTESIANPOINT((0.063399999999999998,0.0016000000000000001));
#473=IFCCARTESIANPOINT((0.063399999999999998,0.017999999999999999));
#474=IFCCARTESIANPOINT((0.065000000000000002,0.017999999999999999));
#475=IFCCARTESIANPOINT((0.065000000000000002,0.));
#476=IFCCARTESIANPOINT((0.,0.));
#477=IFCPOLYLINE((#464,#465,#466,#467,#468,#469,#470,#471,#472,#473,#474,#475,#476));
#478=IFCARBITRARYCLOSEDPROFILEDEF(.AREA.,$,#477);
#479=IFCCARTESIANPOINT((0.,2.3674999999999997,0.));
#480=IFCDIRECTION((1.,0.,0.));
#481=IFCDIRECTION((0.,1.,0.));
#482=IFCAXIS2PLACEMENT3D(#479,#480,#481);
#483=IFCDIRECTION((0.,0.,1.));
#484=IFCEXTRUDEDAREASOLID(#478,#482,#483,6.);
#485=IFCSHAPEREPRESENTATION(#14,'Body','SweptSolid',(#484));
#486=IFCPRODUCTDEFINITIONSHAPE($,$,(#485));
#492=IFCOWNERHISTORY(#3,#4,.READWRITE.,.MODIFIED.,1781126331,#3,#4,1781126331);
#493=IFCBEAM('3hhThESbv1tQm9shVJKevm',#492,'C200x65x18 1.6mm (ridge)',$,$,#640,#516,$,.BEAM.);
#494=IFCCARTESIANPOINT((0.,0.));
#495=IFCCARTESIANPOINT((0.,0.20000000000000001));
#496=IFCCARTESIANPOINT((0.065000000000000002,0.20000000000000001));
#497=IFCCARTESIANPOINT((0.065000000000000002,0.18200000000000002));
#498=IFCCARTESIANPOINT((0.063399999999999998,0.18200000000000002));
#499=IFCCARTESIANPOINT((0.063399999999999998,0.19840000000000002));
#500=IFCCARTESIANPOINT((0.0016000000000000001,0.19840000000000002));
#501=IFCCARTESIANPOINT((0.0016000000000000001,0.0016000000000000001));
#502=IFCCARTESIANPOINT((0.063399999999999998,0.0016000000000000001));
#503=IFCCARTESIANPOINT((0.063399999999999998,0.017999999999999999));
#504=IFCCARTESIANPOINT((0.065000000000000002,0.017999999999999999));
#505=IFCCARTESIANPOINT((0.065000000000000002,0.));
#506=IFCCARTESIANPOINT((0.,0.));
#507=IFCPOLYLINE((#494,#495,#496,#497,#498,#499,#500,#501,#502,#503,#504,#505,#506));
#508=IFCARBITRARYCLOSEDPROFILEDEF(.AREA.,$,#507);
#509=IFCCARTESIANPOINT((2.9674999999999998,0.,1.732));
#510=IFCDIRECTION((0.,1.,0.));
#511=IFCDIRECTION((1.,0.,0.));
#512=IFCAXIS2PLACEMENT3D(#509,#510,#511);
#513=IFCDIRECTION((0.,0.,1.));
#514=IFCEXTRUDEDAREASOLID(#508,#512,#513,2.3999999999999999);
#515=IFCSHAPEREPRESENTATION(#14,'Body','SweptSolid',(#514));
#516=IFCPRODUCTDEFINITIONSHAPE($,$,(#515));
#522=IFCOWNERHISTORY(#3,#4,.READWRITE.,.MODIFIED.,1781126331,#3,#4,1781126331);
#523=IFCMEMBER('2z2Ktm2XnA9BwIdRejAkq$',#522,'U204x65 1.6mm (eaves plate)',$,$,#605,#542,$,.PLATE.);
#524=IFCCARTESIANPOINT((0.,0.));
#525=IFCCARTESIANPOINT((0.,0.20000000000000001));
#526=IFCCARTESIANPOINT((0.065000000000000002,0.20000000000000001));
#527=IFCCARTESIANPOINT((0.065000000000000002,0.19840000000000002));
#528=IFCCARTESIANPOINT((0.0016000000000000001,0.19840000000000002));
#529=IFCCARTESIANPOINT((0.0016000000000000001,0.0016000000000000001));
#530=IFCCARTESIANPOINT((0.065000000000000002,0.0016000000000000001));
#531=IFCCARTESIANPOINT((0.065000000000000002,0.));
#532=IFCCARTESIANPOINT((0.,0.));
#533=IFCPOLYLINE((#524,#525,#526,#527,#528,#529,#530,#531,#532));
#534=IFCARBITRARYCLOSEDPROFILEDEF(.AREA.,$,#533);
#535=IFCCARTESIANPOINT((0.,0.,0.20000000000000001));
#536=IFCDIRECTION((0.,1.,0.));
#537=IFCDIRECTION((1.,0.,0.));
#538=IFCAXIS2PLACEMENT3D(#535,#536,#537);
#539=IFCDIRECTION((0.,0.,1.));
#540=IFCEXTRUDEDAREASOLID(#534,#538,#539,2.3999999999999999);
#541=IFCSHAPEREPRESENTATION(#14,'Body','SweptSolid',(#540));
#542=IFCPRODUCTDEFINITIONSHAPE($,$,(#541));
#548=IFCOWNERHISTORY(#3,#4,.READWRITE.,.MODIFIED.,1781126331,#3,#4,1781126331);
#549=IFCMEMBER('3U0dD4POvAke7jzXKpRliq',#548,'U204x65 1.6mm (eaves plate)',$,$,#625,#568,$,.PLATE.);
#550=IFCCARTESIANPOINT((0.,0.));
#551=IFCCARTESIANPOINT((0.,0.20000000000000001));
#552=IFCCARTESIANPOINT((0.065000000000000002,0.20000000000000001));
#553=IFCCARTESIANPOINT((0.065000000000000002,0.19840000000000002));
#554=IFCCARTESIANPOINT((0.0016000000000000001,0.19840000000000002));
#555=IFCCARTESIANPOINT((0.0016000000000000001,0.0016000000000000001));
#556=IFCCARTESIANPOINT((0.065000000000000002,0.0016000000000000001));
#557=IFCCARTESIANPOINT((0.065000000000000002,0.));
#558=IFCCARTESIANPOINT((0.,0.));
#559=IFCPOLYLINE((#550,#551,#552,#553,#554,#555,#556,#557,#558));
#560=IFCARBITRARYCLOSEDPROFILEDEF(.AREA.,$,#559);
#561=IFCCARTESIANPOINT((6.,0.,0.));
#562=IFCDIRECTION((0.,1.,0.));
#563=IFCDIRECTION((-1.,0.,0.));
#564=IFCAXIS2PLACEMENT3D(#561,#562,#563);
#565=IFCDIRECTION((0.,0.,1.));
#566=IFCEXTRUDEDAREASOLID(#560,#564,#565,2.3999999999999999);
#567=IFCSHAPEREPRESENTATION(#14,'Body','SweptSolid',(#566));
#568=IFCPRODUCTDEFINITIONSHAPE($,$,(#567));
#574=IFCOWNERHISTORY(#3,#4,.READWRITE.,.ADDED.,1781126331,#3,#4,1781126331);
#575=IFCRELAGGREGATES('18ZXYJiY14ihVic7wbJ38E',#574,$,$,#29,(#73,#133,#223,#283,#373,#523,#43,#103,#193,#549,#433,#343,#493,#163,#253,#313,#403,#463));
#576=IFCCARTESIANPOINT((0.,0.,0.));
#577=IFCDIRECTION((0.,0.,1.));
#578=IFCDIRECTION((1.,0.,0.));
#579=IFCAXIS2PLACEMENT3D(#576,#577,#578);
#580=IFCLOCALPLACEMENT(#41,#579);
#581=IFCCARTESIANPOINT((0.,0.,0.));
#582=IFCDIRECTION((0.,0.,1.));
#583=IFCDIRECTION((1.,0.,0.));
#584=IFCAXIS2PLACEMENT3D(#581,#582,#583);
#585=IFCLOCALPLACEMENT(#41,#584);
#586=IFCCARTESIANPOINT((0.,0.,0.));
#587=IFCDIRECTION((0.,0.,1.));
#588=IFCDIRECTION((1.,0.,0.));
#589=IFCAXIS2PLACEMENT3D(#586,#587,#588);
#590=IFCLOCALPLACEMENT(#41,#589);
#591=IFCCARTESIANPOINT((0.,0.,0.));
#592=IFCDIRECTION((0.,0.,1.));
#593=IFCDIRECTION((1.,0.,0.));
#594=IFCAXIS2PLACEMENT3D(#591,#592,#593);
#595=IFCLOCALPLACEMENT(#41,#594);
#596=IFCCARTESIANPOINT((0.,0.,0.));
#597=IFCDIRECTION((0.,0.,1.));
#598=IFCDIRECTION((1.,0.,0.));
#599=IFCAXIS2PLACEMENT3D(#596,#597,#598);
#600=IFCLOCALPLACEMENT(#41,#599);
#601=IFCCARTESIANPOINT((0.,0.,0.));
#602=IFCDIRECTION((0.,0.,1.));
#603=IFCDIRECTION((1.,0.,0.));
#604=IFCAXIS2PLACEMENT3D(#601,#602,#603);
#605=IFCLOCALPLACEMENT(#41,#604);
#606=IFCCARTESIANPOINT((0.,0.,0.));
#607=IFCDIRECTION((0.,0.,1.));
#608=IFCDIRECTION((1.,0.,0.));
#609=IFCAXIS2PLACEMENT3D(#606,#607,#608);
#610=IFCLOCALPLACEMENT(#41,#609);
#611=IFCCARTESIANPOINT((0.,0.,0.));
#612=IFCDIRECTION((0.,0.,1.));
#613=IFCDIRECTION((1.,0.,0.));
#614=IFCAXIS2PLACEMENT3D(#611,#612,#613);
#615=IFCLOCALPLACEMENT(#41,#614);
#616=IFCCARTESIANPOINT((0.,0.,0.));
#617=IFCDIRECTION((0.,0.,1.));
#618=IFCDIRECTION((1.,0.,0.));
#619=IFCAXIS2PLACEMENT3D(#616,#617,#618);
#620=IFCLOCALPLACEMENT(#41,#619);
#621=IFCCARTESIANPOINT((0.,0.,0.));
#622=IFCDIRECTION((0.,0.,1.));
#623=IFCDIRECTION((1.,0.,0.));
#624=IFCAXIS2PLACEMENT3D(#621,#622,#623);
#625=IFCLOCALPLACEMENT(#41,#624);
#626=IFCCARTESIANPOINT((0.,0.,0.));
#627=IFCDIRECTION((0.,0.,1.));
#628=IFCDIRECTION((1.,0.,0.));
#629=IFCAXIS2PLACEMENT3D(#626,#627,#628);
#630=IFCLOCALPLACEMENT(#41,#629);
#631=IFCCARTESIANPOINT((0.,0.,0.));
#632=IFCDIRECTION((0.,0.,1.));
#633=IFCDIRECTION((1.,0.,0.));
#634=IFCAXIS2PLACEMENT3D(#631,#632,#633);
#635=IFCLOCALPLACEMENT(#41,#634);
#636=IFCCARTESIANPOINT((0.,0.,0.));
#637=IFCDIRECTION((0.,0.,1.));
#638=IFCDIRECTION((1.,0.,0.));
#639=IFCAXIS2PLACEMENT3D(#636,#637,#638);
#640=IFCLOCALPLACEMENT(#41,#639);
#641=IFCCARTESIANPOINT((0.,0.,0.));
#642=IFCDIRECTION((0.,0.,1.));
#643=IFCDIRECTION((1.,0.,0.));
#644=IFCAXIS2PLACEMENT3D(#641,#642,#643);
#645=IFCLOCALPLACEMENT(#41,#644);
#646=IFCCARTESIANPOINT((0.,0.,0.));
#647=IFCDIRECTION((0.,0.,1.));
#648=IFCDIRECTION((1.,0.,0.));
#649=IFCAXIS2PLACEMENT3D(#646,#647,#648);
#650=IFCLOCALPLACEMENT(#41,#649);
#651=IFCCARTESIANPOINT((0.,0.,0.));
#652=IFCDIRECTION((0.,0.,1.));
#653=IFCDIRECTION((1.,0.,0.));
#654=IFCAXIS2PLACEMENT3D(#651,#652,#653);
#655=IFCLOCALPLACEMENT(#41,#654);
#656=IFCCARTESIANPOINT((0.,0.,0.));
#657=IFCDIRECTION((0.,0.,1.));
#658=IFCDIRECTION((1.,0.,0.));
#659=IFCAXIS2PLACEMENT3D(#656,#657,#658);
#660=IFCLOCALPLACEMENT(#41,#659);
#661=IFCCARTESIANPOINT((0.,0.,0.));
#662=IFCDIRECTION((0.,0.,1.));
#663=IFCDIRECTION((1.,0.,0.));
#664=IFCAXIS2PLACEMENT3D(#661,#662,#663);
#665=IFCLOCALPLACEMENT(#41,#664);
#666=IFCOWNERHISTORY(#3,#4,.READWRITE.,.ADDED.,1781126331,#3,#4,1781126331);
#667=IFCRELASSOCIATESMATERIAL('2uALckVaL9TRkhF45X3Dg9',#666,$,$,(#73,#133,#223,#283,#373,#523,#43,#103,#193,#549,#433,#343,#493,#163,#253,#313,#403,#463),#27);
#668=IFCOWNERHISTORY(#3,#4,.READWRITE.,.ADDED.,1781126331,#3,#4,1781126331);
#669=IFCPROPERTYSET('26Y7B3JLzBleQzkOr0_z7q',#668,'Pset_LGS_Panel',$,(#672,#673,#674,#675,#676,#677,#678));
#670=IFCOWNERHISTORY(#3,#4,.READWRITE.,.ADDED.,1781126331,#3,#4,1781126331);
#671=IFCRELDEFINESBYPROPERTIES('0A6xKS6tH1ke1j4w7Qta7e',#670,$,$,(#29),#669);
#672=IFCPROPERTYSINGLEVALUE('LoadBearing',$,IFCBOOLEAN(.T.),$);
#673=IFCPROPERTYSINGLEVALUE('IsExternal',$,IFCBOOLEAN(.T.),$);
#674=IFCPROPERTYSINGLEVALUE('StudSpacing_mm',$,IFCINTEGER(600),$);
#675=IFCPROPERTYSINGLEVALUE('MemberCount',$,IFCINTEGER(18),$);
#676=IFCPROPERTYSINGLEVALUE('Category',$,IFCLABEL('ROOF'),$);
#677=IFCPROPERTYSINGLEVALUE('RafterSection',$,IFCLABEL('C200x65x18 1.6mm'),$);
#678=IFCPROPERTYSINGLEVALUE('TrackSection',$,IFCLABEL('U204x65 1.6mm'),$);
ENDSEC;
END-ISO-10303-21;
