ISO-10303-21;
HEADER;
FILE_DESCRIPTION(('ViewDefinition[DesignTransferView]'),'2;1');
FILE_NAME('/dev/null','2026-06-09T21:31:40+00:00',(''),(''),'IfcOpenShell 0.8.5','IfcOpenShell 0.8.5','Nobody');
FILE_SCHEMA(('IFC2X3'));
ENDSEC;
DATA;
#1=IFCPERSON($,'Martinez Rodriguez','Pablo',$,$,$,$,$);
#2=IFCORGANIZATION($,'Northumbria University',$,$,$);
#3=IFCPERSONANDORGANIZATION(#1,#2,$);
#4=IFCAPPLICATION(#2,'0.8','LGS Panel Generator','LGSGEN');
#5=IFCOWNERHISTORY(#3,#4,.READWRITE.,.ADDED.,1781040700,#3,#4,1781040700);
#6=IFCPROJECT('0b2ot5fFT0ku0SHgnebR_l',#5,'LGS Panel Library',$,$,$,$,(#13),#8);
#7=IFCSIUNIT(*,.LENGTHUNIT.,$,.METRE.);
#8=IFCUNITASSIGNMENT((#7));
#9=IFCCARTESIANPOINT((0.,0.,0.));
#10=IFCDIRECTION((0.,0.,1.));
#11=IFCDIRECTION((1.,0.,0.));
#12=IFCAXIS2PLACEMENT3D(#9,#10,#11);
#13=IFCGEOMETRICREPRESENTATIONCONTEXT($,'Model',3,1.0000000000000001E-05,#12,$);
#14=IFCGEOMETRICREPRESENTATIONSUBCONTEXT('Body','Model',*,*,*,*,#13,$,.MODEL_VIEW.,$);
#15=IFCOWNERHISTORY(#3,#4,.READWRITE.,.ADDED.,1781040700,#3,#4,1781040700);
#16=IFCSITE('0rg0EiGeDCOOXMfLm6Mcv9',#15,'Site',$,$,$,$,$,.ELEMENT.,$,$,$,$,$);
#17=IFCOWNERHISTORY(#3,#4,.READWRITE.,.ADDED.,1781040700,#3,#4,1781040700);
#18=IFCBUILDING('0FsqzlTXj33fg1xubU0E9G',#17,'Manufacturing Reference',$,$,$,$,$,.ELEMENT.,$,$,$);
#19=IFCOWNERHISTORY(#3,#4,.READWRITE.,.ADDED.,1781040700,#3,#4,1781040700);
#20=IFCBUILDINGSTOREY('3CTBzSdpb3TBPO5FE9WeUc',#19,'Ground Floor',$,$,$,$,$,.ELEMENT.,$);
#21=IFCOWNERHISTORY(#3,#4,.READWRITE.,.ADDED.,1781040700,#3,#4,1781040700);
#22=IFCRELAGGREGATES('3a_M0T00T7SeOdjrhdABEO',#21,$,$,#6,(#16));
#23=IFCOWNERHISTORY(#3,#4,.READWRITE.,.ADDED.,1781040700,#3,#4,1781040700);
#24=IFCRELAGGREGATES('29vOAXui98nBioWJ0L_Aoj',#23,$,$,#16,(#18));
#25=IFCOWNERHISTORY(#3,#4,.READWRITE.,.ADDED.,1781040700,#3,#4,1781040700);
#26=IFCRELAGGREGATES('0KYt0SSXXCPuiAsSFW0gCM',#25,$,$,#18,(#20));
#27=IFCMATERIAL('Light Gauge Steel S350GD+Z');
#28=IFCOWNERHISTORY(#3,#4,.READWRITE.,.MODIFIED.,1781040700,#3,#4,1781040700);
#29=IFCELEMENTASSEMBLY('1njgHXzADCfOY95smnIADL',#28,'Corner / Junction Panel (L-shaped)',$,$,#41,$,$,$,$);
#35=IFCOWNERHISTORY(#3,#4,.READWRITE.,.ADDED.,1781040700,#3,#4,1781040700);
#36=IFCRELCONTAINEDINSPATIALSTRUCTURE('1p8fHgANHFVPetV2bZadfO',#35,$,$,(#29),#20);
#37=IFCCARTESIANPOINT((0.,0.,0.));
#38=IFCDIRECTION((0.,0.,1.));
#39=IFCDIRECTION((1.,0.,0.));
#40=IFCAXIS2PLACEMENT3D(#37,#38,#39);
#41=IFCLOCALPLACEMENT($,#40);
#42=IFCOWNERHISTORY(#3,#4,.READWRITE.,.MODIFIED.,1781040700,#3,#4,1781040700);
#43=IFCMEMBER('0tKocIidbDBRFf$w9BMQon',#42,'U152x40 1.6mm',$,$,#342,#62,$);
#44=IFCCARTESIANPOINT((0.,0.));
#45=IFCCARTESIANPOINT((0.,0.14999999999999999));
#46=IFCCARTESIANPOINT((0.040000000000000001,0.14999999999999999));
#47=IFCCARTESIANPOINT((0.040000000000000001,0.1484));
#48=IFCCARTESIANPOINT((0.0016000000000000001,0.1484));
#49=IFCCARTESIANPOINT((0.0016000000000000001,0.0016000000000000001));
#50=IFCCARTESIANPOINT((0.040000000000000001,0.0016000000000000001));
#51=IFCCARTESIANPOINT((0.040000000000000001,0.));
#52=IFCCARTESIANPOINT((0.,0.));
#53=IFCPOLYLINE((#44,#45,#46,#47,#48,#49,#50,#51,#52));
#54=IFCARBITRARYCLOSEDPROFILEDEF(.AREA.,$,#53);
#55=IFCCARTESIANPOINT((0.,0.14999999999999999,0.));
#56=IFCDIRECTION((1.,0.,0.));
#57=IFCDIRECTION((0.,0.,1.));
#58=IFCAXIS2PLACEMENT3D(#55,#56,#57);
#59=IFCDIRECTION((0.,0.,1.));
#60=IFCEXTRUDEDAREASOLID(#54,#58,#59,1.2);
#61=IFCSHAPEREPRESENTATION(#14,'Body','SweptSolid',(#60));
#62=IFCPRODUCTDEFINITIONSHAPE($,$,(#61));
#68=IFCOWNERHISTORY(#3,#4,.READWRITE.,.MODIFIED.,1781040700,#3,#4,1781040700);
#69=IFCMEMBER('1JfWlScAjDmAa61umqNtYc',#68,'U152x40 1.6mm',$,$,#337,#88,$);
#70=IFCCARTESIANPOINT((0.,0.));
#71=IFCCARTESIANPOINT((0.,0.14999999999999999));
#72=IFCCARTESIANPOINT((0.040000000000000001,0.14999999999999999));
#73=IFCCARTESIANPOINT((0.040000000000000001,0.1484));
#74=IFCCARTESIANPOINT((0.0016000000000000001,0.1484));
#75=IFCCARTESIANPOINT((0.0016000000000000001,0.0016000000000000001));
#76=IFCCARTESIANPOINT((0.040000000000000001,0.0016000000000000001));
#77=IFCCARTESIANPOINT((0.040000000000000001,0.));
#78=IFCCARTESIANPOINT((0.,0.));
#79=IFCPOLYLINE((#70,#71,#72,#73,#74,#75,#76,#77,#78));
#80=IFCARBITRARYCLOSEDPROFILEDEF(.AREA.,$,#79);
#81=IFCCARTESIANPOINT((0.,0.,2.7000000000000002));
#82=IFCDIRECTION((1.,0.,0.));
#83=IFCDIRECTION((0.,0.,-1.));
#84=IFCAXIS2PLACEMENT3D(#81,#82,#83);
#85=IFCDIRECTION((0.,0.,1.));
#86=IFCEXTRUDEDAREASOLID(#80,#84,#85,1.2);
#87=IFCSHAPEREPRESENTATION(#14,'Body','SweptSolid',(#86));
#88=IFCPRODUCTDEFINITIONSHAPE($,$,(#87));
#94=IFCOWNERHISTORY(#3,#4,.READWRITE.,.MODIFIED.,1781040700,#3,#4,1781040700);
#95=IFCMEMBER('02ruBGNHrAvwJ07jYgkidy',#94,'C150x50x16 1.6mm',$,$,#327,#118,$);
#96=IFCCARTESIANPOINT((0.,0.));
#97=IFCCARTESIANPOINT((0.,0.14999999999999999));
#98=IFCCARTESIANPOINT((0.050000000000000003,0.14999999999999999));
#99=IFCCARTESIANPOINT((0.050000000000000003,0.13500000000000001));
#100=IFCCARTESIANPOINT((0.048400000000000006,0.13500000000000001));
#101=IFCCARTESIANPOINT((0.048400000000000006,0.1484));
#102=IFCCARTESIANPOINT((0.0016000000000000001,0.1484));
#103=IFCCARTESIANPOINT((0.0016000000000000001,0.0016000000000000001));
#104=IFCCARTESIANPOINT((0.048400000000000006,0.0016000000000000001));
#105=IFCCARTESIANPOINT((0.048400000000000006,0.014999999999999999));
#106=IFCCARTESIANPOINT((0.050000000000000003,0.014999999999999999));
#107=IFCCARTESIANPOINT((0.050000000000000003,0.));
#108=IFCCARTESIANPOINT((0.,0.));
#109=IFCPOLYLINE((#96,#97,#98,#99,#100,#101,#102,#103,#104,#105,#106,#107,#108));
#110=IFCARBITRARYCLOSEDPROFILEDEF(.AREA.,$,#109);
#111=IFCCARTESIANPOINT((-0.025000000000000001,0.,0.0016000000000000001));
#112=IFCDIRECTION((0.,0.,1.));
#113=IFCDIRECTION((1.,0.,0.));
#114=IFCAXIS2PLACEMENT3D(#111,#112,#113);
#115=IFCDIRECTION((0.,0.,1.));
#116=IFCEXTRUDEDAREASOLID(#110,#114,#115,2.6968000000000001);
#117=IFCSHAPEREPRESENTATION(#14,'Body','SweptSolid',(#116));
#118=IFCPRODUCTDEFINITIONSHAPE($,$,(#117));
#124=IFCOWNERHISTORY(#3,#4,.READWRITE.,.MODIFIED.,1781040700,#3,#4,1781040700);
#125=IFCMEMBER('0KQvTItc95xe1wg4csDJqz',#124,'C150x50x16 1.6mm',$,$,#307,#148,$);
#126=IFCCARTESIANPOINT((0.,0.));
#127=IFCCARTESIANPOINT((0.,0.14999999999999999));
#128=IFCCARTESIANPOINT((0.050000000000000003,0.14999999999999999));
#129=IFCCARTESIANPOINT((0.050000000000000003,0.13500000000000001));
#130=IFCCARTESIANPOINT((0.048400000000000006,0.13500000000000001));
#131=IFCCARTESIANPOINT((0.048400000000000006,0.1484));
#132=IFCCARTESIANPOINT((0.0016000000000000001,0.1484));
#133=IFCCARTESIANPOINT((0.0016000000000000001,0.0016000000000000001));
#134=IFCCARTESIANPOINT((0.048400000000000006,0.0016000000000000001));
#135=IFCCARTESIANPOINT((0.048400000000000006,0.014999999999999999));
#136=IFCCARTESIANPOINT((0.050000000000000003,0.014999999999999999));
#137=IFCCARTESIANPOINT((0.050000000000000003,0.));
#138=IFCCARTESIANPOINT((0.,0.));
#139=IFCPOLYLINE((#126,#127,#128,#129,#130,#131,#132,#133,#134,#135,#136,#137,#138));
#140=IFCARBITRARYCLOSEDPROFILEDEF(.AREA.,$,#139);
#141=IFCCARTESIANPOINT((0.57499999999999996,0.,0.0016000000000000001));
#142=IFCDIRECTION((0.,0.,1.));
#143=IFCDIRECTION((1.,0.,0.));
#144=IFCAXIS2PLACEMENT3D(#141,#142,#143);
#145=IFCDIRECTION((0.,0.,1.));
#146=IFCEXTRUDEDAREASOLID(#140,#144,#145,2.6968000000000001);
#147=IFCSHAPEREPRESENTATION(#14,'Body','SweptSolid',(#146));
#148=IFCPRODUCTDEFINITIONSHAPE($,$,(#147));
#154=IFCOWNERHISTORY(#3,#4,.READWRITE.,.MODIFIED.,1781040700,#3,#4,1781040700);
#155=IFCMEMBER('1YZkdC$yP0dhNrfjE44p5U',#154,'C150x50x16 1.6mm',$,$,#312,#178,$);
#156=IFCCARTESIANPOINT((0.,0.));
#157=IFCCARTESIANPOINT((0.,0.14999999999999999));
#158=IFCCARTESIANPOINT((0.050000000000000003,0.14999999999999999));
#159=IFCCARTESIANPOINT((0.050000000000000003,0.13500000000000001));
#160=IFCCARTESIANPOINT((0.048400000000000006,0.13500000000000001));
#161=IFCCARTESIANPOINT((0.048400000000000006,0.1484));
#162=IFCCARTESIANPOINT((0.0016000000000000001,0.1484));
#163=IFCCARTESIANPOINT((0.0016000000000000001,0.0016000000000000001));
#164=IFCCARTESIANPOINT((0.048400000000000006,0.0016000000000000001));
#165=IFCCARTESIANPOINT((0.048400000000000006,0.014999999999999999));
#166=IFCCARTESIANPOINT((0.050000000000000003,0.014999999999999999));
#167=IFCCARTESIANPOINT((0.050000000000000003,0.));
#168=IFCCARTESIANPOINT((0.,0.));
#169=IFCPOLYLINE((#156,#157,#158,#159,#160,#161,#162,#163,#164,#165,#166,#167,#168));
#170=IFCARBITRARYCLOSEDPROFILEDEF(.AREA.,$,#169);
#171=IFCCARTESIANPOINT((1.175,0.,0.0016000000000000001));
#172=IFCDIRECTION((0.,0.,1.));
#173=IFCDIRECTION((1.,0.,0.));
#174=IFCAXIS2PLACEMENT3D(#171,#172,#173);
#175=IFCDIRECTION((0.,0.,1.));
#176=IFCEXTRUDEDAREASOLID(#170,#174,#175,2.6968000000000001);
#177=IFCSHAPEREPRESENTATION(#14,'Body','SweptSolid',(#176));
#178=IFCPRODUCTDEFINITIONSHAPE($,$,(#177));
#184=IFCOWNERHISTORY(#3,#4,.READWRITE.,.MODIFIED.,1781040700,#3,#4,1781040700);
#185=IFCMEMBER('2pdJWBxkz5Rx69QvzaPix6',#184,'U152x40 1.6mm',$,$,#332,#204,$);
#186=IFCCARTESIANPOINT((0.,0.));
#187=IFCCARTESIANPOINT((0.,0.14999999999999999));
#188=IFCCARTESIANPOINT((0.040000000000000001,0.14999999999999999));
#189=IFCCARTESIANPOINT((0.040000000000000001,0.1484));
#190=IFCCARTESIANPOINT((0.0016000000000000001,0.1484));
#191=IFCCARTESIANPOINT((0.0016000000000000001,0.0016000000000000001));
#192=IFCCARTESIANPOINT((0.040000000000000001,0.0016000000000000001));
#193=IFCCARTESIANPOINT((0.040000000000000001,0.));
#194=IFCCARTESIANPOINT((0.,0.));
#195=IFCPOLYLINE((#186,#187,#188,#189,#190,#191,#192,#193,#194));
#196=IFCARBITRARYCLOSEDPROFILEDEF(.AREA.,$,#195);
#197=IFCCARTESIANPOINT((0.,0.,0.));
#198=IFCDIRECTION((0.,1.,0.));
#199=IFCDIRECTION((0.,0.,1.));
#200=IFCAXIS2PLACEMENT3D(#197,#198,#199);
#201=IFCDIRECTION((0.,0.,1.));
#202=IFCEXTRUDEDAREASOLID(#196,#200,#201,1.2);
#203=IFCSHAPEREPRESENTATION(#14,'Body','SweptSolid',(#202));
#204=IFCPRODUCTDEFINITIONSHAPE($,$,(#203));
#210=IFCOWNERHISTORY(#3,#4,.READWRITE.,.MODIFIED.,1781040700,#3,#4,1781040700);
#211=IFCMEMBER('137RfxigHFkBqSXOVgCfak',#210,'U152x40 1.6mm',$,$,#322,#230,$);
#212=IFCCARTESIANPOINT((0.,0.));
#213=IFCCARTESIANPOINT((0.,0.14999999999999999));
#214=IFCCARTESIANPOINT((0.040000000000000001,0.14999999999999999));
#215=IFCCARTESIANPOINT((0.040000000000000001,0.1484));
#216=IFCCARTESIANPOINT((0.0016000000000000001,0.1484));
#217=IFCCARTESIANPOINT((0.0016000000000000001,0.0016000000000000001));
#218=IFCCARTESIANPOINT((0.040000000000000001,0.0016000000000000001));
#219=IFCCARTESIANPOINT((0.040000000000000001,0.));
#220=IFCCARTESIANPOINT((0.,0.));
#221=IFCPOLYLINE((#212,#213,#214,#215,#216,#217,#218,#219,#220));
#222=IFCARBITRARYCLOSEDPROFILEDEF(.AREA.,$,#221);
#223=IFCCARTESIANPOINT((0.14999999999999999,0.,2.7000000000000002));
#224=IFCDIRECTION((0.,1.,0.));
#225=IFCDIRECTION((0.,0.,-1.));
#226=IFCAXIS2PLACEMENT3D(#223,#224,#225);
#227=IFCDIRECTION((0.,0.,1.));
#228=IFCEXTRUDEDAREASOLID(#222,#226,#227,1.2);
#229=IFCSHAPEREPRESENTATION(#14,'Body','SweptSolid',(#228));
#230=IFCPRODUCTDEFINITIONSHAPE($,$,(#229));
#236=IFCOWNERHISTORY(#3,#4,.READWRITE.,.MODIFIED.,1781040700,#3,#4,1781040700);
#237=IFCMEMBER('32UVgeTvD8SxVRW95U18XC',#236,'C150x50x16 1.6mm',$,$,#317,#260,$);
#238=IFCCARTESIANPOINT((0.,0.));
#239=IFCCARTESIANPOINT((0.,0.14999999999999999));
#240=IFCCARTESIANPOINT((0.050000000000000003,0.14999999999999999));
#241=IFCCARTESIANPOINT((0.050000000000000003,0.13500000000000001));
#242=IFCCARTESIANPOINT((0.048400000000000006,0.13500000000000001));
#243=IFCCARTESIANPOINT((0.048400000000000006,0.1484));
#244=IFCCARTESIANPOINT((0.0016000000000000001,0.1484));
#245=IFCCARTESIANPOINT((0.0016000000000000001,0.0016000000000000001));
#246=IFCCARTESIANPOINT((0.048400000000000006,0.0016000000000000001));
#247=IFCCARTESIANPOINT((0.048400000000000006,0.014999999999999999));
#248=IFCCARTESIANPOINT((0.050000000000000003,0.014999999999999999));
#249=IFCCARTESIANPOINT((0.050000000000000003,0.));
#250=IFCCARTESIANPOINT((0.,0.));
#251=IFCPOLYLINE((#238,#239,#240,#241,#242,#243,#244,#245,#246,#247,#248,#249,#250));
#252=IFCARBITRARYCLOSEDPROFILEDEF(.AREA.,$,#251);
#253=IFCCARTESIANPOINT((0.14999999999999999,0.57499999999999996,0.0016000000000000001));
#254=IFCDIRECTION((0.,0.,1.));
#255=IFCDIRECTION((0.,1.,0.));
#256=IFCAXIS2PLACEMENT3D(#253,#254,#255);
#257=IFCDIRECTION((0.,0.,1.));
#258=IFCEXTRUDEDAREASOLID(#252,#256,#257,2.6968000000000001);
#259=IFCSHAPEREPRESENTATION(#14,'Body','SweptSolid',(#258));
#260=IFCPRODUCTDEFINITIONSHAPE($,$,(#259));
#266=IFCOWNERHISTORY(#3,#4,.READWRITE.,.MODIFIED.,1781040700,#3,#4,1781040700);
#267=IFCMEMBER('108R9L2Fr8UhKwNOEQjAgu',#266,'C150x50x16 1.6mm',$,$,#302,#290,$);
#268=IFCCARTESIANPOINT((0.,0.));
#269=IFCCARTESIANPOINT((0.,0.14999999999999999));
#270=IFCCARTESIANPOINT((0.050000000000000003,0.14999999999999999));
#271=IFCCARTESIANPOINT((0.050000000000000003,0.13500000000000001));
#272=IFCCARTESIANPOINT((0.048400000000000006,0.13500000000000001));
#273=IFCCARTESIANPOINT((0.048400000000000006,0.1484));
#274=IFCCARTESIANPOINT((0.0016000000000000001,0.1484));
#275=IFCCARTESIANPOINT((0.0016000000000000001,0.0016000000000000001));
#276=IFCCARTESIANPOINT((0.048400000000000006,0.0016000000000000001));
#277=IFCCARTESIANPOINT((0.048400000000000006,0.014999999999999999));
#278=IFCCARTESIANPOINT((0.050000000000000003,0.014999999999999999));
#279=IFCCARTESIANPOINT((0.050000000000000003,0.));
#280=IFCCARTESIANPOINT((0.,0.));
#281=IFCPOLYLINE((#268,#269,#270,#271,#272,#273,#274,#275,#276,#277,#278,#279,#280));
#282=IFCARBITRARYCLOSEDPROFILEDEF(.AREA.,$,#281);
#283=IFCCARTESIANPOINT((0.14999999999999999,1.175,0.0016000000000000001));
#284=IFCDIRECTION((0.,0.,1.));
#285=IFCDIRECTION((0.,1.,0.));
#286=IFCAXIS2PLACEMENT3D(#283,#284,#285);
#287=IFCDIRECTION((0.,0.,1.));
#288=IFCEXTRUDEDAREASOLID(#282,#286,#287,2.6968000000000001);
#289=IFCSHAPEREPRESENTATION(#14,'Body','SweptSolid',(#288));
#290=IFCPRODUCTDEFINITIONSHAPE($,$,(#289));
#296=IFCOWNERHISTORY(#3,#4,.READWRITE.,.ADDED.,1781040700,#3,#4,1781040700);
#297=IFCRELAGGREGATES('0U12IjNXH0qP2UVHm7FLmz',#296,$,$,#29,(#267,#125,#155,#237,#211,#95,#185,#69,#43));
#298=IFCCARTESIANPOINT((0.,0.,0.));
#299=IFCDIRECTION((0.,0.,1.));
#300=IFCDIRECTION((1.,0.,0.));
#301=IFCAXIS2PLACEMENT3D(#298,#299,#300);
#302=IFCLOCALPLACEMENT(#41,#301);
#303=IFCCARTESIANPOINT((0.,0.,0.));
#304=IFCDIRECTION((0.,0.,1.));
#305=IFCDIRECTION((1.,0.,0.));
#306=IFCAXIS2PLACEMENT3D(#303,#304,#305);
#307=IFCLOCALPLACEMENT(#41,#306);
#308=IFCCARTESIANPOINT((0.,0.,0.));
#309=IFCDIRECTION((0.,0.,1.));
#310=IFCDIRECTION((1.,0.,0.));
#311=IFCAXIS2PLACEMENT3D(#308,#309,#310);
#312=IFCLOCALPLACEMENT(#41,#311);
#313=IFCCARTESIANPOINT((0.,0.,0.));
#314=IFCDIRECTION((0.,0.,1.));
#315=IFCDIRECTION((1.,0.,0.));
#316=IFCAXIS2PLACEMENT3D(#313,#314,#315);
#317=IFCLOCALPLACEMENT(#41,#316);
#318=IFCCARTESIANPOINT((0.,0.,0.));
#319=IFCDIRECTION((0.,0.,1.));
#320=IFCDIRECTION((1.,0.,0.));
#321=IFCAXIS2PLACEMENT3D(#318,#319,#320);
#322=IFCLOCALPLACEMENT(#41,#321);
#323=IFCCARTESIANPOINT((0.,0.,0.));
#324=IFCDIRECTION((0.,0.,1.));
#325=IFCDIRECTION((1.,0.,0.));
#326=IFCAXIS2PLACEMENT3D(#323,#324,#325);
#327=IFCLOCALPLACEMENT(#41,#326);
#328=IFCCARTESIANPOINT((0.,0.,0.));
#329=IFCDIRECTION((0.,0.,1.));
#330=IFCDIRECTION((1.,0.,0.));
#331=IFCAXIS2PLACEMENT3D(#328,#329,#330);
#332=IFCLOCALPLACEMENT(#41,#331);
#333=IFCCARTESIANPOINT((0.,0.,0.));
#334=IFCDIRECTION((0.,0.,1.));
#335=IFCDIRECTION((1.,0.,0.));
#336=IFCAXIS2PLACEMENT3D(#333,#334,#335);
#337=IFCLOCALPLACEMENT(#41,#336);
#338=IFCCARTESIANPOINT((0.,0.,0.));
#339=IFCDIRECTION((0.,0.,1.));
#340=IFCDIRECTION((1.,0.,0.));
#341=IFCAXIS2PLACEMENT3D(#338,#339,#340);
#342=IFCLOCALPLACEMENT(#41,#341);
#343=IFCOWNERHISTORY(#3,#4,.READWRITE.,.ADDED.,1781040700,#3,#4,1781040700);
#344=IFCRELASSOCIATESMATERIAL('0SQYveQM1BrRmBBB9rvnUI',#343,$,$,(#267,#125,#155,#237,#211,#95,#185,#69,#43),#27);
#345=IFCOWNERHISTORY(#3,#4,.READWRITE.,.ADDED.,1781040700,#3,#4,1781040700);
#346=IFCPROPERTYSET('3pugqXIZ97bQGVj1l1p7wT',#345,'Pset_LGS_Panel',$,(#349,#350,#351,#352,#353,#354,#355,#356,#357,#358));
#347=IFCOWNERHISTORY(#3,#4,.READWRITE.,.ADDED.,1781040700,#3,#4,1781040700);
#348=IFCRELDEFINESBYPROPERTIES('2WKqZQg7fF_ONSrqAqv6__',#347,$,$,(#29),#346);
#349=IFCPROPERTYSINGLEVALUE('StudSection',$,IFCLABEL('C150x50x16 1.6mm'),$);
#350=IFCPROPERTYSINGLEVALUE('TrackSection',$,IFCLABEL('U152x40 1.6mm'),$);
#351=IFCPROPERTYSINGLEVALUE('StudSpacing_mm',$,IFCINTEGER(600),$);
#352=IFCPROPERTYSINGLEVALUE('LoadBearing',$,IFCBOOLEAN(.T.),$);
#353=IFCPROPERTYSINGLEVALUE('IsExternal',$,IFCBOOLEAN(.T.),$);
#354=IFCPROPERTYSINGLEVALUE('FireRating',$,IFCLABEL('REI 60'),$);
#355=IFCPROPERTYSINGLEVALUE('MemberCount',$,IFCINTEGER(9),$);
#356=IFCPROPERTYSINGLEVALUE('PanelLength_m',$,IFCREAL(1.2),$);
#357=IFCPROPERTYSINGLEVALUE('PanelHeight_m',$,IFCREAL(2.7000000000000002),$);
#358=IFCPROPERTYSINGLEVALUE('PanelThickness_m',$,IFCREAL(0.14999999999999999),$);
ENDSEC;
END-ISO-10303-21;
