ISO-10303-21;
HEADER;
FILE_DESCRIPTION(('ViewDefinition[DesignTransferView]'),'2;1');
FILE_NAME('/dev/null','2026-06-10T21:18:51+00:00',(''),(''),'IfcOpenShell 0.8.5','IfcOpenShell 0.8.5','Nobody');
FILE_SCHEMA(('IFC4'));
ENDSEC;
DATA;
#1=IFCPERSON($,'Martinez Rodriguez','Pablo',$,$,$,$,$);
#2=IFCORGANIZATION($,'Northumbria University',$,$,$);
#3=IFCPERSONANDORGANIZATION(#1,#2,$);
#4=IFCAPPLICATION(#2,'0.8','LGS Panel Generator','LGSGEN');
#5=IFCOWNERHISTORY(#3,#4,.READWRITE.,.ADDED.,1781126331,#3,#4,1781126331);
#6=IFCPROJECT('0lyudcYDzCnPyAv$TxflUL',#5,'LGS Panel Library',$,$,$,$,(#13),#8);
#7=IFCSIUNIT(*,.LENGTHUNIT.,$,.METRE.);
#8=IFCUNITASSIGNMENT((#7));
#9=IFCCARTESIANPOINT((0.,0.,0.));
#10=IFCDIRECTION((0.,0.,1.));
#11=IFCDIRECTION((1.,0.,0.));
#12=IFCAXIS2PLACEMENT3D(#9,#10,#11);
#13=IFCGEOMETRICREPRESENTATIONCONTEXT($,'Model',3,1.0000000000000001E-05,#12,$);
#14=IFCGEOMETRICREPRESENTATIONSUBCONTEXT('Body','Model',*,*,*,*,#13,$,.MODEL_VIEW.,$);
#15=IFCOWNERHISTORY(#3,#4,.READWRITE.,.ADDED.,1781126331,#3,#4,1781126331);
#16=IFCSITE('3LnUcS2yH8Mgw8N$1YowPk',#15,'Site',$,$,$,$,$,$,$,$,$,$,$);
#17=IFCOWNERHISTORY(#3,#4,.READWRITE.,.ADDED.,1781126331,#3,#4,1781126331);
#18=IFCBUILDING('1n_r9wsX5BCwo0UwRA9$Zv',#17,'Manufacturing Reference',$,$,$,$,$,$,$,$,$);
#19=IFCOWNERHISTORY(#3,#4,.READWRITE.,.ADDED.,1781126331,#3,#4,1781126331);
#20=IFCBUILDINGSTOREY('2UvTLp_Gr5uuWUZxopApvU',#19,'Level',$,$,$,$,$,$,$);
#21=IFCOWNERHISTORY(#3,#4,.READWRITE.,.ADDED.,1781126331,#3,#4,1781126331);
#22=IFCRELAGGREGATES('27d2A6tPzEzejn8PGSnAPN',#21,$,$,#6,(#16));
#23=IFCOWNERHISTORY(#3,#4,.READWRITE.,.ADDED.,1781126331,#3,#4,1781126331);
#24=IFCRELAGGREGATES('075hiQOPnEOwS6zRibkkKy',#23,$,$,#16,(#18));
#25=IFCOWNERHISTORY(#3,#4,.READWRITE.,.ADDED.,1781126331,#3,#4,1781126331);
#26=IFCRELAGGREGATES('27699deuL4E8$ZwyyOofv3',#25,$,$,#18,(#20));
#27=IFCMATERIAL('Light Gauge Steel S350GD+Z',$,$);
#28=IFCOWNERHISTORY(#3,#4,.READWRITE.,.MODIFIED.,1781126331,#3,#4,1781126331);
#29=IFCELEMENTASSEMBLY('0GW0K6Djv79glxiJUkiEHZ',#28,'Deep-Joist Load-Bearing Beam Panel',$,$,#41,$,$,$,$);
#35=IFCOWNERHISTORY(#3,#4,.READWRITE.,.ADDED.,1781126331,#3,#4,1781126331);
#36=IFCRELCONTAINEDINSPATIALSTRUCTURE('2JZ3PPXbrEh8ImOsoF4QsB',#35,$,$,(#29),#20);
#37=IFCCARTESIANPOINT((0.,0.,0.));
#38=IFCDIRECTION((0.,0.,1.));
#39=IFCDIRECTION((1.,0.,0.));
#40=IFCAXIS2PLACEMENT3D(#37,#38,#39);
#41=IFCLOCALPLACEMENT($,#40);
#42=IFCOWNERHISTORY(#3,#4,.READWRITE.,.MODIFIED.,1781126331,#3,#4,1781126331);
#43=IFCBEAM('31DgdCc9194uPquNBRq1AX',#42,'C300x90x25 2.5mm (beam web 1)',$,$,#230,#66,$,.BEAM.);
#44=IFCCARTESIANPOINT((0.,0.));
#45=IFCCARTESIANPOINT((0.,0.29999999999999999));
#46=IFCCARTESIANPOINT((0.089999999999999997,0.29999999999999999));
#47=IFCCARTESIANPOINT((0.089999999999999997,0.27499999999999997));
#48=IFCCARTESIANPOINT((0.087499999999999994,0.27499999999999997));
#49=IFCCARTESIANPOINT((0.087499999999999994,0.29749999999999999));
#50=IFCCARTESIANPOINT((0.0025000000000000001,0.29749999999999999));
#51=IFCCARTESIANPOINT((0.0025000000000000001,0.0025000000000000001));
#52=IFCCARTESIANPOINT((0.087499999999999994,0.0025000000000000001));
#53=IFCCARTESIANPOINT((0.087499999999999994,0.025000000000000001));
#54=IFCCARTESIANPOINT((0.089999999999999997,0.025000000000000001));
#55=IFCCARTESIANPOINT((0.089999999999999997,0.));
#56=IFCCARTESIANPOINT((0.,0.));
#57=IFCPOLYLINE((#44,#45,#46,#47,#48,#49,#50,#51,#52,#53,#54,#55,#56));
#58=IFCARBITRARYCLOSEDPROFILEDEF(.AREA.,$,#57);
#59=IFCCARTESIANPOINT((0.,0.91000000000000003,0.));
#60=IFCDIRECTION((1.,0.,0.));
#61=IFCDIRECTION((0.,1.,0.));
#62=IFCAXIS2PLACEMENT3D(#59,#60,#61);
#63=IFCDIRECTION((0.,0.,1.));
#64=IFCEXTRUDEDAREASOLID(#58,#62,#63,4.);
#65=IFCSHAPEREPRESENTATION(#14,'Body','SweptSolid',(#64));
#66=IFCPRODUCTDEFINITIONSHAPE($,$,(#65));
#72=IFCOWNERHISTORY(#3,#4,.READWRITE.,.MODIFIED.,1781126331,#3,#4,1781126331);
#73=IFCBEAM('1kbCQMLRz0XfUCWJOIghf$',#72,'C300x90x25 2.5mm (beam web 2)',$,$,#220,#96,$,.BEAM.);
#74=IFCCARTESIANPOINT((0.,0.));
#75=IFCCARTESIANPOINT((0.,0.29999999999999999));
#76=IFCCARTESIANPOINT((0.089999999999999997,0.29999999999999999));
#77=IFCCARTESIANPOINT((0.089999999999999997,0.27499999999999997));
#78=IFCCARTESIANPOINT((0.087499999999999994,0.27499999999999997));
#79=IFCCARTESIANPOINT((0.087499999999999994,0.29749999999999999));
#80=IFCCARTESIANPOINT((0.0025000000000000001,0.29749999999999999));
#81=IFCCARTESIANPOINT((0.0025000000000000001,0.0025000000000000001));
#82=IFCCARTESIANPOINT((0.087499999999999994,0.0025000000000000001));
#83=IFCCARTESIANPOINT((0.087499999999999994,0.025000000000000001));
#84=IFCCARTESIANPOINT((0.089999999999999997,0.025000000000000001));
#85=IFCCARTESIANPOINT((0.089999999999999997,0.));
#86=IFCCARTESIANPOINT((0.,0.));
#87=IFCPOLYLINE((#74,#75,#76,#77,#78,#79,#80,#81,#82,#83,#84,#85,#86));
#88=IFCARBITRARYCLOSEDPROFILEDEF(.AREA.,$,#87);
#89=IFCCARTESIANPOINT((0.,1.,0.));
#90=IFCDIRECTION((1.,0.,0.));
#91=IFCDIRECTION((0.,1.,0.));
#92=IFCAXIS2PLACEMENT3D(#89,#90,#91);
#93=IFCDIRECTION((0.,0.,1.));
#94=IFCEXTRUDEDAREASOLID(#88,#92,#93,4.);
#95=IFCSHAPEREPRESENTATION(#14,'Body','SweptSolid',(#94));
#96=IFCPRODUCTDEFINITIONSHAPE($,$,(#95));
#102=IFCOWNERHISTORY(#3,#4,.READWRITE.,.MODIFIED.,1781126331,#3,#4,1781126331);
#103=IFCMEMBER('10wUlX6EHAVwOm$_LpzJwn',#102,'U254x65 2.0mm (bearing)',$,$,#235,#122,$,.PLATE.);
#104=IFCCARTESIANPOINT((0.,0.));
#105=IFCCARTESIANPOINT((0.,0.25));
#106=IFCCARTESIANPOINT((0.065000000000000002,0.25));
#107=IFCCARTESIANPOINT((0.065000000000000002,0.248));
#108=IFCCARTESIANPOINT((0.002,0.248));
#109=IFCCARTESIANPOINT((0.002,0.002));
#110=IFCCARTESIANPOINT((0.065000000000000002,0.002));
#111=IFCCARTESIANPOINT((0.065000000000000002,0.));
#112=IFCCARTESIANPOINT((0.,0.));
#113=IFCPOLYLINE((#104,#105,#106,#107,#108,#109,#110,#111,#112));
#114=IFCARBITRARYCLOSEDPROFILEDEF(.AREA.,$,#113);
#115=IFCCARTESIANPOINT((0.,0.90000000000000002,0.29999999999999999));
#116=IFCDIRECTION((0.,1.,0.));
#117=IFCDIRECTION((1.,0.,0.));
#118=IFCAXIS2PLACEMENT3D(#115,#116,#117);
#119=IFCDIRECTION((0.,0.,1.));
#120=IFCEXTRUDEDAREASOLID(#114,#118,#119,0.20000000000000001);
#121=IFCSHAPEREPRESENTATION(#14,'Body','SweptSolid',(#120));
#122=IFCPRODUCTDEFINITIONSHAPE($,$,(#121));
#128=IFCOWNERHISTORY(#3,#4,.READWRITE.,.MODIFIED.,1781126331,#3,#4,1781126331);
#129=IFCMEMBER('2acifxt6jDbAWzQUXy5pls',#128,'U254x65 2.0mm (bearing)',$,$,#245,#148,$,.PLATE.);
#130=IFCCARTESIANPOINT((0.,0.));
#131=IFCCARTESIANPOINT((0.,0.25));
#132=IFCCARTESIANPOINT((0.065000000000000002,0.25));
#133=IFCCARTESIANPOINT((0.065000000000000002,0.248));
#134=IFCCARTESIANPOINT((0.002,0.248));
#135=IFCCARTESIANPOINT((0.002,0.002));
#136=IFCCARTESIANPOINT((0.065000000000000002,0.002));
#137=IFCCARTESIANPOINT((0.065000000000000002,0.));
#138=IFCCARTESIANPOINT((0.,0.));
#139=IFCPOLYLINE((#130,#131,#132,#133,#134,#135,#136,#137,#138));
#140=IFCARBITRARYCLOSEDPROFILEDEF(.AREA.,$,#139);
#141=IFCCARTESIANPOINT((4.,0.90000000000000002,0.));
#142=IFCDIRECTION((0.,1.,0.));
#143=IFCDIRECTION((-1.,0.,0.));
#144=IFCAXIS2PLACEMENT3D(#141,#142,#143);
#145=IFCDIRECTION((0.,0.,1.));
#146=IFCEXTRUDEDAREASOLID(#140,#144,#145,0.20000000000000001);
#147=IFCSHAPEREPRESENTATION(#14,'Body','SweptSolid',(#146));
#148=IFCPRODUCTDEFINITIONSHAPE($,$,(#147));
#154=IFCOWNERHISTORY(#3,#4,.READWRITE.,.MODIFIED.,1781126331,#3,#4,1781126331);
#155=IFCMEMBER('3xUwUpGOX09vcuXIdP74hZ',#154,'C200x65x18 1.6mm (stiffener)',$,$,#240,#178,$,.STUD.);
#156=IFCCARTESIANPOINT((0.,0.));
#157=IFCCARTESIANPOINT((0.,0.20000000000000001));
#158=IFCCARTESIANPOINT((0.065000000000000002,0.20000000000000001));
#159=IFCCARTESIANPOINT((0.065000000000000002,0.18200000000000002));
#160=IFCCARTESIANPOINT((0.063399999999999998,0.18200000000000002));
#161=IFCCARTESIANPOINT((0.063399999999999998,0.19840000000000002));
#162=IFCCARTESIANPOINT((0.0016000000000000001,0.19840000000000002));
#163=IFCCARTESIANPOINT((0.0016000000000000001,0.0016000000000000001));
#164=IFCCARTESIANPOINT((0.063399999999999998,0.0016000000000000001));
#165=IFCCARTESIANPOINT((0.063399999999999998,0.017999999999999999));
#166=IFCCARTESIANPOINT((0.065000000000000002,0.017999999999999999));
#167=IFCCARTESIANPOINT((0.065000000000000002,0.));
#168=IFCCARTESIANPOINT((0.,0.));
#169=IFCPOLYLINE((#156,#157,#158,#159,#160,#161,#162,#163,#164,#165,#166,#167,#168));
#170=IFCARBITRARYCLOSEDPROFILEDEF(.AREA.,$,#169);
#171=IFCCARTESIANPOINT((0.050000000000000003,0.96750000000000003,0.));
#172=IFCDIRECTION((0.,0.,1.));
#173=IFCDIRECTION((1.,0.,0.));
#174=IFCAXIS2PLACEMENT3D(#171,#172,#173);
#175=IFCDIRECTION((0.,0.,1.));
#176=IFCEXTRUDEDAREASOLID(#170,#174,#175,0.29999999999999999);
#177=IFCSHAPEREPRESENTATION(#14,'Body','SweptSolid',(#176));
#178=IFCPRODUCTDEFINITIONSHAPE($,$,(#177));
#184=IFCOWNERHISTORY(#3,#4,.READWRITE.,.MODIFIED.,1781126331,#3,#4,1781126331);
#185=IFCMEMBER('2KsJ4cTqb1jeARa0zXG_zq',#184,'C200x65x18 1.6mm (stiffener)',$,$,#225,#208,$,.STUD.);
#186=IFCCARTESIANPOINT((0.,0.));
#187=IFCCARTESIANPOINT((0.,0.20000000000000001));
#188=IFCCARTESIANPOINT((0.065000000000000002,0.20000000000000001));
#189=IFCCARTESIANPOINT((0.065000000000000002,0.18200000000000002));
#190=IFCCARTESIANPOINT((0.063399999999999998,0.18200000000000002));
#191=IFCCARTESIANPOINT((0.063399999999999998,0.19840000000000002));
#192=IFCCARTESIANPOINT((0.0016000000000000001,0.19840000000000002));
#193=IFCCARTESIANPOINT((0.0016000000000000001,0.0016000000000000001));
#194=IFCCARTESIANPOINT((0.063399999999999998,0.0016000000000000001));
#195=IFCCARTESIANPOINT((0.063399999999999998,0.017999999999999999));
#196=IFCCARTESIANPOINT((0.065000000000000002,0.017999999999999999));
#197=IFCCARTESIANPOINT((0.065000000000000002,0.));
#198=IFCCARTESIANPOINT((0.,0.));
#199=IFCPOLYLINE((#186,#187,#188,#189,#190,#191,#192,#193,#194,#195,#196,#197,#198));
#200=IFCARBITRARYCLOSEDPROFILEDEF(.AREA.,$,#199);
#201=IFCCARTESIANPOINT((3.9500000000000002,0.96750000000000003,0.));
#202=IFCDIRECTION((0.,0.,1.));
#203=IFCDIRECTION((1.,0.,0.));
#204=IFCAXIS2PLACEMENT3D(#201,#202,#203);
#205=IFCDIRECTION((0.,0.,1.));
#206=IFCEXTRUDEDAREASOLID(#200,#204,#205,0.29999999999999999);
#207=IFCSHAPEREPRESENTATION(#14,'Body','SweptSolid',(#206));
#208=IFCPRODUCTDEFINITIONSHAPE($,$,(#207));
#214=IFCOWNERHISTORY(#3,#4,.READWRITE.,.ADDED.,1781126331,#3,#4,1781126331);
#215=IFCRELAGGREGATES('1KBhVnpA16Xw0nN6YdKQXe',#214,$,$,#29,(#73,#185,#43,#103,#155,#129));
#216=IFCCARTESIANPOINT((0.,0.,0.));
#217=IFCDIRECTION((0.,0.,1.));
#218=IFCDIRECTION((1.,0.,0.));
#219=IFCAXIS2PLACEMENT3D(#216,#217,#218);
#220=IFCLOCALPLACEMENT(#41,#219);
#221=IFCCARTESIANPOINT((0.,0.,0.));
#222=IFCDIRECTION((0.,0.,1.));
#223=IFCDIRECTION((1.,0.,0.));
#224=IFCAXIS2PLACEMENT3D(#221,#222,#223);
#225=IFCLOCALPLACEMENT(#41,#224);
#226=IFCCARTESIANPOINT((0.,0.,0.));
#227=IFCDIRECTION((0.,0.,1.));
#228=IFCDIRECTION((1.,0.,0.));
#229=IFCAXIS2PLACEMENT3D(#226,#227,#228);
#230=IFCLOCALPLACEMENT(#41,#229);
#231=IFCCARTESIANPOINT((0.,0.,0.));
#232=IFCDIRECTION((0.,0.,1.));
#233=IFCDIRECTION((1.,0.,0.));
#234=IFCAXIS2PLACEMENT3D(#231,#232,#233);
#235=IFCLOCALPLACEMENT(#41,#234);
#236=IFCCARTESIANPOINT((0.,0.,0.));
#237=IFCDIRECTION((0.,0.,1.));
#238=IFCDIRECTION((1.,0.,0.));
#239=IFCAXIS2PLACEMENT3D(#236,#237,#238);
#240=IFCLOCALPLACEMENT(#41,#239);
#241=IFCCARTESIANPOINT((0.,0.,0.));
#242=IFCDIRECTION((0.,0.,1.));
#243=IFCDIRECTION((1.,0.,0.));
#244=IFCAXIS2PLACEMENT3D(#241,#242,#243);
#245=IFCLOCALPLACEMENT(#41,#244);
#246=IFCOWNERHISTORY(#3,#4,.READWRITE.,.ADDED.,1781126331,#3,#4,1781126331);
#247=IFCRELASSOCIATESMATERIAL('11axpW0pr3f9GmsdnxRU9m',#246,$,$,(#73,#185,#43,#103,#155,#129),#27);
#248=IFCOWNERHISTORY(#3,#4,.READWRITE.,.ADDED.,1781126331,#3,#4,1781126331);
#249=IFCPROPERTYSET('3w8SzR89j0QB2kDGA5_m6N',#248,'Pset_LGS_Panel',$,(#252,#253,#254,#255,#256,#257,#258));
#250=IFCOWNERHISTORY(#3,#4,.READWRITE.,.ADDED.,1781126331,#3,#4,1781126331);
#251=IFCRELDEFINESBYPROPERTIES('16ap$MerTEiBDHCp3HyO6E',#250,$,$,(#29),#249);
#252=IFCPROPERTYSINGLEVALUE('LoadBearing',$,IFCBOOLEAN(.T.),$);
#253=IFCPROPERTYSINGLEVALUE('IsExternal',$,IFCBOOLEAN(.F.),$);
#254=IFCPROPERTYSINGLEVALUE('StudSpacing_mm',$,IFCINTEGER(600),$);
#255=IFCPROPERTYSINGLEVALUE('MemberCount',$,IFCINTEGER(6),$);
#256=IFCPROPERTYSINGLEVALUE('Category',$,IFCLABEL('FLOOR'),$);
#257=IFCPROPERTYSINGLEVALUE('JoistSection',$,IFCLABEL('C300x90x25 2.5mm'),$);
#258=IFCPROPERTYSINGLEVALUE('TrackSection',$,IFCLABEL('U254x65 2.0mm'),$);
ENDSEC;
END-ISO-10303-21;
