ISO-10303-21;
HEADER;
FILE_DESCRIPTION(('ViewDefinition[DesignTransferView]'),'2;1');
FILE_NAME('/dev/null','2026-06-09T21:31:40+00:00',(''),(''),'IfcOpenShell 0.8.5','IfcOpenShell 0.8.5','Nobody');
FILE_SCHEMA(('IFC2X3'));
ENDSEC;
DATA;
#1=IFCPERSON($,'Martinez Rodriguez','Pablo',$,$,$,$,$);
#2=IFCORGANIZATION($,'Northumbria University',$,$,$);
#3=IFCPERSONANDORGANIZATION(#1,#2,$);
#4=IFCAPPLICATION(#2,'0.8','LGS Panel Generator','LGSGEN');
#5=IFCOWNERHISTORY(#3,#4,.READWRITE.,.ADDED.,1781040700,#3,#4,1781040700);
#6=IFCPROJECT('1utfNFuQTBAxkaNazAhltX',#5,'LGS Panel Library',$,$,$,$,(#13),#8);
#7=IFCSIUNIT(*,.LENGTHUNIT.,$,.METRE.);
#8=IFCUNITASSIGNMENT((#7));
#9=IFCCARTESIANPOINT((0.,0.,0.));
#10=IFCDIRECTION((0.,0.,1.));
#11=IFCDIRECTION((1.,0.,0.));
#12=IFCAXIS2PLACEMENT3D(#9,#10,#11);
#13=IFCGEOMETRICREPRESENTATIONCONTEXT($,'Model',3,1.0000000000000001E-05,#12,$);
#14=IFCGEOMETRICREPRESENTATIONSUBCONTEXT('Body','Model',*,*,*,*,#13,$,.MODEL_VIEW.,$);
#15=IFCOWNERHISTORY(#3,#4,.READWRITE.,.ADDED.,1781040700,#3,#4,1781040700);
#16=IFCSITE('3iNU9ACLv0o8JdCG3urRgl',#15,'Site',$,$,$,$,$,.ELEMENT.,$,$,$,$,$);
#17=IFCOWNERHISTORY(#3,#4,.READWRITE.,.ADDED.,1781040700,#3,#4,1781040700);
#18=IFCBUILDING('3Tx4f3v7fEo9jGdpjKLwDg',#17,'Manufacturing Reference',$,$,$,$,$,.ELEMENT.,$,$,$);
#19=IFCOWNERHISTORY(#3,#4,.READWRITE.,.ADDED.,1781040700,#3,#4,1781040700);
#20=IFCBUILDINGSTOREY('00E2Kicdr2$w339mHRKSUd',#19,'Ground Floor',$,$,$,$,$,.ELEMENT.,$);
#21=IFCOWNERHISTORY(#3,#4,.READWRITE.,.ADDED.,1781040700,#3,#4,1781040700);
#22=IFCRELAGGREGATES('1OzVEWWnnB5xm$9DDmnxuH',#21,$,$,#6,(#16));
#23=IFCOWNERHISTORY(#3,#4,.READWRITE.,.ADDED.,1781040700,#3,#4,1781040700);
#24=IFCRELAGGREGATES('0218zMPurD0QqLdqhuri9o',#23,$,$,#16,(#18));
#25=IFCOWNERHISTORY(#3,#4,.READWRITE.,.ADDED.,1781040700,#3,#4,1781040700);
#26=IFCRELAGGREGATES('0kmD3rw0b6beLu5NgLfDEH',#25,$,$,#18,(#20));
#27=IFCMATERIAL('Light Gauge Steel S350GD+Z');
#28=IFCOWNERHISTORY(#3,#4,.READWRITE.,.MODIFIED.,1781040700,#3,#4,1781040700);
#29=IFCELEMENTASSEMBLY('3btYopiCvEywog2i6L8Glb',#28,'Internal Partition Panel',$,$,#41,$,$,$,$);
#35=IFCOWNERHISTORY(#3,#4,.READWRITE.,.ADDED.,1781040700,#3,#4,1781040700);
#36=IFCRELCONTAINEDINSPATIALSTRUCTURE('1_zMrSnkn0hg4vgbWxqa88',#35,$,$,(#29),#20);
#37=IFCCARTESIANPOINT((0.,0.,0.));
#38=IFCDIRECTION((0.,0.,1.));
#39=IFCDIRECTION((1.,0.,0.));
#40=IFCAXIS2PLACEMENT3D(#37,#38,#39);
#41=IFCLOCALPLACEMENT($,#40);
#42=IFCOWNERHISTORY(#3,#4,.READWRITE.,.MODIFIED.,1781040700,#3,#4,1781040700);
#43=IFCMEMBER('1NlvJPrZjFLO70VBFhc18N',#42,'U94x34 1.0mm',$,$,#315,#62,$);
#44=IFCCARTESIANPOINT((0.,0.));
#45=IFCCARTESIANPOINT((0.,0.091999999999999998));
#46=IFCCARTESIANPOINT((0.034000000000000002,0.091999999999999998));
#47=IFCCARTESIANPOINT((0.034000000000000002,0.090999999999999998));
#48=IFCCARTESIANPOINT((0.001,0.090999999999999998));
#49=IFCCARTESIANPOINT((0.001,0.001));
#50=IFCCARTESIANPOINT((0.034000000000000002,0.001));
#51=IFCCARTESIANPOINT((0.034000000000000002,0.));
#52=IFCCARTESIANPOINT((0.,0.));
#53=IFCPOLYLINE((#44,#45,#46,#47,#48,#49,#50,#51,#52));
#54=IFCARBITRARYCLOSEDPROFILEDEF(.AREA.,$,#53);
#55=IFCCARTESIANPOINT((0.,0.091999999999999998,0.));
#56=IFCDIRECTION((1.,0.,0.));
#57=IFCDIRECTION((0.,0.,1.));
#58=IFCAXIS2PLACEMENT3D(#55,#56,#57);
#59=IFCDIRECTION((0.,0.,1.));
#60=IFCEXTRUDEDAREASOLID(#54,#58,#59,3.);
#61=IFCSHAPEREPRESENTATION(#14,'Body','SweptSolid',(#60));
#62=IFCPRODUCTDEFINITIONSHAPE($,$,(#61));
#68=IFCOWNERHISTORY(#3,#4,.READWRITE.,.MODIFIED.,1781040700,#3,#4,1781040700);
#69=IFCMEMBER('3KGZ$4r6bBhxB8VLvBWScF',#68,'U94x34 1.0mm',$,$,#310,#88,$);
#70=IFCCARTESIANPOINT((0.,0.));
#71=IFCCARTESIANPOINT((0.,0.091999999999999998));
#72=IFCCARTESIANPOINT((0.034000000000000002,0.091999999999999998));
#73=IFCCARTESIANPOINT((0.034000000000000002,0.090999999999999998));
#74=IFCCARTESIANPOINT((0.001,0.090999999999999998));
#75=IFCCARTESIANPOINT((0.001,0.001));
#76=IFCCARTESIANPOINT((0.034000000000000002,0.001));
#77=IFCCARTESIANPOINT((0.034000000000000002,0.));
#78=IFCCARTESIANPOINT((0.,0.));
#79=IFCPOLYLINE((#70,#71,#72,#73,#74,#75,#76,#77,#78));
#80=IFCARBITRARYCLOSEDPROFILEDEF(.AREA.,$,#79);
#81=IFCCARTESIANPOINT((0.,0.,2.7000000000000002));
#82=IFCDIRECTION((1.,0.,0.));
#83=IFCDIRECTION((0.,0.,-1.));
#84=IFCAXIS2PLACEMENT3D(#81,#82,#83);
#85=IFCDIRECTION((0.,0.,1.));
#86=IFCEXTRUDEDAREASOLID(#80,#84,#85,3.);
#87=IFCSHAPEREPRESENTATION(#14,'Body','SweptSolid',(#86));
#88=IFCPRODUCTDEFINITIONSHAPE($,$,(#87));
#94=IFCOWNERHISTORY(#3,#4,.READWRITE.,.MODIFIED.,1781040700,#3,#4,1781040700);
#95=IFCMEMBER('0KZT5Qynb1bvYD5Tvp5E0t',#94,'C92x41x12 1.0mm',$,$,#295,#118,$);
#96=IFCCARTESIANPOINT((0.,0.));
#97=IFCCARTESIANPOINT((0.,0.091999999999999998));
#98=IFCCARTESIANPOINT((0.041000000000000002,0.091999999999999998));
#99=IFCCARTESIANPOINT((0.041000000000000002,0.080000000000000002));
#100=IFCCARTESIANPOINT((0.040000000000000001,0.080000000000000002));
#101=IFCCARTESIANPOINT((0.040000000000000001,0.090999999999999998));
#102=IFCCARTESIANPOINT((0.001,0.090999999999999998));
#103=IFCCARTESIANPOINT((0.001,0.001));
#104=IFCCARTESIANPOINT((0.040000000000000001,0.001));
#105=IFCCARTESIANPOINT((0.040000000000000001,0.012));
#106=IFCCARTESIANPOINT((0.041000000000000002,0.012));
#107=IFCCARTESIANPOINT((0.041000000000000002,0.));
#108=IFCCARTESIANPOINT((0.,0.));
#109=IFCPOLYLINE((#96,#97,#98,#99,#100,#101,#102,#103,#104,#105,#106,#107,#108));
#110=IFCARBITRARYCLOSEDPROFILEDEF(.AREA.,$,#109);
#111=IFCCARTESIANPOINT((-0.020500000000000001,0.,0.001));
#112=IFCDIRECTION((0.,0.,1.));
#113=IFCDIRECTION((1.,0.,0.));
#114=IFCAXIS2PLACEMENT3D(#111,#112,#113);
#115=IFCDIRECTION((0.,0.,1.));
#116=IFCEXTRUDEDAREASOLID(#110,#114,#115,2.6980000000000004);
#117=IFCSHAPEREPRESENTATION(#14,'Body','SweptSolid',(#116));
#118=IFCPRODUCTDEFINITIONSHAPE($,$,(#117));
#124=IFCOWNERHISTORY(#3,#4,.READWRITE.,.MODIFIED.,1781040700,#3,#4,1781040700);
#125=IFCMEMBER('1o37JfMuz8UfSesTcZo_L8',#124,'C92x41x12 1.0mm',$,$,#280,#148,$);
#126=IFCCARTESIANPOINT((0.,0.));
#127=IFCCARTESIANPOINT((0.,0.091999999999999998));
#128=IFCCARTESIANPOINT((0.041000000000000002,0.091999999999999998));
#129=IFCCARTESIANPOINT((0.041000000000000002,0.080000000000000002));
#130=IFCCARTESIANPOINT((0.040000000000000001,0.080000000000000002));
#131=IFCCARTESIANPOINT((0.040000000000000001,0.090999999999999998));
#132=IFCCARTESIANPOINT((0.001,0.090999999999999998));
#133=IFCCARTESIANPOINT((0.001,0.001));
#134=IFCCARTESIANPOINT((0.040000000000000001,0.001));
#135=IFCCARTESIANPOINT((0.040000000000000001,0.012));
#136=IFCCARTESIANPOINT((0.041000000000000002,0.012));
#137=IFCCARTESIANPOINT((0.041000000000000002,0.));
#138=IFCCARTESIANPOINT((0.,0.));
#139=IFCPOLYLINE((#126,#127,#128,#129,#130,#131,#132,#133,#134,#135,#136,#137,#138));
#140=IFCARBITRARYCLOSEDPROFILEDEF(.AREA.,$,#139);
#141=IFCCARTESIANPOINT((0.57950000000000002,0.,0.001));
#142=IFCDIRECTION((0.,0.,1.));
#143=IFCDIRECTION((1.,0.,0.));
#144=IFCAXIS2PLACEMENT3D(#141,#142,#143);
#145=IFCDIRECTION((0.,0.,1.));
#146=IFCEXTRUDEDAREASOLID(#140,#144,#145,2.6980000000000004);
#147=IFCSHAPEREPRESENTATION(#14,'Body','SweptSolid',(#146));
#148=IFCPRODUCTDEFINITIONSHAPE($,$,(#147));
#154=IFCOWNERHISTORY(#3,#4,.READWRITE.,.MODIFIED.,1781040700,#3,#4,1781040700);
#155=IFCMEMBER('21EAh6qoT8aQuHINmISUWh',#154,'C92x41x12 1.0mm',$,$,#285,#178,$);
#156=IFCCARTESIANPOINT((0.,0.));
#157=IFCCARTESIANPOINT((0.,0.091999999999999998));
#158=IFCCARTESIANPOINT((0.041000000000000002,0.091999999999999998));
#159=IFCCARTESIANPOINT((0.041000000000000002,0.080000000000000002));
#160=IFCCARTESIANPOINT((0.040000000000000001,0.080000000000000002));
#161=IFCCARTESIANPOINT((0.040000000000000001,0.090999999999999998));
#162=IFCCARTESIANPOINT((0.001,0.090999999999999998));
#163=IFCCARTESIANPOINT((0.001,0.001));
#164=IFCCARTESIANPOINT((0.040000000000000001,0.001));
#165=IFCCARTESIANPOINT((0.040000000000000001,0.012));
#166=IFCCARTESIANPOINT((0.041000000000000002,0.012));
#167=IFCCARTESIANPOINT((0.041000000000000002,0.));
#168=IFCCARTESIANPOINT((0.,0.));
#169=IFCPOLYLINE((#156,#157,#158,#159,#160,#161,#162,#163,#164,#165,#166,#167,#168));
#170=IFCARBITRARYCLOSEDPROFILEDEF(.AREA.,$,#169);
#171=IFCCARTESIANPOINT((1.1795,0.,0.001));
#172=IFCDIRECTION((0.,0.,1.));
#173=IFCDIRECTION((1.,0.,0.));
#174=IFCAXIS2PLACEMENT3D(#171,#172,#173);
#175=IFCDIRECTION((0.,0.,1.));
#176=IFCEXTRUDEDAREASOLID(#170,#174,#175,2.6980000000000004);
#177=IFCSHAPEREPRESENTATION(#14,'Body','SweptSolid',(#176));
#178=IFCPRODUCTDEFINITIONSHAPE($,$,(#177));
#184=IFCOWNERHISTORY(#3,#4,.READWRITE.,.MODIFIED.,1781040700,#3,#4,1781040700);
#185=IFCMEMBER('3QSo7WI258iu0KlKpAn8Iu',#184,'C92x41x12 1.0mm',$,$,#300,#208,$);
#186=IFCCARTESIANPOINT((0.,0.));
#187=IFCCARTESIANPOINT((0.,0.091999999999999998));
#188=IFCCARTESIANPOINT((0.041000000000000002,0.091999999999999998));
#189=IFCCARTESIANPOINT((0.041000000000000002,0.080000000000000002));
#190=IFCCARTESIANPOINT((0.040000000000000001,0.080000000000000002));
#191=IFCCARTESIANPOINT((0.040000000000000001,0.090999999999999998));
#192=IFCCARTESIANPOINT((0.001,0.090999999999999998));
#193=IFCCARTESIANPOINT((0.001,0.001));
#194=IFCCARTESIANPOINT((0.040000000000000001,0.001));
#195=IFCCARTESIANPOINT((0.040000000000000001,0.012));
#196=IFCCARTESIANPOINT((0.041000000000000002,0.012));
#197=IFCCARTESIANPOINT((0.041000000000000002,0.));
#198=IFCCARTESIANPOINT((0.,0.));
#199=IFCPOLYLINE((#186,#187,#188,#189,#190,#191,#192,#193,#194,#195,#196,#197,#198));
#200=IFCARBITRARYCLOSEDPROFILEDEF(.AREA.,$,#199);
#201=IFCCARTESIANPOINT((1.7795000000000001,0.,0.001));
#202=IFCDIRECTION((0.,0.,1.));
#203=IFCDIRECTION((1.,0.,0.));
#204=IFCAXIS2PLACEMENT3D(#201,#202,#203);
#205=IFCDIRECTION((0.,0.,1.));
#206=IFCEXTRUDEDAREASOLID(#200,#204,#205,2.6980000000000004);
#207=IFCSHAPEREPRESENTATION(#14,'Body','SweptSolid',(#206));
#208=IFCPRODUCTDEFINITIONSHAPE($,$,(#207));
#214=IFCOWNERHISTORY(#3,#4,.READWRITE.,.MODIFIED.,1781040700,#3,#4,1781040700);
#215=IFCMEMBER('1Pnw3_Z6L0OfXWBeLAYjs7',#214,'C92x41x12 1.0mm',$,$,#290,#238,$);
#216=IFCCARTESIANPOINT((0.,0.));
#217=IFCCARTESIANPOINT((0.,0.091999999999999998));
#218=IFCCARTESIANPOINT((0.041000000000000002,0.091999999999999998));
#219=IFCCARTESIANPOINT((0.041000000000000002,0.080000000000000002));
#220=IFCCARTESIANPOINT((0.040000000000000001,0.080000000000000002));
#221=IFCCARTESIANPOINT((0.040000000000000001,0.090999999999999998));
#222=IFCCARTESIANPOINT((0.001,0.090999999999999998));
#223=IFCCARTESIANPOINT((0.001,0.001));
#224=IFCCARTESIANPOINT((0.040000000000000001,0.001));
#225=IFCCARTESIANPOINT((0.040000000000000001,0.012));
#226=IFCCARTESIANPOINT((0.041000000000000002,0.012));
#227=IFCCARTESIANPOINT((0.041000000000000002,0.));
#228=IFCCARTESIANPOINT((0.,0.));
#229=IFCPOLYLINE((#216,#217,#218,#219,#220,#221,#222,#223,#224,#225,#226,#227,#228));
#230=IFCARBITRARYCLOSEDPROFILEDEF(.AREA.,$,#229);
#231=IFCCARTESIANPOINT((2.3794999999999997,0.,0.001));
#232=IFCDIRECTION((0.,0.,1.));
#233=IFCDIRECTION((1.,0.,0.));
#234=IFCAXIS2PLACEMENT3D(#231,#232,#233);
#235=IFCDIRECTION((0.,0.,1.));
#236=IFCEXTRUDEDAREASOLID(#230,#234,#235,2.6980000000000004);
#237=IFCSHAPEREPRESENTATION(#14,'Body','SweptSolid',(#236));
#238=IFCPRODUCTDEFINITIONSHAPE($,$,(#237));
#244=IFCOWNERHISTORY(#3,#4,.READWRITE.,.MODIFIED.,1781040700,#3,#4,1781040700);
#245=IFCMEMBER('2LRN2puuLE9AROtxCPcmQh',#244,'C92x41x12 1.0mm',$,$,#305,#268,$);
#246=IFCCARTESIANPOINT((0.,0.));
#247=IFCCARTESIANPOINT((0.,0.091999999999999998));
#248=IFCCARTESIANPOINT((0.041000000000000002,0.091999999999999998));
#249=IFCCARTESIANPOINT((0.041000000000000002,0.080000000000000002));
#250=IFCCARTESIANPOINT((0.040000000000000001,0.080000000000000002));
#251=IFCCARTESIANPOINT((0.040000000000000001,0.090999999999999998));
#252=IFCCARTESIANPOINT((0.001,0.090999999999999998));
#253=IFCCARTESIANPOINT((0.001,0.001));
#254=IFCCARTESIANPOINT((0.040000000000000001,0.001));
#255=IFCCARTESIANPOINT((0.040000000000000001,0.012));
#256=IFCCARTESIANPOINT((0.041000000000000002,0.012));
#257=IFCCARTESIANPOINT((0.041000000000000002,0.));
#258=IFCCARTESIANPOINT((0.,0.));
#259=IFCPOLYLINE((#246,#247,#248,#249,#250,#251,#252,#253,#254,#255,#256,#257,#258));
#260=IFCARBITRARYCLOSEDPROFILEDEF(.AREA.,$,#259);
#261=IFCCARTESIANPOINT((2.9794999999999998,0.,0.001));
#262=IFCDIRECTION((0.,0.,1.));
#263=IFCDIRECTION((1.,0.,0.));
#264=IFCAXIS2PLACEMENT3D(#261,#262,#263);
#265=IFCDIRECTION((0.,0.,1.));
#266=IFCEXTRUDEDAREASOLID(#260,#264,#265,2.6980000000000004);
#267=IFCSHAPEREPRESENTATION(#14,'Body','SweptSolid',(#266));
#268=IFCPRODUCTDEFINITIONSHAPE($,$,(#267));
#274=IFCOWNERHISTORY(#3,#4,.READWRITE.,.ADDED.,1781040700,#3,#4,1781040700);
#275=IFCRELAGGREGATES('103hT9ZYP1xvQQPqUxKEdl',#274,$,$,#29,(#125,#155,#215,#95,#185,#245,#69,#43));
#276=IFCCARTESIANPOINT((0.,0.,0.));
#277=IFCDIRECTION((0.,0.,1.));
#278=IFCDIRECTION((1.,0.,0.));
#279=IFCAXIS2PLACEMENT3D(#276,#277,#278);
#280=IFCLOCALPLACEMENT(#41,#279);
#281=IFCCARTESIANPOINT((0.,0.,0.));
#282=IFCDIRECTION((0.,0.,1.));
#283=IFCDIRECTION((1.,0.,0.));
#284=IFCAXIS2PLACEMENT3D(#281,#282,#283);
#285=IFCLOCALPLACEMENT(#41,#284);
#286=IFCCARTESIANPOINT((0.,0.,0.));
#287=IFCDIRECTION((0.,0.,1.));
#288=IFCDIRECTION((1.,0.,0.));
#289=IFCAXIS2PLACEMENT3D(#286,#287,#288);
#290=IFCLOCALPLACEMENT(#41,#289);
#291=IFCCARTESIANPOINT((0.,0.,0.));
#292=IFCDIRECTION((0.,0.,1.));
#293=IFCDIRECTION((1.,0.,0.));
#294=IFCAXIS2PLACEMENT3D(#291,#292,#293);
#295=IFCLOCALPLACEMENT(#41,#294);
#296=IFCCARTESIANPOINT((0.,0.,0.));
#297=IFCDIRECTION((0.,0.,1.));
#298=IFCDIRECTION((1.,0.,0.));
#299=IFCAXIS2PLACEMENT3D(#296,#297,#298);
#300=IFCLOCALPLACEMENT(#41,#299);
#301=IFCCARTESIANPOINT((0.,0.,0.));
#302=IFCDIRECTION((0.,0.,1.));
#303=IFCDIRECTION((1.,0.,0.));
#304=IFCAXIS2PLACEMENT3D(#301,#302,#303);
#305=IFCLOCALPLACEMENT(#41,#304);
#306=IFCCARTESIANPOINT((0.,0.,0.));
#307=IFCDIRECTION((0.,0.,1.));
#308=IFCDIRECTION((1.,0.,0.));
#309=IFCAXIS2PLACEMENT3D(#306,#307,#308);
#310=IFCLOCALPLACEMENT(#41,#309);
#311=IFCCARTESIANPOINT((0.,0.,0.));
#312=IFCDIRECTION((0.,0.,1.));
#313=IFCDIRECTION((1.,0.,0.));
#314=IFCAXIS2PLACEMENT3D(#311,#312,#313);
#315=IFCLOCALPLACEMENT(#41,#314);
#316=IFCOWNERHISTORY(#3,#4,.READWRITE.,.ADDED.,1781040700,#3,#4,1781040700);
#317=IFCRELASSOCIATESMATERIAL('2eSD8$pYPE3vsTdvb6_sG2',#316,$,$,(#125,#155,#215,#95,#185,#245,#69,#43),#27);
#318=IFCOWNERHISTORY(#3,#4,.READWRITE.,.ADDED.,1781040700,#3,#4,1781040700);
#319=IFCPROPERTYSET('067uhvqRn8Ku6OabLdfLko',#318,'Pset_LGS_Panel',$,(#322,#323,#324,#325,#326,#327,#328,#329,#330,#331));
#320=IFCOWNERHISTORY(#3,#4,.READWRITE.,.ADDED.,1781040700,#3,#4,1781040700);
#321=IFCRELDEFINESBYPROPERTIES('3Uqq$o7l90PgAwMSHQDWsE',#320,$,$,(#29),#319);
#322=IFCPROPERTYSINGLEVALUE('StudSection',$,IFCLABEL('C92x41x12 1.0mm'),$);
#323=IFCPROPERTYSINGLEVALUE('TrackSection',$,IFCLABEL('U94x34 1.0mm'),$);
#324=IFCPROPERTYSINGLEVALUE('StudSpacing_mm',$,IFCINTEGER(600),$);
#325=IFCPROPERTYSINGLEVALUE('LoadBearing',$,IFCBOOLEAN(.F.),$);
#326=IFCPROPERTYSINGLEVALUE('IsExternal',$,IFCBOOLEAN(.F.),$);
#327=IFCPROPERTYSINGLEVALUE('FireRating',$,IFCLABEL('EI 30'),$);
#328=IFCPROPERTYSINGLEVALUE('MemberCount',$,IFCINTEGER(8),$);
#329=IFCPROPERTYSINGLEVALUE('PanelLength_m',$,IFCREAL(3.),$);
#330=IFCPROPERTYSINGLEVALUE('PanelHeight_m',$,IFCREAL(2.7000000000000002),$);
#331=IFCPROPERTYSINGLEVALUE('PanelThickness_m',$,IFCREAL(0.091999999999999998),$);
ENDSEC;
END-ISO-10303-21;
