ISO-10303-21;
HEADER;
FILE_DESCRIPTION(('ViewDefinition[DesignTransferView]'),'2;1');
FILE_NAME('/dev/null','2026-06-10T21:18:51+00:00',(''),(''),'IfcOpenShell 0.8.5','IfcOpenShell 0.8.5','Nobody');
FILE_SCHEMA(('IFC4'));
ENDSEC;
DATA;
#1=IFCPERSON($,'Martinez Rodriguez','Pablo',$,$,$,$,$);
#2=IFCORGANIZATION($,'Northumbria University',$,$,$);
#3=IFCPERSONANDORGANIZATION(#1,#2,$);
#4=IFCAPPLICATION(#2,'0.8','LGS Panel Generator','LGSGEN');
#5=IFCOWNERHISTORY(#3,#4,.READWRITE.,.ADDED.,1781126331,#3,#4,1781126331);
#6=IFCPROJECT('0IfYVSgBD4shsG3tqtCtix',#5,'LGS Panel Library',$,$,$,$,(#13),#8);
#7=IFCSIUNIT(*,.LENGTHUNIT.,$,.METRE.);
#8=IFCUNITASSIGNMENT((#7));
#9=IFCCARTESIANPOINT((0.,0.,0.));
#10=IFCDIRECTION((0.,0.,1.));
#11=IFCDIRECTION((1.,0.,0.));
#12=IFCAXIS2PLACEMENT3D(#9,#10,#11);
#13=IFCGEOMETRICREPRESENTATIONCONTEXT($,'Model',3,1.0000000000000001E-05,#12,$);
#14=IFCGEOMETRICREPRESENTATIONSUBCONTEXT('Body','Model',*,*,*,*,#13,$,.MODEL_VIEW.,$);
#15=IFCOWNERHISTORY(#3,#4,.READWRITE.,.ADDED.,1781126331,#3,#4,1781126331);
#16=IFCSITE('2gYsJR_Jr9kuj$f37PMqrY',#15,'Site',$,$,$,$,$,$,$,$,$,$,$);
#17=IFCOWNERHISTORY(#3,#4,.READWRITE.,.ADDED.,1781126331,#3,#4,1781126331);
#18=IFCBUILDING('2CnpmD_1nEPu8_eIuJURa0',#17,'Manufacturing Reference',$,$,$,$,$,$,$,$,$);
#19=IFCOWNERHISTORY(#3,#4,.READWRITE.,.ADDED.,1781126331,#3,#4,1781126331);
#20=IFCBUILDINGSTOREY('1piUEUOUb98RDwCLDanmeX',#19,'Level',$,$,$,$,$,$,$);
#21=IFCOWNERHISTORY(#3,#4,.READWRITE.,.ADDED.,1781126331,#3,#4,1781126331);
#22=IFCRELAGGREGATES('12D04_HFf3lxQr9t_GaoMD',#21,$,$,#6,(#16));
#23=IFCOWNERHISTORY(#3,#4,.READWRITE.,.ADDED.,1781126331,#3,#4,1781126331);
#24=IFCRELAGGREGATES('0$DL0H4cX8eBlu7A_WzGzW',#23,$,$,#16,(#18));
#25=IFCOWNERHISTORY(#3,#4,.READWRITE.,.ADDED.,1781126331,#3,#4,1781126331);
#26=IFCRELAGGREGATES('3XZaBDc$9C1x6i_oCGYCaN',#25,$,$,#18,(#20));
#27=IFCMATERIAL('Light Gauge Steel S350GD+Z',$,$);
#28=IFCOWNERHISTORY(#3,#4,.READWRITE.,.MODIFIED.,1781126331,#3,#4,1781126331);
#29=IFCELEMENTASSEMBLY('1eQCqCIxXDDvZW7_eHTxZ8',#28,'Flat Roof Joist Panel (warm deck)',$,$,#41,$,$,$,$);
#35=IFCOWNERHISTORY(#3,#4,.READWRITE.,.ADDED.,1781126331,#3,#4,1781126331);
#36=IFCRELCONTAINEDINSPATIALSTRUCTURE('2ift6ONXH1T9zKLiO6lfZ4',#35,$,$,(#29),#20);
#37=IFCCARTESIANPOINT((0.,0.,0.));
#38=IFCDIRECTION((0.,0.,1.));
#39=IFCDIRECTION((1.,0.,0.));
#40=IFCAXIS2PLACEMENT3D(#37,#38,#39);
#41=IFCLOCALPLACEMENT($,#40);
#42=IFCOWNERHISTORY(#3,#4,.READWRITE.,.MODIFIED.,1781126331,#3,#4,1781126331);
#43=IFCMEMBER('2D6VSgD2T0WPIEFSfzBUS3',#42,'U204x65 1.6mm (rim)',$,$,#350,#62,$,.PLATE.);
#44=IFCCARTESIANPOINT((0.,0.));
#45=IFCCARTESIANPOINT((0.,0.20000000000000001));
#46=IFCCARTESIANPOINT((0.065000000000000002,0.20000000000000001));
#47=IFCCARTESIANPOINT((0.065000000000000002,0.19840000000000002));
#48=IFCCARTESIANPOINT((0.0016000000000000001,0.19840000000000002));
#49=IFCCARTESIANPOINT((0.0016000000000000001,0.0016000000000000001));
#50=IFCCARTESIANPOINT((0.065000000000000002,0.0016000000000000001));
#51=IFCCARTESIANPOINT((0.065000000000000002,0.));
#52=IFCCARTESIANPOINT((0.,0.));
#53=IFCPOLYLINE((#44,#45,#46,#47,#48,#49,#50,#51,#52));
#54=IFCARBITRARYCLOSEDPROFILEDEF(.AREA.,$,#53);
#55=IFCCARTESIANPOINT((0.,0.,0.20000000000000001));
#56=IFCDIRECTION((0.,1.,0.));
#57=IFCDIRECTION((1.,0.,0.));
#58=IFCAXIS2PLACEMENT3D(#55,#56,#57);
#59=IFCDIRECTION((0.,0.,1.));
#60=IFCEXTRUDEDAREASOLID(#54,#58,#59,3.6000000000000001);
#61=IFCSHAPEREPRESENTATION(#14,'Body','SweptSolid',(#60));
#62=IFCPRODUCTDEFINITIONSHAPE($,$,(#61));
#68=IFCOWNERHISTORY(#3,#4,.READWRITE.,.MODIFIED.,1781126331,#3,#4,1781126331);
#69=IFCMEMBER('0xW5zuQJT7v9UEVzbUQxM9',#68,'U204x65 1.6mm (rim)',$,$,#340,#88,$,.PLATE.);
#70=IFCCARTESIANPOINT((0.,0.));
#71=IFCCARTESIANPOINT((0.,0.20000000000000001));
#72=IFCCARTESIANPOINT((0.065000000000000002,0.20000000000000001));
#73=IFCCARTESIANPOINT((0.065000000000000002,0.19840000000000002));
#74=IFCCARTESIANPOINT((0.0016000000000000001,0.19840000000000002));
#75=IFCCARTESIANPOINT((0.0016000000000000001,0.0016000000000000001));
#76=IFCCARTESIANPOINT((0.065000000000000002,0.0016000000000000001));
#77=IFCCARTESIANPOINT((0.065000000000000002,0.));
#78=IFCCARTESIANPOINT((0.,0.));
#79=IFCPOLYLINE((#70,#71,#72,#73,#74,#75,#76,#77,#78));
#80=IFCARBITRARYCLOSEDPROFILEDEF(.AREA.,$,#79);
#81=IFCCARTESIANPOINT((4.,0.,0.));
#82=IFCDIRECTION((0.,1.,0.));
#83=IFCDIRECTION((-1.,0.,0.));
#84=IFCAXIS2PLACEMENT3D(#81,#82,#83);
#85=IFCDIRECTION((0.,0.,1.));
#86=IFCEXTRUDEDAREASOLID(#80,#84,#85,3.6000000000000001);
#87=IFCSHAPEREPRESENTATION(#14,'Body','SweptSolid',(#86));
#88=IFCPRODUCTDEFINITIONSHAPE($,$,(#87));
#94=IFCOWNERHISTORY(#3,#4,.READWRITE.,.MODIFIED.,1781126331,#3,#4,1781126331);
#95=IFCBEAM('3WImLSEo93nB$h$ucBqzsg',#94,'C200x65x18 1.6mm (joist)',$,$,#325,#118,$,.JOIST.);
#96=IFCCARTESIANPOINT((0.,0.));
#97=IFCCARTESIANPOINT((0.,0.20000000000000001));
#98=IFCCARTESIANPOINT((0.065000000000000002,0.20000000000000001));
#99=IFCCARTESIANPOINT((0.065000000000000002,0.18200000000000002));
#100=IFCCARTESIANPOINT((0.063399999999999998,0.18200000000000002));
#101=IFCCARTESIANPOINT((0.063399999999999998,0.19840000000000002));
#102=IFCCARTESIANPOINT((0.0016000000000000001,0.19840000000000002));
#103=IFCCARTESIANPOINT((0.0016000000000000001,0.0016000000000000001));
#104=IFCCARTESIANPOINT((0.063399999999999998,0.0016000000000000001));
#105=IFCCARTESIANPOINT((0.063399999999999998,0.017999999999999999));
#106=IFCCARTESIANPOINT((0.065000000000000002,0.017999999999999999));
#107=IFCCARTESIANPOINT((0.065000000000000002,0.));
#108=IFCCARTESIANPOINT((0.,0.));
#109=IFCPOLYLINE((#96,#97,#98,#99,#100,#101,#102,#103,#104,#105,#106,#107,#108));
#110=IFCARBITRARYCLOSEDPROFILEDEF(.AREA.,$,#109);
#111=IFCCARTESIANPOINT((0.,-0.032500000000000001,0.));
#112=IFCDIRECTION((1.,0.,0.));
#113=IFCDIRECTION((0.,1.,0.));
#114=IFCAXIS2PLACEMENT3D(#111,#112,#113);
#115=IFCDIRECTION((0.,0.,1.));
#116=IFCEXTRUDEDAREASOLID(#110,#114,#115,4.);
#117=IFCSHAPEREPRESENTATION(#14,'Body','SweptSolid',(#116));
#118=IFCPRODUCTDEFINITIONSHAPE($,$,(#117));
#124=IFCOWNERHISTORY(#3,#4,.READWRITE.,.MODIFIED.,1781126331,#3,#4,1781126331);
#125=IFCBEAM('23sLJmCyTFBPPvE8On6mBC',#124,'C200x65x18 1.6mm (joist)',$,$,#310,#148,$,.JOIST.);
#126=IFCCARTESIANPOINT((0.,0.));
#127=IFCCARTESIANPOINT((0.,0.20000000000000001));
#128=IFCCARTESIANPOINT((0.065000000000000002,0.20000000000000001));
#129=IFCCARTESIANPOINT((0.065000000000000002,0.18200000000000002));
#130=IFCCARTESIANPOINT((0.063399999999999998,0.18200000000000002));
#131=IFCCARTESIANPOINT((0.063399999999999998,0.19840000000000002));
#132=IFCCARTESIANPOINT((0.0016000000000000001,0.19840000000000002));
#133=IFCCARTESIANPOINT((0.0016000000000000001,0.0016000000000000001));
#134=IFCCARTESIANPOINT((0.063399999999999998,0.0016000000000000001));
#135=IFCCARTESIANPOINT((0.063399999999999998,0.017999999999999999));
#136=IFCCARTESIANPOINT((0.065000000000000002,0.017999999999999999));
#137=IFCCARTESIANPOINT((0.065000000000000002,0.));
#138=IFCCARTESIANPOINT((0.,0.));
#139=IFCPOLYLINE((#126,#127,#128,#129,#130,#131,#132,#133,#134,#135,#136,#137,#138));
#140=IFCARBITRARYCLOSEDPROFILEDEF(.AREA.,$,#139);
#141=IFCCARTESIANPOINT((0.,0.5675,0.));
#142=IFCDIRECTION((1.,0.,0.));
#143=IFCDIRECTION((0.,1.,0.));
#144=IFCAXIS2PLACEMENT3D(#141,#142,#143);
#145=IFCDIRECTION((0.,0.,1.));
#146=IFCEXTRUDEDAREASOLID(#140,#144,#145,4.);
#147=IFCSHAPEREPRESENTATION(#14,'Body','SweptSolid',(#146));
#148=IFCPRODUCTDEFINITIONSHAPE($,$,(#147));
#154=IFCOWNERHISTORY(#3,#4,.READWRITE.,.MODIFIED.,1781126331,#3,#4,1781126331);
#155=IFCBEAM('0FHobzFAf6ShZz5Y5jz4t8',#154,'C200x65x18 1.6mm (joist)',$,$,#330,#178,$,.JOIST.);
#156=IFCCARTESIANPOINT((0.,0.));
#157=IFCCARTESIANPOINT((0.,0.20000000000000001));
#158=IFCCARTESIANPOINT((0.065000000000000002,0.20000000000000001));
#159=IFCCARTESIANPOINT((0.065000000000000002,0.18200000000000002));
#160=IFCCARTESIANPOINT((0.063399999999999998,0.18200000000000002));
#161=IFCCARTESIANPOINT((0.063399999999999998,0.19840000000000002));
#162=IFCCARTESIANPOINT((0.0016000000000000001,0.19840000000000002));
#163=IFCCARTESIANPOINT((0.0016000000000000001,0.0016000000000000001));
#164=IFCCARTESIANPOINT((0.063399999999999998,0.0016000000000000001));
#165=IFCCARTESIANPOINT((0.063399999999999998,0.017999999999999999));
#166=IFCCARTESIANPOINT((0.065000000000000002,0.017999999999999999));
#167=IFCCARTESIANPOINT((0.065000000000000002,0.));
#168=IFCCARTESIANPOINT((0.,0.));
#169=IFCPOLYLINE((#156,#157,#158,#159,#160,#161,#162,#163,#164,#165,#166,#167,#168));
#170=IFCARBITRARYCLOSEDPROFILEDEF(.AREA.,$,#169);
#171=IFCCARTESIANPOINT((0.,1.1675,0.));
#172=IFCDIRECTION((1.,0.,0.));
#173=IFCDIRECTION((0.,1.,0.));
#174=IFCAXIS2PLACEMENT3D(#171,#172,#173);
#175=IFCDIRECTION((0.,0.,1.));
#176=IFCEXTRUDEDAREASOLID(#170,#174,#175,4.);
#177=IFCSHAPEREPRESENTATION(#14,'Body','SweptSolid',(#176));
#178=IFCPRODUCTDEFINITIONSHAPE($,$,(#177));
#184=IFCOWNERHISTORY(#3,#4,.READWRITE.,.MODIFIED.,1781126331,#3,#4,1781126331);
#185=IFCBEAM('1G3QKZwab1AwhQvitifQLt',#184,'C200x65x18 1.6mm (joist)',$,$,#335,#208,$,.JOIST.);
#186=IFCCARTESIANPOINT((0.,0.));
#187=IFCCARTESIANPOINT((0.,0.20000000000000001));
#188=IFCCARTESIANPOINT((0.065000000000000002,0.20000000000000001));
#189=IFCCARTESIANPOINT((0.065000000000000002,0.18200000000000002));
#190=IFCCARTESIANPOINT((0.063399999999999998,0.18200000000000002));
#191=IFCCARTESIANPOINT((0.063399999999999998,0.19840000000000002));
#192=IFCCARTESIANPOINT((0.0016000000000000001,0.19840000000000002));
#193=IFCCARTESIANPOINT((0.0016000000000000001,0.0016000000000000001));
#194=IFCCARTESIANPOINT((0.063399999999999998,0.0016000000000000001));
#195=IFCCARTESIANPOINT((0.063399999999999998,0.017999999999999999));
#196=IFCCARTESIANPOINT((0.065000000000000002,0.017999999999999999));
#197=IFCCARTESIANPOINT((0.065000000000000002,0.));
#198=IFCCARTESIANPOINT((0.,0.));
#199=IFCPOLYLINE((#186,#187,#188,#189,#190,#191,#192,#193,#194,#195,#196,#197,#198));
#200=IFCARBITRARYCLOSEDPROFILEDEF(.AREA.,$,#199);
#201=IFCCARTESIANPOINT((0.,1.7675000000000001,0.));
#202=IFCDIRECTION((1.,0.,0.));
#203=IFCDIRECTION((0.,1.,0.));
#204=IFCAXIS2PLACEMENT3D(#201,#202,#203);
#205=IFCDIRECTION((0.,0.,1.));
#206=IFCEXTRUDEDAREASOLID(#200,#204,#205,4.);
#207=IFCSHAPEREPRESENTATION(#14,'Body','SweptSolid',(#206));
#208=IFCPRODUCTDEFINITIONSHAPE($,$,(#207));
#214=IFCOWNERHISTORY(#3,#4,.READWRITE.,.MODIFIED.,1781126331,#3,#4,1781126331);
#215=IFCBEAM('3Fs1eku6T63wlXnfuJLunu',#214,'C200x65x18 1.6mm (joist)',$,$,#315,#238,$,.JOIST.);
#216=IFCCARTESIANPOINT((0.,0.));
#217=IFCCARTESIANPOINT((0.,0.20000000000000001));
#218=IFCCARTESIANPOINT((0.065000000000000002,0.20000000000000001));
#219=IFCCARTESIANPOINT((0.065000000000000002,0.18200000000000002));
#220=IFCCARTESIANPOINT((0.063399999999999998,0.18200000000000002));
#221=IFCCARTESIANPOINT((0.063399999999999998,0.19840000000000002));
#222=IFCCARTESIANPOINT((0.0016000000000000001,0.19840000000000002));
#223=IFCCARTESIANPOINT((0.0016000000000000001,0.0016000000000000001));
#224=IFCCARTESIANPOINT((0.063399999999999998,0.0016000000000000001));
#225=IFCCARTESIANPOINT((0.063399999999999998,0.017999999999999999));
#226=IFCCARTESIANPOINT((0.065000000000000002,0.017999999999999999));
#227=IFCCARTESIANPOINT((0.065000000000000002,0.));
#228=IFCCARTESIANPOINT((0.,0.));
#229=IFCPOLYLINE((#216,#217,#218,#219,#220,#221,#222,#223,#224,#225,#226,#227,#228));
#230=IFCARBITRARYCLOSEDPROFILEDEF(.AREA.,$,#229);
#231=IFCCARTESIANPOINT((0.,2.3674999999999997,0.));
#232=IFCDIRECTION((1.,0.,0.));
#233=IFCDIRECTION((0.,1.,0.));
#234=IFCAXIS2PLACEMENT3D(#231,#232,#233);
#235=IFCDIRECTION((0.,0.,1.));
#236=IFCEXTRUDEDAREASOLID(#230,#234,#235,4.);
#237=IFCSHAPEREPRESENTATION(#14,'Body','SweptSolid',(#236));
#238=IFCPRODUCTDEFINITIONSHAPE($,$,(#237));
#244=IFCOWNERHISTORY(#3,#4,.READWRITE.,.MODIFIED.,1781126331,#3,#4,1781126331);
#245=IFCBEAM('022noYkY9FquvI$ol0MNMn',#244,'C200x65x18 1.6mm (joist)',$,$,#345,#268,$,.JOIST.);
#246=IFCCARTESIANPOINT((0.,0.));
#247=IFCCARTESIANPOINT((0.,0.20000000000000001));
#248=IFCCARTESIANPOINT((0.065000000000000002,0.20000000000000001));
#249=IFCCARTESIANPOINT((0.065000000000000002,0.18200000000000002));
#250=IFCCARTESIANPOINT((0.063399999999999998,0.18200000000000002));
#251=IFCCARTESIANPOINT((0.063399999999999998,0.19840000000000002));
#252=IFCCARTESIANPOINT((0.0016000000000000001,0.19840000000000002));
#253=IFCCARTESIANPOINT((0.0016000000000000001,0.0016000000000000001));
#254=IFCCARTESIANPOINT((0.063399999999999998,0.0016000000000000001));
#255=IFCCARTESIANPOINT((0.063399999999999998,0.017999999999999999));
#256=IFCCARTESIANPOINT((0.065000000000000002,0.017999999999999999));
#257=IFCCARTESIANPOINT((0.065000000000000002,0.));
#258=IFCCARTESIANPOINT((0.,0.));
#259=IFCPOLYLINE((#246,#247,#248,#249,#250,#251,#252,#253,#254,#255,#256,#257,#258));
#260=IFCARBITRARYCLOSEDPROFILEDEF(.AREA.,$,#259);
#261=IFCCARTESIANPOINT((0.,2.9674999999999998,0.));
#262=IFCDIRECTION((1.,0.,0.));
#263=IFCDIRECTION((0.,1.,0.));
#264=IFCAXIS2PLACEMENT3D(#261,#262,#263);
#265=IFCDIRECTION((0.,0.,1.));
#266=IFCEXTRUDEDAREASOLID(#260,#264,#265,4.);
#267=IFCSHAPEREPRESENTATION(#14,'Body','SweptSolid',(#266));
#268=IFCPRODUCTDEFINITIONSHAPE($,$,(#267));
#274=IFCOWNERHISTORY(#3,#4,.READWRITE.,.MODIFIED.,1781126331,#3,#4,1781126331);
#275=IFCBEAM('1Ee1Anlmj8ahGVEqsLT1YL',#274,'C200x65x18 1.6mm (joist)',$,$,#320,#298,$,.JOIST.);
#276=IFCCARTESIANPOINT((0.,0.));
#277=IFCCARTESIANPOINT((0.,0.20000000000000001));
#278=IFCCARTESIANPOINT((0.065000000000000002,0.20000000000000001));
#279=IFCCARTESIANPOINT((0.065000000000000002,0.18200000000000002));
#280=IFCCARTESIANPOINT((0.063399999999999998,0.18200000000000002));
#281=IFCCARTESIANPOINT((0.063399999999999998,0.19840000000000002));
#282=IFCCARTESIANPOINT((0.0016000000000000001,0.19840000000000002));
#283=IFCCARTESIANPOINT((0.0016000000000000001,0.0016000000000000001));
#284=IFCCARTESIANPOINT((0.063399999999999998,0.0016000000000000001));
#285=IFCCARTESIANPOINT((0.063399999999999998,0.017999999999999999));
#286=IFCCARTESIANPOINT((0.065000000000000002,0.017999999999999999));
#287=IFCCARTESIANPOINT((0.065000000000000002,0.));
#288=IFCCARTESIANPOINT((0.,0.));
#289=IFCPOLYLINE((#276,#277,#278,#279,#280,#281,#282,#283,#284,#285,#286,#287,#288));
#290=IFCARBITRARYCLOSEDPROFILEDEF(.AREA.,$,#289);
#291=IFCCARTESIANPOINT((0.,3.5674999999999999,0.));
#292=IFCDIRECTION((1.,0.,0.));
#293=IFCDIRECTION((0.,1.,0.));
#294=IFCAXIS2PLACEMENT3D(#291,#292,#293);
#295=IFCDIRECTION((0.,0.,1.));
#296=IFCEXTRUDEDAREASOLID(#290,#294,#295,4.);
#297=IFCSHAPEREPRESENTATION(#14,'Body','SweptSolid',(#296));
#298=IFCPRODUCTDEFINITIONSHAPE($,$,(#297));
#304=IFCOWNERHISTORY(#3,#4,.READWRITE.,.ADDED.,1781126331,#3,#4,1781126331);
#305=IFCRELAGGREGATES('21CBPrK397IwxTH8fftYKo',#304,$,$,#29,(#125,#215,#275,#95,#155,#185,#69,#245,#43));
#306=IFCCARTESIANPOINT((0.,0.,0.));
#307=IFCDIRECTION((0.,0.,1.));
#308=IFCDIRECTION((1.,0.,0.));
#309=IFCAXIS2PLACEMENT3D(#306,#307,#308);
#310=IFCLOCALPLACEMENT(#41,#309);
#311=IFCCARTESIANPOINT((0.,0.,0.));
#312=IFCDIRECTION((0.,0.,1.));
#313=IFCDIRECTION((1.,0.,0.));
#314=IFCAXIS2PLACEMENT3D(#311,#312,#313);
#315=IFCLOCALPLACEMENT(#41,#314);
#316=IFCCARTESIANPOINT((0.,0.,0.));
#317=IFCDIRECTION((0.,0.,1.));
#318=IFCDIRECTION((1.,0.,0.));
#319=IFCAXIS2PLACEMENT3D(#316,#317,#318);
#320=IFCLOCALPLACEMENT(#41,#319);
#321=IFCCARTESIANPOINT((0.,0.,0.));
#322=IFCDIRECTION((0.,0.,1.));
#323=IFCDIRECTION((1.,0.,0.));
#324=IFCAXIS2PLACEMENT3D(#321,#322,#323);
#325=IFCLOCALPLACEMENT(#41,#324);
#326=IFCCARTESIANPOINT((0.,0.,0.));
#327=IFCDIRECTION((0.,0.,1.));
#328=IFCDIRECTION((1.,0.,0.));
#329=IFCAXIS2PLACEMENT3D(#326,#327,#328);
#330=IFCLOCALPLACEMENT(#41,#329);
#331=IFCCARTESIANPOINT((0.,0.,0.));
#332=IFCDIRECTION((0.,0.,1.));
#333=IFCDIRECTION((1.,0.,0.));
#334=IFCAXIS2PLACEMENT3D(#331,#332,#333);
#335=IFCLOCALPLACEMENT(#41,#334);
#336=IFCCARTESIANPOINT((0.,0.,0.));
#337=IFCDIRECTION((0.,0.,1.));
#338=IFCDIRECTION((1.,0.,0.));
#339=IFCAXIS2PLACEMENT3D(#336,#337,#338);
#340=IFCLOCALPLACEMENT(#41,#339);
#341=IFCCARTESIANPOINT((0.,0.,0.));
#342=IFCDIRECTION((0.,0.,1.));
#343=IFCDIRECTION((1.,0.,0.));
#344=IFCAXIS2PLACEMENT3D(#341,#342,#343);
#345=IFCLOCALPLACEMENT(#41,#344);
#346=IFCCARTESIANPOINT((0.,0.,0.));
#347=IFCDIRECTION((0.,0.,1.));
#348=IFCDIRECTION((1.,0.,0.));
#349=IFCAXIS2PLACEMENT3D(#346,#347,#348);
#350=IFCLOCALPLACEMENT(#41,#349);
#351=IFCOWNERHISTORY(#3,#4,.READWRITE.,.ADDED.,1781126331,#3,#4,1781126331);
#352=IFCRELASSOCIATESMATERIAL('0QDbVONOP1MgexQO6FCw0j',#351,$,$,(#125,#215,#275,#95,#155,#185,#69,#245,#43),#27);
#353=IFCOWNERHISTORY(#3,#4,.READWRITE.,.ADDED.,1781126331,#3,#4,1781126331);
#354=IFCPROPERTYSET('1jWbjE1WTFXBvJBvglSoWJ',#353,'Pset_LGS_Panel',$,(#357,#358,#359,#360,#361,#362,#363));
#355=IFCOWNERHISTORY(#3,#4,.READWRITE.,.ADDED.,1781126331,#3,#4,1781126331);
#356=IFCRELDEFINESBYPROPERTIES('3Yj5VfdRTCYh8bNmSbrsFe',#355,$,$,(#29),#354);
#357=IFCPROPERTYSINGLEVALUE('LoadBearing',$,IFCBOOLEAN(.T.),$);
#358=IFCPROPERTYSINGLEVALUE('IsExternal',$,IFCBOOLEAN(.T.),$);
#359=IFCPROPERTYSINGLEVALUE('StudSpacing_mm',$,IFCINTEGER(600),$);
#360=IFCPROPERTYSINGLEVALUE('MemberCount',$,IFCINTEGER(9),$);
#361=IFCPROPERTYSINGLEVALUE('Category',$,IFCLABEL('ROOF'),$);
#362=IFCPROPERTYSINGLEVALUE('JoistSection',$,IFCLABEL('C200x65x18 1.6mm'),$);
#363=IFCPROPERTYSINGLEVALUE('TrackSection',$,IFCLABEL('U204x65 1.6mm'),$);
ENDSEC;
END-ISO-10303-21;
