ISO-10303-21;
HEADER;
FILE_DESCRIPTION(('ViewDefinition[DesignTransferView]'),'2;1');
FILE_NAME('/dev/null','2026-06-09T21:31:40+00:00',(''),(''),'IfcOpenShell 0.8.5','IfcOpenShell 0.8.5','Nobody');
FILE_SCHEMA(('IFC2X3'));
ENDSEC;
DATA;
#1=IFCPERSON($,'Martinez Rodriguez','Pablo',$,$,$,$,$);
#2=IFCORGANIZATION($,'Northumbria University',$,$,$);
#3=IFCPERSONANDORGANIZATION(#1,#2,$);
#4=IFCAPPLICATION(#2,'0.8','LGS Panel Generator','LGSGEN');
#5=IFCOWNERHISTORY(#3,#4,.READWRITE.,.ADDED.,1781040700,#3,#4,1781040700);
#6=IFCPROJECT('3kePDfPGz95gP9QJwWRLt7',#5,'LGS Panel Library',$,$,$,$,(#13),#8);
#7=IFCSIUNIT(*,.LENGTHUNIT.,$,.METRE.);
#8=IFCUNITASSIGNMENT((#7));
#9=IFCCARTESIANPOINT((0.,0.,0.));
#10=IFCDIRECTION((0.,0.,1.));
#11=IFCDIRECTION((1.,0.,0.));
#12=IFCAXIS2PLACEMENT3D(#9,#10,#11);
#13=IFCGEOMETRICREPRESENTATIONCONTEXT($,'Model',3,1.0000000000000001E-05,#12,$);
#14=IFCGEOMETRICREPRESENTATIONSUBCONTEXT('Body','Model',*,*,*,*,#13,$,.MODEL_VIEW.,$);
#15=IFCOWNERHISTORY(#3,#4,.READWRITE.,.ADDED.,1781040700,#3,#4,1781040700);
#16=IFCSITE('3HlS39I0zDh8Rn$VC$UJfQ',#15,'Site',$,$,$,$,$,.ELEMENT.,$,$,$,$,$);
#17=IFCOWNERHISTORY(#3,#4,.READWRITE.,.ADDED.,1781040700,#3,#4,1781040700);
#18=IFCBUILDING('1IgB741mb0uu7zHO1KsFIY',#17,'Manufacturing Reference',$,$,$,$,$,.ELEMENT.,$,$,$);
#19=IFCOWNERHISTORY(#3,#4,.READWRITE.,.ADDED.,1781040700,#3,#4,1781040700);
#20=IFCBUILDINGSTOREY('2enZEXqyzBQxpzAPJIwT2Y',#19,'Ground Floor',$,$,$,$,$,.ELEMENT.,$);
#21=IFCOWNERHISTORY(#3,#4,.READWRITE.,.ADDED.,1781040700,#3,#4,1781040700);
#22=IFCRELAGGREGATES('2y6iKnMWD6GA3q8ewdTqNS',#21,$,$,#6,(#16));
#23=IFCOWNERHISTORY(#3,#4,.READWRITE.,.ADDED.,1781040700,#3,#4,1781040700);
#24=IFCRELAGGREGATES('3mw541FJj0ROECxaZaGQA6',#23,$,$,#16,(#18));
#25=IFCOWNERHISTORY(#3,#4,.READWRITE.,.ADDED.,1781040700,#3,#4,1781040700);
#26=IFCRELAGGREGATES('3KnOCr1T90CQq0rdT670vp',#25,$,$,#18,(#20));
#27=IFCMATERIAL('Light Gauge Steel S350GD+Z');
#28=IFCOWNERHISTORY(#3,#4,.READWRITE.,.MODIFIED.,1781040700,#3,#4,1781040700);
#29=IFCELEMENTASSEMBLY('2FVcq_Jjj4CgIKizH5BGIO',#28,'External Load-Bearing Wall Panel',$,$,#41,$,$,$,$);
#35=IFCOWNERHISTORY(#3,#4,.READWRITE.,.ADDED.,1781040700,#3,#4,1781040700);
#36=IFCRELCONTAINEDINSPATIALSTRUCTURE('3zHz9D4EX8NABKi8xaHcqY',#35,$,$,(#29),#20);
#37=IFCCARTESIANPOINT((0.,0.,0.));
#38=IFCDIRECTION((0.,0.,1.));
#39=IFCDIRECTION((1.,0.,0.));
#40=IFCAXIS2PLACEMENT3D(#37,#38,#39);
#41=IFCLOCALPLACEMENT($,#40);
#42=IFCOWNERHISTORY(#3,#4,.READWRITE.,.MODIFIED.,1781040700,#3,#4,1781040700);
#43=IFCMEMBER('06cGEfAWbBRRNZzaCyrEvv',#42,'U152x40 1.6mm',$,$,#335,#62,$);
#44=IFCCARTESIANPOINT((0.,0.));
#45=IFCCARTESIANPOINT((0.,0.14999999999999999));
#46=IFCCARTESIANPOINT((0.040000000000000001,0.14999999999999999));
#47=IFCCARTESIANPOINT((0.040000000000000001,0.1484));
#48=IFCCARTESIANPOINT((0.0016000000000000001,0.1484));
#49=IFCCARTESIANPOINT((0.0016000000000000001,0.0016000000000000001));
#50=IFCCARTESIANPOINT((0.040000000000000001,0.0016000000000000001));
#51=IFCCARTESIANPOINT((0.040000000000000001,0.));
#52=IFCCARTESIANPOINT((0.,0.));
#53=IFCPOLYLINE((#44,#45,#46,#47,#48,#49,#50,#51,#52));
#54=IFCARBITRARYCLOSEDPROFILEDEF(.AREA.,$,#53);
#55=IFCCARTESIANPOINT((0.,0.14999999999999999,0.));
#56=IFCDIRECTION((1.,0.,0.));
#57=IFCDIRECTION((0.,0.,1.));
#58=IFCAXIS2PLACEMENT3D(#55,#56,#57);
#59=IFCDIRECTION((0.,0.,1.));
#60=IFCEXTRUDEDAREASOLID(#54,#58,#59,3.6000000000000001);
#61=IFCSHAPEREPRESENTATION(#14,'Body','SweptSolid',(#60));
#62=IFCPRODUCTDEFINITIONSHAPE($,$,(#61));
#68=IFCOWNERHISTORY(#3,#4,.READWRITE.,.MODIFIED.,1781040700,#3,#4,1781040700);
#69=IFCMEMBER('2DyYX9Wjr8Recsii4CgVw0',#68,'U152x40 1.6mm',$,$,#325,#88,$);
#70=IFCCARTESIANPOINT((0.,0.));
#71=IFCCARTESIANPOINT((0.,0.14999999999999999));
#72=IFCCARTESIANPOINT((0.040000000000000001,0.14999999999999999));
#73=IFCCARTESIANPOINT((0.040000000000000001,0.1484));
#74=IFCCARTESIANPOINT((0.0016000000000000001,0.1484));
#75=IFCCARTESIANPOINT((0.0016000000000000001,0.0016000000000000001));
#76=IFCCARTESIANPOINT((0.040000000000000001,0.0016000000000000001));
#77=IFCCARTESIANPOINT((0.040000000000000001,0.));
#78=IFCCARTESIANPOINT((0.,0.));
#79=IFCPOLYLINE((#70,#71,#72,#73,#74,#75,#76,#77,#78));
#80=IFCARBITRARYCLOSEDPROFILEDEF(.AREA.,$,#79);
#81=IFCCARTESIANPOINT((0.,0.,2.7000000000000002));
#82=IFCDIRECTION((1.,0.,0.));
#83=IFCDIRECTION((0.,0.,-1.));
#84=IFCAXIS2PLACEMENT3D(#81,#82,#83);
#85=IFCDIRECTION((0.,0.,1.));
#86=IFCEXTRUDEDAREASOLID(#80,#84,#85,3.6000000000000001);
#87=IFCSHAPEREPRESENTATION(#14,'Body','SweptSolid',(#86));
#88=IFCPRODUCTDEFINITIONSHAPE($,$,(#87));
#94=IFCOWNERHISTORY(#3,#4,.READWRITE.,.MODIFIED.,1781040700,#3,#4,1781040700);
#95=IFCMEMBER('0YG1qlcRvBxejxb3v0ujnw',#94,'C150x50x16 1.6mm',$,$,#310,#118,$);
#96=IFCCARTESIANPOINT((0.,0.));
#97=IFCCARTESIANPOINT((0.,0.14999999999999999));
#98=IFCCARTESIANPOINT((0.050000000000000003,0.14999999999999999));
#99=IFCCARTESIANPOINT((0.050000000000000003,0.13500000000000001));
#100=IFCCARTESIANPOINT((0.048400000000000006,0.13500000000000001));
#101=IFCCARTESIANPOINT((0.048400000000000006,0.1484));
#102=IFCCARTESIANPOINT((0.0016000000000000001,0.1484));
#103=IFCCARTESIANPOINT((0.0016000000000000001,0.0016000000000000001));
#104=IFCCARTESIANPOINT((0.048400000000000006,0.0016000000000000001));
#105=IFCCARTESIANPOINT((0.048400000000000006,0.014999999999999999));
#106=IFCCARTESIANPOINT((0.050000000000000003,0.014999999999999999));
#107=IFCCARTESIANPOINT((0.050000000000000003,0.));
#108=IFCCARTESIANPOINT((0.,0.));
#109=IFCPOLYLINE((#96,#97,#98,#99,#100,#101,#102,#103,#104,#105,#106,#107,#108));
#110=IFCARBITRARYCLOSEDPROFILEDEF(.AREA.,$,#109);
#111=IFCCARTESIANPOINT((-0.025000000000000001,0.,0.0016000000000000001));
#112=IFCDIRECTION((0.,0.,1.));
#113=IFCDIRECTION((1.,0.,0.));
#114=IFCAXIS2PLACEMENT3D(#111,#112,#113);
#115=IFCDIRECTION((0.,0.,1.));
#116=IFCEXTRUDEDAREASOLID(#110,#114,#115,2.6968000000000001);
#117=IFCSHAPEREPRESENTATION(#14,'Body','SweptSolid',(#116));
#118=IFCPRODUCTDEFINITIONSHAPE($,$,(#117));
#124=IFCOWNERHISTORY(#3,#4,.READWRITE.,.MODIFIED.,1781040700,#3,#4,1781040700);
#125=IFCMEMBER('3LGSdSY5r0peaJ63XRUpbS',#124,'C150x50x16 1.6mm',$,$,#340,#148,$);
#126=IFCCARTESIANPOINT((0.,0.));
#127=IFCCARTESIANPOINT((0.,0.14999999999999999));
#128=IFCCARTESIANPOINT((0.050000000000000003,0.14999999999999999));
#129=IFCCARTESIANPOINT((0.050000000000000003,0.13500000000000001));
#130=IFCCARTESIANPOINT((0.048400000000000006,0.13500000000000001));
#131=IFCCARTESIANPOINT((0.048400000000000006,0.1484));
#132=IFCCARTESIANPOINT((0.0016000000000000001,0.1484));
#133=IFCCARTESIANPOINT((0.0016000000000000001,0.0016000000000000001));
#134=IFCCARTESIANPOINT((0.048400000000000006,0.0016000000000000001));
#135=IFCCARTESIANPOINT((0.048400000000000006,0.014999999999999999));
#136=IFCCARTESIANPOINT((0.050000000000000003,0.014999999999999999));
#137=IFCCARTESIANPOINT((0.050000000000000003,0.));
#138=IFCCARTESIANPOINT((0.,0.));
#139=IFCPOLYLINE((#126,#127,#128,#129,#130,#131,#132,#133,#134,#135,#136,#137,#138));
#140=IFCARBITRARYCLOSEDPROFILEDEF(.AREA.,$,#139);
#141=IFCCARTESIANPOINT((0.57499999999999996,0.,0.0016000000000000001));
#142=IFCDIRECTION((0.,0.,1.));
#143=IFCDIRECTION((1.,0.,0.));
#144=IFCAXIS2PLACEMENT3D(#141,#142,#143);
#145=IFCDIRECTION((0.,0.,1.));
#146=IFCEXTRUDEDAREASOLID(#140,#144,#145,2.6968000000000001);
#147=IFCSHAPEREPRESENTATION(#14,'Body','SweptSolid',(#146));
#148=IFCPRODUCTDEFINITIONSHAPE($,$,(#147));
#154=IFCOWNERHISTORY(#3,#4,.READWRITE.,.MODIFIED.,1781040700,#3,#4,1781040700);
#155=IFCMEMBER('2hhhvV9rLCkP5_SJiDbgBu',#154,'C150x50x16 1.6mm',$,$,#315,#178,$);
#156=IFCCARTESIANPOINT((0.,0.));
#157=IFCCARTESIANPOINT((0.,0.14999999999999999));
#158=IFCCARTESIANPOINT((0.050000000000000003,0.14999999999999999));
#159=IFCCARTESIANPOINT((0.050000000000000003,0.13500000000000001));
#160=IFCCARTESIANPOINT((0.048400000000000006,0.13500000000000001));
#161=IFCCARTESIANPOINT((0.048400000000000006,0.1484));
#162=IFCCARTESIANPOINT((0.0016000000000000001,0.1484));
#163=IFCCARTESIANPOINT((0.0016000000000000001,0.0016000000000000001));
#164=IFCCARTESIANPOINT((0.048400000000000006,0.0016000000000000001));
#165=IFCCARTESIANPOINT((0.048400000000000006,0.014999999999999999));
#166=IFCCARTESIANPOINT((0.050000000000000003,0.014999999999999999));
#167=IFCCARTESIANPOINT((0.050000000000000003,0.));
#168=IFCCARTESIANPOINT((0.,0.));
#169=IFCPOLYLINE((#156,#157,#158,#159,#160,#161,#162,#163,#164,#165,#166,#167,#168));
#170=IFCARBITRARYCLOSEDPROFILEDEF(.AREA.,$,#169);
#171=IFCCARTESIANPOINT((1.175,0.,0.0016000000000000001));
#172=IFCDIRECTION((0.,0.,1.));
#173=IFCDIRECTION((1.,0.,0.));
#174=IFCAXIS2PLACEMENT3D(#171,#172,#173);
#175=IFCDIRECTION((0.,0.,1.));
#176=IFCEXTRUDEDAREASOLID(#170,#174,#175,2.6968000000000001);
#177=IFCSHAPEREPRESENTATION(#14,'Body','SweptSolid',(#176));
#178=IFCPRODUCTDEFINITIONSHAPE($,$,(#177));
#184=IFCOWNERHISTORY(#3,#4,.READWRITE.,.MODIFIED.,1781040700,#3,#4,1781040700);
#185=IFCMEMBER('1pQaq4VND4k8aGXYXcxoCc',#184,'C150x50x16 1.6mm',$,$,#320,#208,$);
#186=IFCCARTESIANPOINT((0.,0.));
#187=IFCCARTESIANPOINT((0.,0.14999999999999999));
#188=IFCCARTESIANPOINT((0.050000000000000003,0.14999999999999999));
#189=IFCCARTESIANPOINT((0.050000000000000003,0.13500000000000001));
#190=IFCCARTESIANPOINT((0.048400000000000006,0.13500000000000001));
#191=IFCCARTESIANPOINT((0.048400000000000006,0.1484));
#192=IFCCARTESIANPOINT((0.0016000000000000001,0.1484));
#193=IFCCARTESIANPOINT((0.0016000000000000001,0.0016000000000000001));
#194=IFCCARTESIANPOINT((0.048400000000000006,0.0016000000000000001));
#195=IFCCARTESIANPOINT((0.048400000000000006,0.014999999999999999));
#196=IFCCARTESIANPOINT((0.050000000000000003,0.014999999999999999));
#197=IFCCARTESIANPOINT((0.050000000000000003,0.));
#198=IFCCARTESIANPOINT((0.,0.));
#199=IFCPOLYLINE((#186,#187,#188,#189,#190,#191,#192,#193,#194,#195,#196,#197,#198));
#200=IFCARBITRARYCLOSEDPROFILEDEF(.AREA.,$,#199);
#201=IFCCARTESIANPOINT((1.7750000000000001,0.,0.0016000000000000001));
#202=IFCDIRECTION((0.,0.,1.));
#203=IFCDIRECTION((1.,0.,0.));
#204=IFCAXIS2PLACEMENT3D(#201,#202,#203);
#205=IFCDIRECTION((0.,0.,1.));
#206=IFCEXTRUDEDAREASOLID(#200,#204,#205,2.6968000000000001);
#207=IFCSHAPEREPRESENTATION(#14,'Body','SweptSolid',(#206));
#208=IFCPRODUCTDEFINITIONSHAPE($,$,(#207));
#214=IFCOWNERHISTORY(#3,#4,.READWRITE.,.MODIFIED.,1781040700,#3,#4,1781040700);
#215=IFCMEMBER('2RjFF33UPFFeeu8QddyRa6',#214,'C150x50x16 1.6mm',$,$,#345,#238,$);
#216=IFCCARTESIANPOINT((0.,0.));
#217=IFCCARTESIANPOINT((0.,0.14999999999999999));
#218=IFCCARTESIANPOINT((0.050000000000000003,0.14999999999999999));
#219=IFCCARTESIANPOINT((0.050000000000000003,0.13500000000000001));
#220=IFCCARTESIANPOINT((0.048400000000000006,0.13500000000000001));
#221=IFCCARTESIANPOINT((0.048400000000000006,0.1484));
#222=IFCCARTESIANPOINT((0.0016000000000000001,0.1484));
#223=IFCCARTESIANPOINT((0.0016000000000000001,0.0016000000000000001));
#224=IFCCARTESIANPOINT((0.048400000000000006,0.0016000000000000001));
#225=IFCCARTESIANPOINT((0.048400000000000006,0.014999999999999999));
#226=IFCCARTESIANPOINT((0.050000000000000003,0.014999999999999999));
#227=IFCCARTESIANPOINT((0.050000000000000003,0.));
#228=IFCCARTESIANPOINT((0.,0.));
#229=IFCPOLYLINE((#216,#217,#218,#219,#220,#221,#222,#223,#224,#225,#226,#227,#228));
#230=IFCARBITRARYCLOSEDPROFILEDEF(.AREA.,$,#229);
#231=IFCCARTESIANPOINT((2.375,0.,0.0016000000000000001));
#232=IFCDIRECTION((0.,0.,1.));
#233=IFCDIRECTION((1.,0.,0.));
#234=IFCAXIS2PLACEMENT3D(#231,#232,#233);
#235=IFCDIRECTION((0.,0.,1.));
#236=IFCEXTRUDEDAREASOLID(#230,#234,#235,2.6968000000000001);
#237=IFCSHAPEREPRESENTATION(#14,'Body','SweptSolid',(#236));
#238=IFCPRODUCTDEFINITIONSHAPE($,$,(#237));
#244=IFCOWNERHISTORY(#3,#4,.READWRITE.,.MODIFIED.,1781040700,#3,#4,1781040700);
#245=IFCMEMBER('3Ea9DZNd9APhUbP46K0FOk',#244,'C150x50x16 1.6mm',$,$,#330,#268,$);
#246=IFCCARTESIANPOINT((0.,0.));
#247=IFCCARTESIANPOINT((0.,0.14999999999999999));
#248=IFCCARTESIANPOINT((0.050000000000000003,0.14999999999999999));
#249=IFCCARTESIANPOINT((0.050000000000000003,0.13500000000000001));
#250=IFCCARTESIANPOINT((0.048400000000000006,0.13500000000000001));
#251=IFCCARTESIANPOINT((0.048400000000000006,0.1484));
#252=IFCCARTESIANPOINT((0.0016000000000000001,0.1484));
#253=IFCCARTESIANPOINT((0.0016000000000000001,0.0016000000000000001));
#254=IFCCARTESIANPOINT((0.048400000000000006,0.0016000000000000001));
#255=IFCCARTESIANPOINT((0.048400000000000006,0.014999999999999999));
#256=IFCCARTESIANPOINT((0.050000000000000003,0.014999999999999999));
#257=IFCCARTESIANPOINT((0.050000000000000003,0.));
#258=IFCCARTESIANPOINT((0.,0.));
#259=IFCPOLYLINE((#246,#247,#248,#249,#250,#251,#252,#253,#254,#255,#256,#257,#258));
#260=IFCARBITRARYCLOSEDPROFILEDEF(.AREA.,$,#259);
#261=IFCCARTESIANPOINT((2.9750000000000001,0.,0.0016000000000000001));
#262=IFCDIRECTION((0.,0.,1.));
#263=IFCDIRECTION((1.,0.,0.));
#264=IFCAXIS2PLACEMENT3D(#261,#262,#263);
#265=IFCDIRECTION((0.,0.,1.));
#266=IFCEXTRUDEDAREASOLID(#260,#264,#265,2.6968000000000001);
#267=IFCSHAPEREPRESENTATION(#14,'Body','SweptSolid',(#266));
#268=IFCPRODUCTDEFINITIONSHAPE($,$,(#267));
#274=IFCOWNERHISTORY(#3,#4,.READWRITE.,.MODIFIED.,1781040700,#3,#4,1781040700);
#275=IFCMEMBER('1qQT1k8yn2VfXKSuFRWXH_',#274,'C150x50x16 1.6mm',$,$,#350,#298,$);
#276=IFCCARTESIANPOINT((0.,0.));
#277=IFCCARTESIANPOINT((0.,0.14999999999999999));
#278=IFCCARTESIANPOINT((0.050000000000000003,0.14999999999999999));
#279=IFCCARTESIANPOINT((0.050000000000000003,0.13500000000000001));
#280=IFCCARTESIANPOINT((0.048400000000000006,0.13500000000000001));
#281=IFCCARTESIANPOINT((0.048400000000000006,0.1484));
#282=IFCCARTESIANPOINT((0.0016000000000000001,0.1484));
#283=IFCCARTESIANPOINT((0.0016000000000000001,0.0016000000000000001));
#284=IFCCARTESIANPOINT((0.048400000000000006,0.0016000000000000001));
#285=IFCCARTESIANPOINT((0.048400000000000006,0.014999999999999999));
#286=IFCCARTESIANPOINT((0.050000000000000003,0.014999999999999999));
#287=IFCCARTESIANPOINT((0.050000000000000003,0.));
#288=IFCCARTESIANPOINT((0.,0.));
#289=IFCPOLYLINE((#276,#277,#278,#279,#280,#281,#282,#283,#284,#285,#286,#287,#288));
#290=IFCARBITRARYCLOSEDPROFILEDEF(.AREA.,$,#289);
#291=IFCCARTESIANPOINT((3.5750000000000002,0.,0.0016000000000000001));
#292=IFCDIRECTION((0.,0.,1.));
#293=IFCDIRECTION((1.,0.,0.));
#294=IFCAXIS2PLACEMENT3D(#291,#292,#293);
#295=IFCDIRECTION((0.,0.,1.));
#296=IFCEXTRUDEDAREASOLID(#290,#294,#295,2.6968000000000001);
#297=IFCSHAPEREPRESENTATION(#14,'Body','SweptSolid',(#296));
#298=IFCPRODUCTDEFINITIONSHAPE($,$,(#297));
#304=IFCOWNERHISTORY(#3,#4,.READWRITE.,.ADDED.,1781040700,#3,#4,1781040700);
#305=IFCRELAGGREGATES('2wEuuiQ4DE5eapdXOtu$39',#304,$,$,#29,(#95,#155,#185,#69,#245,#43,#125,#215,#275));
#306=IFCCARTESIANPOINT((0.,0.,0.));
#307=IFCDIRECTION((0.,0.,1.));
#308=IFCDIRECTION((1.,0.,0.));
#309=IFCAXIS2PLACEMENT3D(#306,#307,#308);
#310=IFCLOCALPLACEMENT(#41,#309);
#311=IFCCARTESIANPOINT((0.,0.,0.));
#312=IFCDIRECTION((0.,0.,1.));
#313=IFCDIRECTION((1.,0.,0.));
#314=IFCAXIS2PLACEMENT3D(#311,#312,#313);
#315=IFCLOCALPLACEMENT(#41,#314);
#316=IFCCARTESIANPOINT((0.,0.,0.));
#317=IFCDIRECTION((0.,0.,1.));
#318=IFCDIRECTION((1.,0.,0.));
#319=IFCAXIS2PLACEMENT3D(#316,#317,#318);
#320=IFCLOCALPLACEMENT(#41,#319);
#321=IFCCARTESIANPOINT((0.,0.,0.));
#322=IFCDIRECTION((0.,0.,1.));
#323=IFCDIRECTION((1.,0.,0.));
#324=IFCAXIS2PLACEMENT3D(#321,#322,#323);
#325=IFCLOCALPLACEMENT(#41,#324);
#326=IFCCARTESIANPOINT((0.,0.,0.));
#327=IFCDIRECTION((0.,0.,1.));
#328=IFCDIRECTION((1.,0.,0.));
#329=IFCAXIS2PLACEMENT3D(#326,#327,#328);
#330=IFCLOCALPLACEMENT(#41,#329);
#331=IFCCARTESIANPOINT((0.,0.,0.));
#332=IFCDIRECTION((0.,0.,1.));
#333=IFCDIRECTION((1.,0.,0.));
#334=IFCAXIS2PLACEMENT3D(#331,#332,#333);
#335=IFCLOCALPLACEMENT(#41,#334);
#336=IFCCARTESIANPOINT((0.,0.,0.));
#337=IFCDIRECTION((0.,0.,1.));
#338=IFCDIRECTION((1.,0.,0.));
#339=IFCAXIS2PLACEMENT3D(#336,#337,#338);
#340=IFCLOCALPLACEMENT(#41,#339);
#341=IFCCARTESIANPOINT((0.,0.,0.));
#342=IFCDIRECTION((0.,0.,1.));
#343=IFCDIRECTION((1.,0.,0.));
#344=IFCAXIS2PLACEMENT3D(#341,#342,#343);
#345=IFCLOCALPLACEMENT(#41,#344);
#346=IFCCARTESIANPOINT((0.,0.,0.));
#347=IFCDIRECTION((0.,0.,1.));
#348=IFCDIRECTION((1.,0.,0.));
#349=IFCAXIS2PLACEMENT3D(#346,#347,#348);
#350=IFCLOCALPLACEMENT(#41,#349);
#351=IFCOWNERHISTORY(#3,#4,.READWRITE.,.ADDED.,1781040700,#3,#4,1781040700);
#352=IFCRELASSOCIATESMATERIAL('1JDcAKm2bEWvaqDyh$OpBx',#351,$,$,(#95,#155,#185,#69,#245,#43,#125,#215,#275),#27);
#353=IFCOWNERHISTORY(#3,#4,.READWRITE.,.ADDED.,1781040700,#3,#4,1781040700);
#354=IFCPROPERTYSET('1xbFJW0BT4ePiqqT5yVvcO',#353,'Pset_LGS_Panel',$,(#357,#358,#359,#360,#361,#362,#363,#364,#365,#366));
#355=IFCOWNERHISTORY(#3,#4,.READWRITE.,.ADDED.,1781040700,#3,#4,1781040700);
#356=IFCRELDEFINESBYPROPERTIES('0388plhe5ADx_HHI0kYasU',#355,$,$,(#29),#354);
#357=IFCPROPERTYSINGLEVALUE('StudSection',$,IFCLABEL('C150x50x16 1.6mm'),$);
#358=IFCPROPERTYSINGLEVALUE('TrackSection',$,IFCLABEL('U152x40 1.6mm'),$);
#359=IFCPROPERTYSINGLEVALUE('StudSpacing_mm',$,IFCINTEGER(600),$);
#360=IFCPROPERTYSINGLEVALUE('LoadBearing',$,IFCBOOLEAN(.T.),$);
#361=IFCPROPERTYSINGLEVALUE('IsExternal',$,IFCBOOLEAN(.T.),$);
#362=IFCPROPERTYSINGLEVALUE('FireRating',$,IFCLABEL('REI 60'),$);
#363=IFCPROPERTYSINGLEVALUE('MemberCount',$,IFCINTEGER(9),$);
#364=IFCPROPERTYSINGLEVALUE('PanelLength_m',$,IFCREAL(3.6000000000000001),$);
#365=IFCPROPERTYSINGLEVALUE('PanelHeight_m',$,IFCREAL(2.7000000000000002),$);
#366=IFCPROPERTYSINGLEVALUE('PanelThickness_m',$,IFCREAL(0.14999999999999999),$);
ENDSEC;
END-ISO-10303-21;
