ISO-10303-21;
HEADER;
FILE_DESCRIPTION(('ViewDefinition[DesignTransferView]'),'2;1');
FILE_NAME('/dev/null','2026-06-10T21:18:51+00:00',(''),(''),'IfcOpenShell 0.8.5','IfcOpenShell 0.8.5','Nobody');
FILE_SCHEMA(('IFC4'));
ENDSEC;
DATA;
#1=IFCPERSON($,'Martinez Rodriguez','Pablo',$,$,$,$,$);
#2=IFCORGANIZATION($,'Northumbria University',$,$,$);
#3=IFCPERSONANDORGANIZATION(#1,#2,$);
#4=IFCAPPLICATION(#2,'0.8','LGS Panel Generator','LGSGEN');
#5=IFCOWNERHISTORY(#3,#4,.READWRITE.,.ADDED.,1781126331,#3,#4,1781126331);
#6=IFCPROJECT('01Z7RQECn16fdMH8w_5ofk',#5,'LGS Panel Library',$,$,$,$,(#13),#8);
#7=IFCSIUNIT(*,.LENGTHUNIT.,$,.METRE.);
#8=IFCUNITASSIGNMENT((#7));
#9=IFCCARTESIANPOINT((0.,0.,0.));
#10=IFCDIRECTION((0.,0.,1.));
#11=IFCDIRECTION((1.,0.,0.));
#12=IFCAXIS2PLACEMENT3D(#9,#10,#11);
#13=IFCGEOMETRICREPRESENTATIONCONTEXT($,'Model',3,1.0000000000000001E-05,#12,$);
#14=IFCGEOMETRICREPRESENTATIONSUBCONTEXT('Body','Model',*,*,*,*,#13,$,.MODEL_VIEW.,$);
#15=IFCOWNERHISTORY(#3,#4,.READWRITE.,.ADDED.,1781126331,#3,#4,1781126331);
#16=IFCSITE('2JEm0YoxfBceH0DNIzA$$3',#15,'Site',$,$,$,$,$,$,$,$,$,$,$);
#17=IFCOWNERHISTORY(#3,#4,.READWRITE.,.ADDED.,1781126331,#3,#4,1781126331);
#18=IFCBUILDING('0C5nuywr9FyhEXU_JMh50i',#17,'Manufacturing Reference',$,$,$,$,$,$,$,$,$);
#19=IFCOWNERHISTORY(#3,#4,.READWRITE.,.ADDED.,1781126331,#3,#4,1781126331);
#20=IFCBUILDINGSTOREY('3m5nB1BrPBauoiUEgC9MMi',#19,'Level',$,$,$,$,$,$,$);
#21=IFCOWNERHISTORY(#3,#4,.READWRITE.,.ADDED.,1781126331,#3,#4,1781126331);
#22=IFCRELAGGREGATES('0ch8AaKCDE1AGX7yKlwk6q',#21,$,$,#6,(#16));
#23=IFCOWNERHISTORY(#3,#4,.READWRITE.,.ADDED.,1781126331,#3,#4,1781126331);
#24=IFCRELAGGREGATES('01K96Vn2P62OcHEXtFVxwn',#23,$,$,#16,(#18));
#25=IFCOWNERHISTORY(#3,#4,.READWRITE.,.ADDED.,1781126331,#3,#4,1781126331);
#26=IFCRELAGGREGATES('0HT5l$JlDEmBJfsVjDiNJh',#25,$,$,#18,(#20));
#27=IFCMATERIAL('Light Gauge Steel S350GD+Z',$,$);
#28=IFCOWNERHISTORY(#3,#4,.READWRITE.,.MODIFIED.,1781126331,#3,#4,1781126331);
#29=IFCELEMENTASSEMBLY('1luZGzL8T35QfeM5mze8ZI',#28,'Cantilever / Balcony Edge Floor Panel',$,$,#41,$,$,$,$);
#35=IFCOWNERHISTORY(#3,#4,.READWRITE.,.ADDED.,1781126331,#3,#4,1781126331);
#36=IFCRELCONTAINEDINSPATIALSTRUCTURE('1A8k8xllH2AB0c69FxA5aY',#35,$,$,(#29),#20);
#37=IFCCARTESIANPOINT((0.,0.,0.));
#38=IFCDIRECTION((0.,0.,1.));
#39=IFCDIRECTION((1.,0.,0.));
#40=IFCAXIS2PLACEMENT3D(#37,#38,#39);
#41=IFCLOCALPLACEMENT($,#40);
#42=IFCOWNERHISTORY(#3,#4,.READWRITE.,.MODIFIED.,1781126331,#3,#4,1781126331);
#43=IFCMEMBER('1UmRcLJEH9sORiGjpXP$Df',#42,'U254x65 2.0mm (back rim)',$,$,#381,#62,$,.PLATE.);
#44=IFCCARTESIANPOINT((0.,0.));
#45=IFCCARTESIANPOINT((0.,0.25));
#46=IFCCARTESIANPOINT((0.065000000000000002,0.25));
#47=IFCCARTESIANPOINT((0.065000000000000002,0.248));
#48=IFCCARTESIANPOINT((0.002,0.248));
#49=IFCCARTESIANPOINT((0.002,0.002));
#50=IFCCARTESIANPOINT((0.065000000000000002,0.002));
#51=IFCCARTESIANPOINT((0.065000000000000002,0.));
#52=IFCCARTESIANPOINT((0.,0.));
#53=IFCPOLYLINE((#44,#45,#46,#47,#48,#49,#50,#51,#52));
#54=IFCARBITRARYCLOSEDPROFILEDEF(.AREA.,$,#53);
#55=IFCCARTESIANPOINT((0.,0.,0.25));
#56=IFCDIRECTION((0.,1.,0.));
#57=IFCDIRECTION((1.,0.,0.));
#58=IFCAXIS2PLACEMENT3D(#55,#56,#57);
#59=IFCDIRECTION((0.,0.,1.));
#60=IFCEXTRUDEDAREASOLID(#54,#58,#59,3.6000000000000001);
#61=IFCSHAPEREPRESENTATION(#14,'Body','SweptSolid',(#60));
#62=IFCPRODUCTDEFINITIONSHAPE($,$,(#61));
#68=IFCOWNERHISTORY(#3,#4,.READWRITE.,.MODIFIED.,1781126331,#3,#4,1781126331);
#69=IFCMEMBER('3XebDUcq16FBxT2$MAaIWP',#68,'U254x65 2.0mm (support)',$,$,#371,#88,$,.MEMBER.);
#70=IFCCARTESIANPOINT((0.,0.));
#71=IFCCARTESIANPOINT((0.,0.25));
#72=IFCCARTESIANPOINT((0.065000000000000002,0.25));
#73=IFCCARTESIANPOINT((0.065000000000000002,0.248));
#74=IFCCARTESIANPOINT((0.002,0.248));
#75=IFCCARTESIANPOINT((0.002,0.002));
#76=IFCCARTESIANPOINT((0.065000000000000002,0.002));
#77=IFCCARTESIANPOINT((0.065000000000000002,0.));
#78=IFCCARTESIANPOINT((0.,0.));
#79=IFCPOLYLINE((#70,#71,#72,#73,#74,#75,#76,#77,#78));
#80=IFCARBITRARYCLOSEDPROFILEDEF(.AREA.,$,#79);
#81=IFCCARTESIANPOINT((3.,0.,0.25));
#82=IFCDIRECTION((0.,1.,0.));
#83=IFCDIRECTION((1.,0.,0.));
#84=IFCAXIS2PLACEMENT3D(#81,#82,#83);
#85=IFCDIRECTION((0.,0.,1.));
#86=IFCEXTRUDEDAREASOLID(#80,#84,#85,3.6000000000000001);
#87=IFCSHAPEREPRESENTATION(#14,'Body','SweptSolid',(#86));
#88=IFCPRODUCTDEFINITIONSHAPE($,$,(#87));
#94=IFCOWNERHISTORY(#3,#4,.READWRITE.,.MODIFIED.,1781126331,#3,#4,1781126331);
#95=IFCMEMBER('3X5nNcFcr7KvdznPDLQtoz',#94,'U254x65 2.0mm (tip rim)',$,$,#361,#114,$,.PLATE.);
#96=IFCCARTESIANPOINT((0.,0.));
#97=IFCCARTESIANPOINT((0.,0.25));
#98=IFCCARTESIANPOINT((0.065000000000000002,0.25));
#99=IFCCARTESIANPOINT((0.065000000000000002,0.248));
#100=IFCCARTESIANPOINT((0.002,0.248));
#101=IFCCARTESIANPOINT((0.002,0.002));
#102=IFCCARTESIANPOINT((0.065000000000000002,0.002));
#103=IFCCARTESIANPOINT((0.065000000000000002,0.));
#104=IFCCARTESIANPOINT((0.,0.));
#105=IFCPOLYLINE((#96,#97,#98,#99,#100,#101,#102,#103,#104));
#106=IFCARBITRARYCLOSEDPROFILEDEF(.AREA.,$,#105);
#107=IFCCARTESIANPOINT((4.2000000000000002,0.,0.));
#108=IFCDIRECTION((0.,1.,0.));
#109=IFCDIRECTION((-1.,0.,0.));
#110=IFCAXIS2PLACEMENT3D(#107,#108,#109);
#111=IFCDIRECTION((0.,0.,1.));
#112=IFCEXTRUDEDAREASOLID(#106,#110,#111,3.6000000000000001);
#113=IFCSHAPEREPRESENTATION(#14,'Body','SweptSolid',(#112));
#114=IFCPRODUCTDEFINITIONSHAPE($,$,(#113));
#120=IFCOWNERHISTORY(#3,#4,.READWRITE.,.MODIFIED.,1781126331,#3,#4,1781126331);
#121=IFCBEAM('0XmgVKrfbANxHpcoOXqlue',#120,'C250x65x20 2.0mm (joist)',$,$,#351,#144,$,.JOIST.);
#122=IFCCARTESIANPOINT((0.,0.));
#123=IFCCARTESIANPOINT((0.,0.25));
#124=IFCCARTESIANPOINT((0.065000000000000002,0.25));
#125=IFCCARTESIANPOINT((0.065000000000000002,0.23000000000000001));
#126=IFCCARTESIANPOINT((0.063,0.23000000000000001));
#127=IFCCARTESIANPOINT((0.063,0.248));
#128=IFCCARTESIANPOINT((0.002,0.248));
#129=IFCCARTESIANPOINT((0.002,0.002));
#130=IFCCARTESIANPOINT((0.063,0.002));
#131=IFCCARTESIANPOINT((0.063,0.02));
#132=IFCCARTESIANPOINT((0.065000000000000002,0.02));
#133=IFCCARTESIANPOINT((0.065000000000000002,0.));
#134=IFCCARTESIANPOINT((0.,0.));
#135=IFCPOLYLINE((#122,#123,#124,#125,#126,#127,#128,#129,#130,#131,#132,#133,#134));
#136=IFCARBITRARYCLOSEDPROFILEDEF(.AREA.,$,#135);
#137=IFCCARTESIANPOINT((0.,-0.032500000000000001,0.));
#138=IFCDIRECTION((1.,0.,0.));
#139=IFCDIRECTION((0.,1.,0.));
#140=IFCAXIS2PLACEMENT3D(#137,#138,#139);
#141=IFCDIRECTION((0.,0.,1.));
#142=IFCEXTRUDEDAREASOLID(#136,#140,#141,4.2000000000000002);
#143=IFCSHAPEREPRESENTATION(#14,'Body','SweptSolid',(#142));
#144=IFCPRODUCTDEFINITIONSHAPE($,$,(#143));
#150=IFCOWNERHISTORY(#3,#4,.READWRITE.,.MODIFIED.,1781126331,#3,#4,1781126331);
#151=IFCBEAM('0u6CNQvuv9dgl5ml9P_V8c',#150,'C250x65x20 2.0mm (joist)',$,$,#346,#174,$,.JOIST.);
#152=IFCCARTESIANPOINT((0.,0.));
#153=IFCCARTESIANPOINT((0.,0.25));
#154=IFCCARTESIANPOINT((0.065000000000000002,0.25));
#155=IFCCARTESIANPOINT((0.065000000000000002,0.23000000000000001));
#156=IFCCARTESIANPOINT((0.063,0.23000000000000001));
#157=IFCCARTESIANPOINT((0.063,0.248));
#158=IFCCARTESIANPOINT((0.002,0.248));
#159=IFCCARTESIANPOINT((0.002,0.002));
#160=IFCCARTESIANPOINT((0.063,0.002));
#161=IFCCARTESIANPOINT((0.063,0.02));
#162=IFCCARTESIANPOINT((0.065000000000000002,0.02));
#163=IFCCARTESIANPOINT((0.065000000000000002,0.));
#164=IFCCARTESIANPOINT((0.,0.));
#165=IFCPOLYLINE((#152,#153,#154,#155,#156,#157,#158,#159,#160,#161,#162,#163,#164));
#166=IFCARBITRARYCLOSEDPROFILEDEF(.AREA.,$,#165);
#167=IFCCARTESIANPOINT((0.,0.5675,0.));
#168=IFCDIRECTION((1.,0.,0.));
#169=IFCDIRECTION((0.,1.,0.));
#170=IFCAXIS2PLACEMENT3D(#167,#168,#169);
#171=IFCDIRECTION((0.,0.,1.));
#172=IFCEXTRUDEDAREASOLID(#166,#170,#171,4.2000000000000002);
#173=IFCSHAPEREPRESENTATION(#14,'Body','SweptSolid',(#172));
#174=IFCPRODUCTDEFINITIONSHAPE($,$,(#173));
#180=IFCOWNERHISTORY(#3,#4,.READWRITE.,.MODIFIED.,1781126331,#3,#4,1781126331);
#181=IFCBEAM('1oscI2TPX35AfJBWpY_H7Y',#180,'C250x65x20 2.0mm (joist)',$,$,#376,#204,$,.JOIST.);
#182=IFCCARTESIANPOINT((0.,0.));
#183=IFCCARTESIANPOINT((0.,0.25));
#184=IFCCARTESIANPOINT((0.065000000000000002,0.25));
#185=IFCCARTESIANPOINT((0.065000000000000002,0.23000000000000001));
#186=IFCCARTESIANPOINT((0.063,0.23000000000000001));
#187=IFCCARTESIANPOINT((0.063,0.248));
#188=IFCCARTESIANPOINT((0.002,0.248));
#189=IFCCARTESIANPOINT((0.002,0.002));
#190=IFCCARTESIANPOINT((0.063,0.002));
#191=IFCCARTESIANPOINT((0.063,0.02));
#192=IFCCARTESIANPOINT((0.065000000000000002,0.02));
#193=IFCCARTESIANPOINT((0.065000000000000002,0.));
#194=IFCCARTESIANPOINT((0.,0.));
#195=IFCPOLYLINE((#182,#183,#184,#185,#186,#187,#188,#189,#190,#191,#192,#193,#194));
#196=IFCARBITRARYCLOSEDPROFILEDEF(.AREA.,$,#195);
#197=IFCCARTESIANPOINT((0.,1.1675,0.));
#198=IFCDIRECTION((1.,0.,0.));
#199=IFCDIRECTION((0.,1.,0.));
#200=IFCAXIS2PLACEMENT3D(#197,#198,#199);
#201=IFCDIRECTION((0.,0.,1.));
#202=IFCEXTRUDEDAREASOLID(#196,#200,#201,4.2000000000000002);
#203=IFCSHAPEREPRESENTATION(#14,'Body','SweptSolid',(#202));
#204=IFCPRODUCTDEFINITIONSHAPE($,$,(#203));
#210=IFCOWNERHISTORY(#3,#4,.READWRITE.,.MODIFIED.,1781126331,#3,#4,1781126331);
#211=IFCBEAM('2vFTmqajD9gAMuW8SVzM23',#210,'C250x65x20 2.0mm (joist)',$,$,#356,#234,$,.JOIST.);
#212=IFCCARTESIANPOINT((0.,0.));
#213=IFCCARTESIANPOINT((0.,0.25));
#214=IFCCARTESIANPOINT((0.065000000000000002,0.25));
#215=IFCCARTESIANPOINT((0.065000000000000002,0.23000000000000001));
#216=IFCCARTESIANPOINT((0.063,0.23000000000000001));
#217=IFCCARTESIANPOINT((0.063,0.248));
#218=IFCCARTESIANPOINT((0.002,0.248));
#219=IFCCARTESIANPOINT((0.002,0.002));
#220=IFCCARTESIANPOINT((0.063,0.002));
#221=IFCCARTESIANPOINT((0.063,0.02));
#222=IFCCARTESIANPOINT((0.065000000000000002,0.02));
#223=IFCCARTESIANPOINT((0.065000000000000002,0.));
#224=IFCCARTESIANPOINT((0.,0.));
#225=IFCPOLYLINE((#212,#213,#214,#215,#216,#217,#218,#219,#220,#221,#222,#223,#224));
#226=IFCARBITRARYCLOSEDPROFILEDEF(.AREA.,$,#225);
#227=IFCCARTESIANPOINT((0.,1.7675000000000001,0.));
#228=IFCDIRECTION((1.,0.,0.));
#229=IFCDIRECTION((0.,1.,0.));
#230=IFCAXIS2PLACEMENT3D(#227,#228,#229);
#231=IFCDIRECTION((0.,0.,1.));
#232=IFCEXTRUDEDAREASOLID(#226,#230,#231,4.2000000000000002);
#233=IFCSHAPEREPRESENTATION(#14,'Body','SweptSolid',(#232));
#234=IFCPRODUCTDEFINITIONSHAPE($,$,(#233));
#240=IFCOWNERHISTORY(#3,#4,.READWRITE.,.MODIFIED.,1781126331,#3,#4,1781126331);
#241=IFCBEAM('2O_fc4_Pz6BAWcu7BI7mrX',#240,'C250x65x20 2.0mm (joist)',$,$,#336,#264,$,.JOIST.);
#242=IFCCARTESIANPOINT((0.,0.));
#243=IFCCARTESIANPOINT((0.,0.25));
#244=IFCCARTESIANPOINT((0.065000000000000002,0.25));
#245=IFCCARTESIANPOINT((0.065000000000000002,0.23000000000000001));
#246=IFCCARTESIANPOINT((0.063,0.23000000000000001));
#247=IFCCARTESIANPOINT((0.063,0.248));
#248=IFCCARTESIANPOINT((0.002,0.248));
#249=IFCCARTESIANPOINT((0.002,0.002));
#250=IFCCARTESIANPOINT((0.063,0.002));
#251=IFCCARTESIANPOINT((0.063,0.02));
#252=IFCCARTESIANPOINT((0.065000000000000002,0.02));
#253=IFCCARTESIANPOINT((0.065000000000000002,0.));
#254=IFCCARTESIANPOINT((0.,0.));
#255=IFCPOLYLINE((#242,#243,#244,#245,#246,#247,#248,#249,#250,#251,#252,#253,#254));
#256=IFCARBITRARYCLOSEDPROFILEDEF(.AREA.,$,#255);
#257=IFCCARTESIANPOINT((0.,2.3674999999999997,0.));
#258=IFCDIRECTION((1.,0.,0.));
#259=IFCDIRECTION((0.,1.,0.));
#260=IFCAXIS2PLACEMENT3D(#257,#258,#259);
#261=IFCDIRECTION((0.,0.,1.));
#262=IFCEXTRUDEDAREASOLID(#256,#260,#261,4.2000000000000002);
#263=IFCSHAPEREPRESENTATION(#14,'Body','SweptSolid',(#262));
#264=IFCPRODUCTDEFINITIONSHAPE($,$,(#263));
#270=IFCOWNERHISTORY(#3,#4,.READWRITE.,.MODIFIED.,1781126331,#3,#4,1781126331);
#271=IFCBEAM('1FQp1eQNnCWvx_UUaVfLSX',#270,'C250x65x20 2.0mm (joist)',$,$,#366,#294,$,.JOIST.);
#272=IFCCARTESIANPOINT((0.,0.));
#273=IFCCARTESIANPOINT((0.,0.25));
#274=IFCCARTESIANPOINT((0.065000000000000002,0.25));
#275=IFCCARTESIANPOINT((0.065000000000000002,0.23000000000000001));
#276=IFCCARTESIANPOINT((0.063,0.23000000000000001));
#277=IFCCARTESIANPOINT((0.063,0.248));
#278=IFCCARTESIANPOINT((0.002,0.248));
#279=IFCCARTESIANPOINT((0.002,0.002));
#280=IFCCARTESIANPOINT((0.063,0.002));
#281=IFCCARTESIANPOINT((0.063,0.02));
#282=IFCCARTESIANPOINT((0.065000000000000002,0.02));
#283=IFCCARTESIANPOINT((0.065000000000000002,0.));
#284=IFCCARTESIANPOINT((0.,0.));
#285=IFCPOLYLINE((#272,#273,#274,#275,#276,#277,#278,#279,#280,#281,#282,#283,#284));
#286=IFCARBITRARYCLOSEDPROFILEDEF(.AREA.,$,#285);
#287=IFCCARTESIANPOINT((0.,2.9674999999999998,0.));
#288=IFCDIRECTION((1.,0.,0.));
#289=IFCDIRECTION((0.,1.,0.));
#290=IFCAXIS2PLACEMENT3D(#287,#288,#289);
#291=IFCDIRECTION((0.,0.,1.));
#292=IFCEXTRUDEDAREASOLID(#286,#290,#291,4.2000000000000002);
#293=IFCSHAPEREPRESENTATION(#14,'Body','SweptSolid',(#292));
#294=IFCPRODUCTDEFINITIONSHAPE($,$,(#293));
#300=IFCOWNERHISTORY(#3,#4,.READWRITE.,.MODIFIED.,1781126331,#3,#4,1781126331);
#301=IFCBEAM('2PO39FpPbDYQdpU7JnF57L',#300,'C250x65x20 2.0mm (joist)',$,$,#341,#324,$,.JOIST.);
#302=IFCCARTESIANPOINT((0.,0.));
#303=IFCCARTESIANPOINT((0.,0.25));
#304=IFCCARTESIANPOINT((0.065000000000000002,0.25));
#305=IFCCARTESIANPOINT((0.065000000000000002,0.23000000000000001));
#306=IFCCARTESIANPOINT((0.063,0.23000000000000001));
#307=IFCCARTESIANPOINT((0.063,0.248));
#308=IFCCARTESIANPOINT((0.002,0.248));
#309=IFCCARTESIANPOINT((0.002,0.002));
#310=IFCCARTESIANPOINT((0.063,0.002));
#311=IFCCARTESIANPOINT((0.063,0.02));
#312=IFCCARTESIANPOINT((0.065000000000000002,0.02));
#313=IFCCARTESIANPOINT((0.065000000000000002,0.));
#314=IFCCARTESIANPOINT((0.,0.));
#315=IFCPOLYLINE((#302,#303,#304,#305,#306,#307,#308,#309,#310,#311,#312,#313,#314));
#316=IFCARBITRARYCLOSEDPROFILEDEF(.AREA.,$,#315);
#317=IFCCARTESIANPOINT((0.,3.5674999999999999,0.));
#318=IFCDIRECTION((1.,0.,0.));
#319=IFCDIRECTION((0.,1.,0.));
#320=IFCAXIS2PLACEMENT3D(#317,#318,#319);
#321=IFCDIRECTION((0.,0.,1.));
#322=IFCEXTRUDEDAREASOLID(#316,#320,#321,4.2000000000000002);
#323=IFCSHAPEREPRESENTATION(#14,'Body','SweptSolid',(#322));
#324=IFCPRODUCTDEFINITIONSHAPE($,$,(#323));
#330=IFCOWNERHISTORY(#3,#4,.READWRITE.,.ADDED.,1781126331,#3,#4,1781126331);
#331=IFCRELAGGREGATES('2hq50Fa5527fm1UC5BFPZR',#330,$,$,#29,(#241,#301,#151,#121,#211,#95,#271,#69,#181,#43));
#332=IFCCARTESIANPOINT((0.,0.,0.));
#333=IFCDIRECTION((0.,0.,1.));
#334=IFCDIRECTION((1.,0.,0.));
#335=IFCAXIS2PLACEMENT3D(#332,#333,#334);
#336=IFCLOCALPLACEMENT(#41,#335);
#337=IFCCARTESIANPOINT((0.,0.,0.));
#338=IFCDIRECTION((0.,0.,1.));
#339=IFCDIRECTION((1.,0.,0.));
#340=IFCAXIS2PLACEMENT3D(#337,#338,#339);
#341=IFCLOCALPLACEMENT(#41,#340);
#342=IFCCARTESIANPOINT((0.,0.,0.));
#343=IFCDIRECTION((0.,0.,1.));
#344=IFCDIRECTION((1.,0.,0.));
#345=IFCAXIS2PLACEMENT3D(#342,#343,#344);
#346=IFCLOCALPLACEMENT(#41,#345);
#347=IFCCARTESIANPOINT((0.,0.,0.));
#348=IFCDIRECTION((0.,0.,1.));
#349=IFCDIRECTION((1.,0.,0.));
#350=IFCAXIS2PLACEMENT3D(#347,#348,#349);
#351=IFCLOCALPLACEMENT(#41,#350);
#352=IFCCARTESIANPOINT((0.,0.,0.));
#353=IFCDIRECTION((0.,0.,1.));
#354=IFCDIRECTION((1.,0.,0.));
#355=IFCAXIS2PLACEMENT3D(#352,#353,#354);
#356=IFCLOCALPLACEMENT(#41,#355);
#357=IFCCARTESIANPOINT((0.,0.,0.));
#358=IFCDIRECTION((0.,0.,1.));
#359=IFCDIRECTION((1.,0.,0.));
#360=IFCAXIS2PLACEMENT3D(#357,#358,#359);
#361=IFCLOCALPLACEMENT(#41,#360);
#362=IFCCARTESIANPOINT((0.,0.,0.));
#363=IFCDIRECTION((0.,0.,1.));
#364=IFCDIRECTION((1.,0.,0.));
#365=IFCAXIS2PLACEMENT3D(#362,#363,#364);
#366=IFCLOCALPLACEMENT(#41,#365);
#367=IFCCARTESIANPOINT((0.,0.,0.));
#368=IFCDIRECTION((0.,0.,1.));
#369=IFCDIRECTION((1.,0.,0.));
#370=IFCAXIS2PLACEMENT3D(#367,#368,#369);
#371=IFCLOCALPLACEMENT(#41,#370);
#372=IFCCARTESIANPOINT((0.,0.,0.));
#373=IFCDIRECTION((0.,0.,1.));
#374=IFCDIRECTION((1.,0.,0.));
#375=IFCAXIS2PLACEMENT3D(#372,#373,#374);
#376=IFCLOCALPLACEMENT(#41,#375);
#377=IFCCARTESIANPOINT((0.,0.,0.));
#378=IFCDIRECTION((0.,0.,1.));
#379=IFCDIRECTION((1.,0.,0.));
#380=IFCAXIS2PLACEMENT3D(#377,#378,#379);
#381=IFCLOCALPLACEMENT(#41,#380);
#382=IFCOWNERHISTORY(#3,#4,.READWRITE.,.ADDED.,1781126331,#3,#4,1781126331);
#383=IFCRELASSOCIATESMATERIAL('0xf2kwzWj49PrUiwbWA7xp',#382,$,$,(#241,#301,#151,#121,#211,#95,#271,#69,#181,#43),#27);
#384=IFCOWNERHISTORY(#3,#4,.READWRITE.,.ADDED.,1781126331,#3,#4,1781126331);
#385=IFCPROPERTYSET('0MMtLDhHr69PCCuAqW4zs8',#384,'Pset_LGS_Panel',$,(#388,#389,#390,#391,#392,#393,#394));
#386=IFCOWNERHISTORY(#3,#4,.READWRITE.,.ADDED.,1781126331,#3,#4,1781126331);
#387=IFCRELDEFINESBYPROPERTIES('0YaDp67dTFfRQQjV1Hgn3d',#386,$,$,(#29),#385);
#388=IFCPROPERTYSINGLEVALUE('LoadBearing',$,IFCBOOLEAN(.T.),$);
#389=IFCPROPERTYSINGLEVALUE('IsExternal',$,IFCBOOLEAN(.T.),$);
#390=IFCPROPERTYSINGLEVALUE('StudSpacing_mm',$,IFCINTEGER(600),$);
#391=IFCPROPERTYSINGLEVALUE('MemberCount',$,IFCINTEGER(10),$);
#392=IFCPROPERTYSINGLEVALUE('Category',$,IFCLABEL('FLOOR'),$);
#393=IFCPROPERTYSINGLEVALUE('JoistSection',$,IFCLABEL('C250x65x20 2.0mm'),$);
#394=IFCPROPERTYSINGLEVALUE('TrackSection',$,IFCLABEL('U254x65 2.0mm'),$);
ENDSEC;
END-ISO-10303-21;
