ISO-10303-21;
HEADER;
FILE_DESCRIPTION(('ViewDefinition[DesignTransferView]'),'2;1');
FILE_NAME('/dev/null','2026-06-10T21:18:51+00:00',(''),(''),'IfcOpenShell 0.8.5','IfcOpenShell 0.8.5','Nobody');
FILE_SCHEMA(('IFC2X3'));
ENDSEC;
DATA;
#1=IFCPERSON($,'Martinez Rodriguez','Pablo',$,$,$,$,$);
#2=IFCORGANIZATION($,'Northumbria University',$,$,$);
#3=IFCPERSONANDORGANIZATION(#1,#2,$);
#4=IFCAPPLICATION(#2,'0.8','LGS Panel Generator','LGSGEN');
#5=IFCOWNERHISTORY(#3,#4,.READWRITE.,.ADDED.,1781126331,#3,#4,1781126331);
#6=IFCPROJECT('02CkotZCb26QH$3P8IXd68',#5,'LGS Panel Library',$,$,$,$,(#13),#8);
#7=IFCSIUNIT(*,.LENGTHUNIT.,$,.METRE.);
#8=IFCUNITASSIGNMENT((#7));
#9=IFCCARTESIANPOINT((0.,0.,0.));
#10=IFCDIRECTION((0.,0.,1.));
#11=IFCDIRECTION((1.,0.,0.));
#12=IFCAXIS2PLACEMENT3D(#9,#10,#11);
#13=IFCGEOMETRICREPRESENTATIONCONTEXT($,'Model',3,1.0000000000000001E-05,#12,$);
#14=IFCGEOMETRICREPRESENTATIONSUBCONTEXT('Body','Model',*,*,*,*,#13,$,.MODEL_VIEW.,$);
#15=IFCOWNERHISTORY(#3,#4,.READWRITE.,.ADDED.,1781126331,#3,#4,1781126331);
#16=IFCSITE('3juaz$nsr1PxfqXhBkoc$h',#15,'Site',$,$,$,$,$,.ELEMENT.,$,$,$,$,$);
#17=IFCOWNERHISTORY(#3,#4,.READWRITE.,.ADDED.,1781126331,#3,#4,1781126331);
#18=IFCBUILDING('1Mp1o32OvDXgpYcHBg6gyL',#17,'Manufacturing Reference',$,$,$,$,$,.ELEMENT.,$,$,$);
#19=IFCOWNERHISTORY(#3,#4,.READWRITE.,.ADDED.,1781126331,#3,#4,1781126331);
#20=IFCBUILDINGSTOREY('3gloZo5sn3B8gt1Kq_OXq_',#19,'Level',$,$,$,$,$,.ELEMENT.,$);
#21=IFCOWNERHISTORY(#3,#4,.READWRITE.,.ADDED.,1781126331,#3,#4,1781126331);
#22=IFCRELAGGREGATES('1BBwu74Uz4cAaZSA7qfBPl',#21,$,$,#6,(#16));
#23=IFCOWNERHISTORY(#3,#4,.READWRITE.,.ADDED.,1781126331,#3,#4,1781126331);
#24=IFCRELAGGREGATES('1VFkmCgjXAAPp9IN4WwOOO',#23,$,$,#16,(#18));
#25=IFCOWNERHISTORY(#3,#4,.READWRITE.,.ADDED.,1781126331,#3,#4,1781126331);
#26=IFCRELAGGREGATES('1jg_ZdDMH2C9BHeVCriCIt',#25,$,$,#18,(#20));
#27=IFCMATERIAL('Light Gauge Steel S350GD+Z');
#28=IFCOWNERHISTORY(#3,#4,.READWRITE.,.MODIFIED.,1781126331,#3,#4,1781126331);
#29=IFCELEMENTASSEMBLY('3RxKqp4Kv6BRD$EWY2aTsc',#28,'Floor Cassette (standard)',$,$,#41,$,$,$,$);
#35=IFCOWNERHISTORY(#3,#4,.READWRITE.,.ADDED.,1781126331,#3,#4,1781126331);
#36=IFCRELCONTAINEDINSPATIALSTRUCTURE('27stYa0lXA$8kiIx1Q3vxL',#35,$,$,(#29),#20);
#37=IFCCARTESIANPOINT((0.,0.,0.));
#38=IFCDIRECTION((0.,0.,1.));
#39=IFCDIRECTION((1.,0.,0.));
#40=IFCAXIS2PLACEMENT3D(#37,#38,#39);
#41=IFCLOCALPLACEMENT($,#40);
#42=IFCOWNERHISTORY(#3,#4,.READWRITE.,.MODIFIED.,1781126332,#3,#4,1781126331);
#43=IFCMEMBER('26Mn9DlDH7JuB5H$nx7kIr',#42,'U254x65 2.0mm (rim)',$,$,#330,#62,$);
#44=IFCCARTESIANPOINT((0.,0.));
#45=IFCCARTESIANPOINT((0.,0.25));
#46=IFCCARTESIANPOINT((0.065000000000000002,0.25));
#47=IFCCARTESIANPOINT((0.065000000000000002,0.248));
#48=IFCCARTESIANPOINT((0.002,0.248));
#49=IFCCARTESIANPOINT((0.002,0.002));
#50=IFCCARTESIANPOINT((0.065000000000000002,0.002));
#51=IFCCARTESIANPOINT((0.065000000000000002,0.));
#52=IFCCARTESIANPOINT((0.,0.));
#53=IFCPOLYLINE((#44,#45,#46,#47,#48,#49,#50,#51,#52));
#54=IFCARBITRARYCLOSEDPROFILEDEF(.AREA.,$,#53);
#55=IFCCARTESIANPOINT((0.,0.,0.25));
#56=IFCDIRECTION((0.,1.,0.));
#57=IFCDIRECTION((1.,0.,0.));
#58=IFCAXIS2PLACEMENT3D(#55,#56,#57);
#59=IFCDIRECTION((0.,0.,1.));
#60=IFCEXTRUDEDAREASOLID(#54,#58,#59,3.6000000000000001);
#61=IFCSHAPEREPRESENTATION(#14,'Body','SweptSolid',(#60));
#62=IFCPRODUCTDEFINITIONSHAPE($,$,(#61));
#68=IFCOWNERHISTORY(#3,#4,.READWRITE.,.MODIFIED.,1781126332,#3,#4,1781126331);
#69=IFCMEMBER('3dgAu24Hb4IwrlNtKz7UjD',#68,'U254x65 2.0mm (rim)',$,$,#325,#88,$);
#70=IFCCARTESIANPOINT((0.,0.));
#71=IFCCARTESIANPOINT((0.,0.25));
#72=IFCCARTESIANPOINT((0.065000000000000002,0.25));
#73=IFCCARTESIANPOINT((0.065000000000000002,0.248));
#74=IFCCARTESIANPOINT((0.002,0.248));
#75=IFCCARTESIANPOINT((0.002,0.002));
#76=IFCCARTESIANPOINT((0.065000000000000002,0.002));
#77=IFCCARTESIANPOINT((0.065000000000000002,0.));
#78=IFCCARTESIANPOINT((0.,0.));
#79=IFCPOLYLINE((#70,#71,#72,#73,#74,#75,#76,#77,#78));
#80=IFCARBITRARYCLOSEDPROFILEDEF(.AREA.,$,#79);
#81=IFCCARTESIANPOINT((4.,0.,0.));
#82=IFCDIRECTION((0.,1.,0.));
#83=IFCDIRECTION((-1.,0.,0.));
#84=IFCAXIS2PLACEMENT3D(#81,#82,#83);
#85=IFCDIRECTION((0.,0.,1.));
#86=IFCEXTRUDEDAREASOLID(#80,#84,#85,3.6000000000000001);
#87=IFCSHAPEREPRESENTATION(#14,'Body','SweptSolid',(#86));
#88=IFCPRODUCTDEFINITIONSHAPE($,$,(#87));
#94=IFCOWNERHISTORY(#3,#4,.READWRITE.,.MODIFIED.,1781126332,#3,#4,1781126331);
#95=IFCBEAM('1PCPwS_oXEg8KEYwQDkLsF',#94,'C250x65x20 2.0mm (joist)',$,$,#310,#118,$);
#96=IFCCARTESIANPOINT((0.,0.));
#97=IFCCARTESIANPOINT((0.,0.25));
#98=IFCCARTESIANPOINT((0.065000000000000002,0.25));
#99=IFCCARTESIANPOINT((0.065000000000000002,0.23000000000000001));
#100=IFCCARTESIANPOINT((0.063,0.23000000000000001));
#101=IFCCARTESIANPOINT((0.063,0.248));
#102=IFCCARTESIANPOINT((0.002,0.248));
#103=IFCCARTESIANPOINT((0.002,0.002));
#104=IFCCARTESIANPOINT((0.063,0.002));
#105=IFCCARTESIANPOINT((0.063,0.02));
#106=IFCCARTESIANPOINT((0.065000000000000002,0.02));
#107=IFCCARTESIANPOINT((0.065000000000000002,0.));
#108=IFCCARTESIANPOINT((0.,0.));
#109=IFCPOLYLINE((#96,#97,#98,#99,#100,#101,#102,#103,#104,#105,#106,#107,#108));
#110=IFCARBITRARYCLOSEDPROFILEDEF(.AREA.,$,#109);
#111=IFCCARTESIANPOINT((0.,-0.032500000000000001,0.));
#112=IFCDIRECTION((1.,0.,0.));
#113=IFCDIRECTION((0.,1.,0.));
#114=IFCAXIS2PLACEMENT3D(#111,#112,#113);
#115=IFCDIRECTION((0.,0.,1.));
#116=IFCEXTRUDEDAREASOLID(#110,#114,#115,4.);
#117=IFCSHAPEREPRESENTATION(#14,'Body','SweptSolid',(#116));
#118=IFCPRODUCTDEFINITIONSHAPE($,$,(#117));
#124=IFCOWNERHISTORY(#3,#4,.READWRITE.,.MODIFIED.,1781126332,#3,#4,1781126331);
#125=IFCBEAM('2QbeEK$yP0NA6LFuLAiN4V',#124,'C250x65x20 2.0mm (joist)',$,$,#335,#148,$);
#126=IFCCARTESIANPOINT((0.,0.));
#127=IFCCARTESIANPOINT((0.,0.25));
#128=IFCCARTESIANPOINT((0.065000000000000002,0.25));
#129=IFCCARTESIANPOINT((0.065000000000000002,0.23000000000000001));
#130=IFCCARTESIANPOINT((0.063,0.23000000000000001));
#131=IFCCARTESIANPOINT((0.063,0.248));
#132=IFCCARTESIANPOINT((0.002,0.248));
#133=IFCCARTESIANPOINT((0.002,0.002));
#134=IFCCARTESIANPOINT((0.063,0.002));
#135=IFCCARTESIANPOINT((0.063,0.02));
#136=IFCCARTESIANPOINT((0.065000000000000002,0.02));
#137=IFCCARTESIANPOINT((0.065000000000000002,0.));
#138=IFCCARTESIANPOINT((0.,0.));
#139=IFCPOLYLINE((#126,#127,#128,#129,#130,#131,#132,#133,#134,#135,#136,#137,#138));
#140=IFCARBITRARYCLOSEDPROFILEDEF(.AREA.,$,#139);
#141=IFCCARTESIANPOINT((0.,0.5675,0.));
#142=IFCDIRECTION((1.,0.,0.));
#143=IFCDIRECTION((0.,1.,0.));
#144=IFCAXIS2PLACEMENT3D(#141,#142,#143);
#145=IFCDIRECTION((0.,0.,1.));
#146=IFCEXTRUDEDAREASOLID(#140,#144,#145,4.);
#147=IFCSHAPEREPRESENTATION(#14,'Body','SweptSolid',(#146));
#148=IFCPRODUCTDEFINITIONSHAPE($,$,(#147));
#154=IFCOWNERHISTORY(#3,#4,.READWRITE.,.MODIFIED.,1781126332,#3,#4,1781126331);
#155=IFCBEAM('0_62tSBVz6Afd4P9cfh768',#154,'C250x65x20 2.0mm (joist)',$,$,#340,#178,$);
#156=IFCCARTESIANPOINT((0.,0.));
#157=IFCCARTESIANPOINT((0.,0.25));
#158=IFCCARTESIANPOINT((0.065000000000000002,0.25));
#159=IFCCARTESIANPOINT((0.065000000000000002,0.23000000000000001));
#160=IFCCARTESIANPOINT((0.063,0.23000000000000001));
#161=IFCCARTESIANPOINT((0.063,0.248));
#162=IFCCARTESIANPOINT((0.002,0.248));
#163=IFCCARTESIANPOINT((0.002,0.002));
#164=IFCCARTESIANPOINT((0.063,0.002));
#165=IFCCARTESIANPOINT((0.063,0.02));
#166=IFCCARTESIANPOINT((0.065000000000000002,0.02));
#167=IFCCARTESIANPOINT((0.065000000000000002,0.));
#168=IFCCARTESIANPOINT((0.,0.));
#169=IFCPOLYLINE((#156,#157,#158,#159,#160,#161,#162,#163,#164,#165,#166,#167,#168));
#170=IFCARBITRARYCLOSEDPROFILEDEF(.AREA.,$,#169);
#171=IFCCARTESIANPOINT((0.,1.1675,0.));
#172=IFCDIRECTION((1.,0.,0.));
#173=IFCDIRECTION((0.,1.,0.));
#174=IFCAXIS2PLACEMENT3D(#171,#172,#173);
#175=IFCDIRECTION((0.,0.,1.));
#176=IFCEXTRUDEDAREASOLID(#170,#174,#175,4.);
#177=IFCSHAPEREPRESENTATION(#14,'Body','SweptSolid',(#176));
#178=IFCPRODUCTDEFINITIONSHAPE($,$,(#177));
#184=IFCOWNERHISTORY(#3,#4,.READWRITE.,.MODIFIED.,1781126332,#3,#4,1781126331);
#185=IFCBEAM('2WfbMVYxvFivAiawTTnEtl',#184,'C250x65x20 2.0mm (joist)',$,$,#315,#208,$);
#186=IFCCARTESIANPOINT((0.,0.));
#187=IFCCARTESIANPOINT((0.,0.25));
#188=IFCCARTESIANPOINT((0.065000000000000002,0.25));
#189=IFCCARTESIANPOINT((0.065000000000000002,0.23000000000000001));
#190=IFCCARTESIANPOINT((0.063,0.23000000000000001));
#191=IFCCARTESIANPOINT((0.063,0.248));
#192=IFCCARTESIANPOINT((0.002,0.248));
#193=IFCCARTESIANPOINT((0.002,0.002));
#194=IFCCARTESIANPOINT((0.063,0.002));
#195=IFCCARTESIANPOINT((0.063,0.02));
#196=IFCCARTESIANPOINT((0.065000000000000002,0.02));
#197=IFCCARTESIANPOINT((0.065000000000000002,0.));
#198=IFCCARTESIANPOINT((0.,0.));
#199=IFCPOLYLINE((#186,#187,#188,#189,#190,#191,#192,#193,#194,#195,#196,#197,#198));
#200=IFCARBITRARYCLOSEDPROFILEDEF(.AREA.,$,#199);
#201=IFCCARTESIANPOINT((0.,1.7675000000000001,0.));
#202=IFCDIRECTION((1.,0.,0.));
#203=IFCDIRECTION((0.,1.,0.));
#204=IFCAXIS2PLACEMENT3D(#201,#202,#203);
#205=IFCDIRECTION((0.,0.,1.));
#206=IFCEXTRUDEDAREASOLID(#200,#204,#205,4.);
#207=IFCSHAPEREPRESENTATION(#14,'Body','SweptSolid',(#206));
#208=IFCPRODUCTDEFINITIONSHAPE($,$,(#207));
#214=IFCOWNERHISTORY(#3,#4,.READWRITE.,.MODIFIED.,1781126332,#3,#4,1781126332);
#215=IFCBEAM('0vJvN8nhj51fDhZNjndQ6O',#214,'C250x65x20 2.0mm (joist)',$,$,#350,#238,$);
#216=IFCCARTESIANPOINT((0.,0.));
#217=IFCCARTESIANPOINT((0.,0.25));
#218=IFCCARTESIANPOINT((0.065000000000000002,0.25));
#219=IFCCARTESIANPOINT((0.065000000000000002,0.23000000000000001));
#220=IFCCARTESIANPOINT((0.063,0.23000000000000001));
#221=IFCCARTESIANPOINT((0.063,0.248));
#222=IFCCARTESIANPOINT((0.002,0.248));
#223=IFCCARTESIANPOINT((0.002,0.002));
#224=IFCCARTESIANPOINT((0.063,0.002));
#225=IFCCARTESIANPOINT((0.063,0.02));
#226=IFCCARTESIANPOINT((0.065000000000000002,0.02));
#227=IFCCARTESIANPOINT((0.065000000000000002,0.));
#228=IFCCARTESIANPOINT((0.,0.));
#229=IFCPOLYLINE((#216,#217,#218,#219,#220,#221,#222,#223,#224,#225,#226,#227,#228));
#230=IFCARBITRARYCLOSEDPROFILEDEF(.AREA.,$,#229);
#231=IFCCARTESIANPOINT((0.,2.3674999999999997,0.));
#232=IFCDIRECTION((1.,0.,0.));
#233=IFCDIRECTION((0.,1.,0.));
#234=IFCAXIS2PLACEMENT3D(#231,#232,#233);
#235=IFCDIRECTION((0.,0.,1.));
#236=IFCEXTRUDEDAREASOLID(#230,#234,#235,4.);
#237=IFCSHAPEREPRESENTATION(#14,'Body','SweptSolid',(#236));
#238=IFCPRODUCTDEFINITIONSHAPE($,$,(#237));
#244=IFCOWNERHISTORY(#3,#4,.READWRITE.,.MODIFIED.,1781126332,#3,#4,1781126332);
#245=IFCBEAM('1fN5mXvOn5nxQouOujtHNH',#244,'C250x65x20 2.0mm (joist)',$,$,#320,#268,$);
#246=IFCCARTESIANPOINT((0.,0.));
#247=IFCCARTESIANPOINT((0.,0.25));
#248=IFCCARTESIANPOINT((0.065000000000000002,0.25));
#249=IFCCARTESIANPOINT((0.065000000000000002,0.23000000000000001));
#250=IFCCARTESIANPOINT((0.063,0.23000000000000001));
#251=IFCCARTESIANPOINT((0.063,0.248));
#252=IFCCARTESIANPOINT((0.002,0.248));
#253=IFCCARTESIANPOINT((0.002,0.002));
#254=IFCCARTESIANPOINT((0.063,0.002));
#255=IFCCARTESIANPOINT((0.063,0.02));
#256=IFCCARTESIANPOINT((0.065000000000000002,0.02));
#257=IFCCARTESIANPOINT((0.065000000000000002,0.));
#258=IFCCARTESIANPOINT((0.,0.));
#259=IFCPOLYLINE((#246,#247,#248,#249,#250,#251,#252,#253,#254,#255,#256,#257,#258));
#260=IFCARBITRARYCLOSEDPROFILEDEF(.AREA.,$,#259);
#261=IFCCARTESIANPOINT((0.,2.9674999999999998,0.));
#262=IFCDIRECTION((1.,0.,0.));
#263=IFCDIRECTION((0.,1.,0.));
#264=IFCAXIS2PLACEMENT3D(#261,#262,#263);
#265=IFCDIRECTION((0.,0.,1.));
#266=IFCEXTRUDEDAREASOLID(#260,#264,#265,4.);
#267=IFCSHAPEREPRESENTATION(#14,'Body','SweptSolid',(#266));
#268=IFCPRODUCTDEFINITIONSHAPE($,$,(#267));
#274=IFCOWNERHISTORY(#3,#4,.READWRITE.,.MODIFIED.,1781126332,#3,#4,1781126332);
#275=IFCBEAM('0gxDZuthz3ghXaPCrhQTka',#274,'C250x65x20 2.0mm (joist)',$,$,#345,#298,$);
#276=IFCCARTESIANPOINT((0.,0.));
#277=IFCCARTESIANPOINT((0.,0.25));
#278=IFCCARTESIANPOINT((0.065000000000000002,0.25));
#279=IFCCARTESIANPOINT((0.065000000000000002,0.23000000000000001));
#280=IFCCARTESIANPOINT((0.063,0.23000000000000001));
#281=IFCCARTESIANPOINT((0.063,0.248));
#282=IFCCARTESIANPOINT((0.002,0.248));
#283=IFCCARTESIANPOINT((0.002,0.002));
#284=IFCCARTESIANPOINT((0.063,0.002));
#285=IFCCARTESIANPOINT((0.063,0.02));
#286=IFCCARTESIANPOINT((0.065000000000000002,0.02));
#287=IFCCARTESIANPOINT((0.065000000000000002,0.));
#288=IFCCARTESIANPOINT((0.,0.));
#289=IFCPOLYLINE((#276,#277,#278,#279,#280,#281,#282,#283,#284,#285,#286,#287,#288));
#290=IFCARBITRARYCLOSEDPROFILEDEF(.AREA.,$,#289);
#291=IFCCARTESIANPOINT((0.,3.5674999999999999,0.));
#292=IFCDIRECTION((1.,0.,0.));
#293=IFCDIRECTION((0.,1.,0.));
#294=IFCAXIS2PLACEMENT3D(#291,#292,#293);
#295=IFCDIRECTION((0.,0.,1.));
#296=IFCEXTRUDEDAREASOLID(#290,#294,#295,4.);
#297=IFCSHAPEREPRESENTATION(#14,'Body','SweptSolid',(#296));
#298=IFCPRODUCTDEFINITIONSHAPE($,$,(#297));
#304=IFCOWNERHISTORY(#3,#4,.READWRITE.,.ADDED.,1781126332,#3,#4,1781126332);
#305=IFCRELAGGREGATES('13TV_ELkT2JRP73sVQxHRM',#304,$,$,#29,(#95,#185,#245,#69,#43,#125,#155,#275,#215));
#306=IFCCARTESIANPOINT((0.,0.,0.));
#307=IFCDIRECTION((0.,0.,1.));
#308=IFCDIRECTION((1.,0.,0.));
#309=IFCAXIS2PLACEMENT3D(#306,#307,#308);
#310=IFCLOCALPLACEMENT(#41,#309);
#311=IFCCARTESIANPOINT((0.,0.,0.));
#312=IFCDIRECTION((0.,0.,1.));
#313=IFCDIRECTION((1.,0.,0.));
#314=IFCAXIS2PLACEMENT3D(#311,#312,#313);
#315=IFCLOCALPLACEMENT(#41,#314);
#316=IFCCARTESIANPOINT((0.,0.,0.));
#317=IFCDIRECTION((0.,0.,1.));
#318=IFCDIRECTION((1.,0.,0.));
#319=IFCAXIS2PLACEMENT3D(#316,#317,#318);
#320=IFCLOCALPLACEMENT(#41,#319);
#321=IFCCARTESIANPOINT((0.,0.,0.));
#322=IFCDIRECTION((0.,0.,1.));
#323=IFCDIRECTION((1.,0.,0.));
#324=IFCAXIS2PLACEMENT3D(#321,#322,#323);
#325=IFCLOCALPLACEMENT(#41,#324);
#326=IFCCARTESIANPOINT((0.,0.,0.));
#327=IFCDIRECTION((0.,0.,1.));
#328=IFCDIRECTION((1.,0.,0.));
#329=IFCAXIS2PLACEMENT3D(#326,#327,#328);
#330=IFCLOCALPLACEMENT(#41,#329);
#331=IFCCARTESIANPOINT((0.,0.,0.));
#332=IFCDIRECTION((0.,0.,1.));
#333=IFCDIRECTION((1.,0.,0.));
#334=IFCAXIS2PLACEMENT3D(#331,#332,#333);
#335=IFCLOCALPLACEMENT(#41,#334);
#336=IFCCARTESIANPOINT((0.,0.,0.));
#337=IFCDIRECTION((0.,0.,1.));
#338=IFCDIRECTION((1.,0.,0.));
#339=IFCAXIS2PLACEMENT3D(#336,#337,#338);
#340=IFCLOCALPLACEMENT(#41,#339);
#341=IFCCARTESIANPOINT((0.,0.,0.));
#342=IFCDIRECTION((0.,0.,1.));
#343=IFCDIRECTION((1.,0.,0.));
#344=IFCAXIS2PLACEMENT3D(#341,#342,#343);
#345=IFCLOCALPLACEMENT(#41,#344);
#346=IFCCARTESIANPOINT((0.,0.,0.));
#347=IFCDIRECTION((0.,0.,1.));
#348=IFCDIRECTION((1.,0.,0.));
#349=IFCAXIS2PLACEMENT3D(#346,#347,#348);
#350=IFCLOCALPLACEMENT(#41,#349);
#351=IFCOWNERHISTORY(#3,#4,.READWRITE.,.ADDED.,1781126332,#3,#4,1781126332);
#352=IFCRELASSOCIATESMATERIAL('09byIhkA5EUP1BH3ZhpIJ1',#351,$,$,(#95,#185,#245,#69,#43,#125,#155,#275,#215),#27);
#353=IFCOWNERHISTORY(#3,#4,.READWRITE.,.ADDED.,1781126332,#3,#4,1781126332);
#354=IFCPROPERTYSET('0WzBCQfRP7xhl9WeGoBt3p',#353,'Pset_LGS_Panel',$,(#357,#358,#359,#360,#361,#362,#363));
#355=IFCOWNERHISTORY(#3,#4,.READWRITE.,.ADDED.,1781126332,#3,#4,1781126332);
#356=IFCRELDEFINESBYPROPERTIES('3It7pv4hLA9Rg6Etm8rwTr',#355,$,$,(#29),#354);
#357=IFCPROPERTYSINGLEVALUE('LoadBearing',$,IFCBOOLEAN(.T.),$);
#358=IFCPROPERTYSINGLEVALUE('IsExternal',$,IFCBOOLEAN(.F.),$);
#359=IFCPROPERTYSINGLEVALUE('StudSpacing_mm',$,IFCINTEGER(600),$);
#360=IFCPROPERTYSINGLEVALUE('MemberCount',$,IFCINTEGER(9),$);
#361=IFCPROPERTYSINGLEVALUE('Category',$,IFCLABEL('FLOOR'),$);
#362=IFCPROPERTYSINGLEVALUE('JoistSection',$,IFCLABEL('C250x65x20 2.0mm'),$);
#363=IFCPROPERTYSINGLEVALUE('TrackSection',$,IFCLABEL('U254x65 2.0mm'),$);
ENDSEC;
END-ISO-10303-21;
